<mxfile host="65bd71144e">
    <diagram id="ajWHNzgNTnWPx0OJ1SDf" name="ページ1">
        <mxGraphModel dx="527" dy="329" grid="1" gridSize="10" guides="1" tooltips="1" connect="1" arrows="1" fold="1" page="1" pageScale="1" pageWidth="1169" pageHeight="827" math="0" shadow="0">
            <root>
                <mxCell id="0"/>
                <mxCell id="1" parent="0"/>
                <mxCell id="13" value="サービスA" style="points=[[0,0],[0.25,0],[0.5,0],[0.75,0],[1,0],[1,0.25],[1,0.5],[1,0.75],[1,1],[0.75,1],[0.5,1],[0.25,1],[0,1],[0,0.75],[0,0.5],[0,0.25]];outlineConnect=0;gradientColor=none;html=1;whiteSpace=wrap;fontSize=12;fontStyle=0;container=1;pointerEvents=0;collapsible=0;recursiveResize=0;shape=mxgraph.aws4.group;grIcon=mxgraph.aws4.group_aws_cloud;strokeColor=#232F3E;fillColor=none;verticalAlign=top;align=left;spacingLeft=30;fontColor=#232F3E;dashed=0;" parent="1" vertex="1">
                    <mxGeometry x="510" y="60" width="270" height="160" as="geometry"/>
                </mxCell>
                <mxCell id="26" value="" style="shape=image;imageAspect=0;aspect=fixed;verticalLabelPosition=bottom;verticalAlign=top;image=data:image/png,iVBORw0KGgoAAAANSUhEUgAAAMwAAADECAYAAADTcc6fAAAMP2lDQ1BJQ0MgUHJvZmlsZQAASImVVwdYU8kWnluSkEBooUsJvQkCUgJICaGF3puNkAQIJcZAULGXRQXXLipgQ1dFFKyAWFDEzqLY+2JBQVkXC3blTQrouq98b75v7vz3nzP/OXPuzL13AFA7wRGJ8lB1APKFheK4kAB6SmoandQDCEATUIAzUOZwC0TMmJgIAMtQ+/fy7gZApO1VB6nWP/v/a9Hg8Qu4ACAxEGfwCrj5EB8EAK/iisSFABClvPmUQpEUwwq0xDBAiBdJcZYcV0lxhhzvldkkxLEgbgNASYXDEWcBoHoZ8vQibhbUUO2H2EnIEwgBUKND7JufP4kHcTrENtBGBLFUn5Hxg07W3zQzhjU5nKxhLJ+LrCgFCgpEeZxp/2c6/nfJz5MM+bCCVSVbHBonnTPM263cSeFSrAJxnzAjKhpiTYg/CHgye4hRSrYkNFFujxpyC1gwZ0AHYiceJzAcYkOIg4V5UREKPiNTEMyGGK4QdKqgkJ0AsR7Ei/gFQfEKm83iSXEKX2hDppjFVPDnOGKZX6mvB5LcRKZC/3U2n63Qx1SLsxOSIaZAbFEkSIqCWBVix4Lc+HCFzZjibFbUkI1YEieN3wLiOL4wJECujxVlioPjFPal+QVD88U2ZwvYUQq8vzA7IVSeH6yNy5HFD+eCXeYLmYlDOvyClIihufD4gUHyuWM9fGFivELng6gwIE4+FqeI8mIU9rgZPy9EyptB7FpQFK8YiycVwgUp18czRYUxCfI48eIcTliMPB58OYgALBAI6EACawaYBHKAoKOvsQ/eyXuCAQeIQRbgAwcFMzQiWdYjhNd4UAz+hIgPCobHBch6+aAI8l+HWfnVAWTKeotkI3LBU4jzQTjIg/cS2SjhsLck8AQygn9458DKhfHmwSrt//f8EPudYUImQsFIhjzS1YYsiUHEQGIoMZhoixvgvrg3HgGv/rC64Azcc2ge3+0JTwmdhEeE64Quwu2Jgnnin6KMBF1QP1iRi4wfc4FbQU03PAD3gepQGdfBDYAD7gr9MHE/6NkNsixF3NKs0H/S/tsMfngaCjuyExkl65L9yTY/j1S1U3UbVpHm+sf8yGPNGM43a7jnZ/+sH7LPg234z5bYIuwAdhY7iZ3HjmKNgI61YE1YO3ZMiodX1xPZ6hryFieLJxfqCP7hb+jJSjNZ4FTr1Ov0Rd5XyJ8qfUcD1iTRNLEgK7uQzoRfBD6dLeQ6jqS7OLm4AiD9vshfX29iZd8NRKf9Ozf/DwB8WgYHB49858JaANjnAbf/4e+cDQN+OpQBOHeYKxEXyTlceiHAt4Qa3Gn6wBiYAxs4HxfgDryBPwgCYSAaJIBUMAFGnw3XuRhMATPAXFACysBysAZUgE1gK9gJ9oD9oBEcBSfBGXARXAbXwV24errBC9AP3oHPCIKQECpCQ/QRE8QSsUdcEAbiiwQhEUgckoqkI1mIEJEgM5D5SBmyEqlAtiA1yD7kMHISOY90IreRh0gv8hr5hGKoCqqFGqFW6CiUgTLRcDQBHY9moZPRYnQBuhRdh1aju9EG9CR6Eb2OdqEv0AEMYMqYDmaKOWAMjIVFY2lYJibGZmGlWDlWjdVhzfA5X8W6sD7sI07EaTgdd4ArOBRPxLn4ZHwWvgSvwHfiDXgbfhV/iPfj3whUgiHBnuBFYBNSCFmEKYQSQjlhO+EQ4TTcS92Ed0QiUYdoTfSAezGVmEOcTlxC3ECsJ54gdhIfEwdIJJI+yZ7kQ4omcUiFpBLSetJuUgvpCqmb9EFJWclEyUUpWClNSag0T6lcaZfScaUrSs+UPpPVyZZkL3I0mUeeRl5G3kZuJl8id5M/UzQo1hQfSgIlhzKXso5SRzlNuUd5o6ysbKbsqRyrLFCeo7xOea/yOeWHyh9VNFXsVFgq41QkKktVdqicULmt8oZKpVpR/alp1ELqUmoN9RT1AfWDKk3VUZWtylOdrVqp2qB6RfWlGlnNUo2pNkGtWK1c7YDaJbU+dbK6lTpLnaM+S71S/bD6TfUBDZqGs0a0Rr7GEo1dGuc1ejRJmlaaQZo8zQWaWzVPaT6mYTRzGovGpc2nbaOdpnVrEbWstdhaOVplWnu0OrT6tTW1XbWTtKdqV2of0+7SwXSsdNg6eTrLdPbr3ND5pGuky9Tl6y7WrdO9ovteb4Sevx5fr1SvXu+63id9un6Qfq7+Cv1G/fsGuIGdQazBFIONBqcN+kZojfAewR1ROmL/iDuGqKGdYZzhdMOthu2GA0bGRiFGIqP1RqeM+ox1jP2Nc4xXGx837jWhmfiaCExWm7SYPKdr05n0PPo6ehu939TQNNRUYrrFtMP0s5m1WaLZPLN6s/vmFHOGeab5avNW834LE4tIixkWtRZ3LMmWDMtsy7WWZy3fW1lbJVsttGq06rHWs2ZbF1vXWt+zodr42Uy2qba5Zku0Zdjm2m6wvWyH2rnZZdtV2l2yR+3d7QX2G+w7RxJGeo4UjqweedNBxYHpUORQ6/DQUccxwnGeY6Pjy1EWo9JGrRh1dtQ3JzenPKdtTnedNZ3DnOc5Nzu/drFz4bpUulwbTR0dPHr26KbRr1ztXfmuG11vudHcIt0WurW6fXX3cBe717n3elh4pHtUedxkaDFiGEsY5zwJngGesz2Pen70cvcq9Nrv9Ze3g3eu9y7vnjHWY/hjto157GPmw/HZ4tPlS/dN993s2+Vn6sfxq/Z75G/uz/Pf7v+MacvMYe5mvgxwChAHHAp4z/JizWSdCMQCQwJLAzuCNIMSgyqCHgSbBWcF1wb3h7iFTA85EUoIDQ9dEXqTbcTmsmvY/WEeYTPD2sJVwuPDK8IfRdhFiCOaI9HIsMhVkfeiLKOEUY3RIJodvSr6fox1zOSYI7HE2JjYytincc5xM+LOxtPiJ8bvin+XEJCwLOFuok2iJLE1SS1pXFJN0vvkwOSVyV0po1JmplxMNUgVpDalkdKS0ranDYwNGrtmbPc4t3El426Mtx4/dfz5CQYT8iYcm6g2kTPxQDohPTl9V/oXTjSnmjOQwc6oyujnsrhruS94/rzVvF6+D38l/1mmT+bKzJ4sn6xVWb3Zftnl2X0ClqBC8ConNGdTzvvc6NwduYN5yXn1+Ur56fmHhZrCXGHbJONJUyd1iuxFJaKuyV6T10zuF4eLtxcgBeMLmgq14I98u8RG8ovkYZFvUWXRhylJUw5M1ZgqnNo+zW7a4mnPioOLf5uOT+dOb51hOmPujIczmTO3zEJmZcxqnW0+e8Hs7jkhc3bOpczNnfv7PKd5K+e9nZ88v3mB0YI5Cx7/EvJLbYlqibjk5kLvhZsW4YsEizoWj168fvG3Ul7phTKnsvKyL0u4Sy786vzrul8Hl2Yu7VjmvmzjcuJy4fIbK/xW7FypsbJ45eNVkasaVtNXl65+u2bimvPlruWb1lLWStZ2rYtY17TeYv3y9V8qsiuuVwZU1lcZVi2uer+Bt+HKRv+NdZuMNpVt+rRZsPnWlpAtDdVW1eVbiVuLtj7dlrTt7G+M32q2G2wv2/51h3BH1864nW01HjU1uwx3LatFayW1vbvH7b68J3BPU51D3ZZ6nfqyvWCvZO/zfen7buwP3996gHGg7qDlwapDtEOlDUjDtIb+xuzGrqbUps7DYYdbm72bDx1xPLLjqOnRymPax5YdpxxfcHywpbhl4IToRN/JrJOPWye23j2VcupaW2xbx+nw0+fOBJ85dZZ5tuWcz7mj573OH77AuNB40f1iQ7tb+6Hf3X4/1OHe0XDJ41LTZc/LzZ1jOo9f8bty8mrg1TPX2NcuXo+63nkj8catm+Nudt3i3eq5nXf71Z2iO5/vzrlHuFd6X/1++QPDB9V/2P5R3+Xedexh4MP2R/GP7j7mPn7xpODJl+4FT6lPy5+ZPKvpcek52hvce/n52OfdL0QvPveV/KnxZ9VLm5cH//L/q70/pb/7lfjV4Oslb/Tf7Hjr+rZ1IGbgwbv8d5/fl37Q/7DzI+Pj2U/Jn559nvKF9GXdV9uvzd/Cv90bzB8cFHHEHNmvAAYrmpkJwOsdAFBTAaDB8xllrPz8JyuI/MwqQ+A/YfkZUVbcAaiD/++xffDv5iYAe7fB4xfUVxsHQAwVgARPgI4ePVyHzmqyc6W0EOE5YHPU14z8DPBvivzM+UPcP7dAquoKfm7/BTmDfGcR+MvvAAAAimVYSWZNTQAqAAAACAAEARoABQAAAAEAAAA+ARsABQAAAAEAAABGASgAAwAAAAEAAgAAh2kABAAAAAEAAABOAAAAAAAAAJAAAAABAAAAkAAAAAEAA5KGAAcAAAASAAAAeKACAAQAAAABAAAAzKADAAQAAAABAAAAxAAAAABBU0NJSQAAAFNjcmVlbnNob3Rnap8gAAAACXBIWXMAABYlAAAWJQFJUiTwAAAB1mlUWHRYTUw6Y29tLmFkb2JlLnhtcAAAAAAAPHg6eG1wbWV0YSB4bWxuczp4PSJhZG9iZTpuczptZXRhLyIgeDp4bXB0az0iWE1QIENvcmUgNi4wLjAiPgogICA8cmRmOlJERiB4bWxuczpyZGY9Imh0dHA6Ly93d3cudzMub3JnLzE5OTkvMDIvMjItcmRmLXN5bnRheC1ucyMiPgogICAgICA8cmRmOkRlc2NyaXB0aW9uIHJkZjphYm91dD0iIgogICAgICAgICAgICB4bWxuczpleGlmPSJodHRwOi8vbnMuYWRvYmUuY29tL2V4aWYvMS4wLyI+CiAgICAgICAgIDxleGlmOlBpeGVsWURpbWVuc2lvbj4xOTY8L2V4aWY6UGl4ZWxZRGltZW5zaW9uPgogICAgICAgICA8ZXhpZjpQaXhlbFhEaW1lbnNpb24+MjA0PC9leGlmOlBpeGVsWERpbWVuc2lvbj4KICAgICAgICAgPGV4aWY6VXNlckNvbW1lbnQ+U2NyZWVuc2hvdDwvZXhpZjpVc2VyQ29tbWVudD4KICAgICAgPC9yZGY6RGVzY3JpcHRpb24+CiAgIDwvcmRmOlJERj4KPC94OnhtcG1ldGE+CrXhBEMAAAAcaURPVAAAAAIAAAAAAAAAYgAAACgAAABiAAAAYgAAV5lxmh2gAABAAElEQVR4Aey9CZAmx3Xf+aq+s+9j7vseHIOTBEmQIAmQIAkSFGWK9q4uK6zQ6tiVrFivwhEb1sZGrHfD3rUiHA47wrGxWsmW15JFyhRFihRFkyIBkiAIAiRAEPcQg7nvnum7+7uqan//l1XdPcCAM8L0fB5gurrrq6qsrDxevitfvsyMsizJbOVYgcAKBC4LAlGaZSsEc1mgurJIUf75CrCvDI7/tb+OoJeVNrxkKyTEiDkjc2gJYlBAVFCBf6/AApS8yJa8LIIVb0mwf1b8FHH0PlqaVhHhwmtGXsUnxZ1/6hkUISp1+cIPlzwV31OrPDQvHI+Lxde71N9HVlry9fV5u0Iwl9HuBToVUR2fHbeEWUKmzNIo5ldEtXgUiJijIS+U0tLUAoovfhHexkL6pdGWRric+yXfZlHiSYUyvDq/KBC96pCJKegIjOEiHOH1iT18eF38rhDMZTVzh1gFsoXrEpxcRMg8cFHyKKA4lRGElYGQAXs9zYVbvc6PjAj66mLvFEXvHK11UxxLP1gaHomgi5SKK0EXxFl8XBIjpFzE04vXvAxRrqffFYK5nNZ27ltgjj4Q5iBRoAzdSQFyXFrUYy6OXCShVF6Dd68JCCrVa4L5VoencUFxiCldsaDUJe+WFknfviZN4irO4id5XVQn/3jJF0tuldb1eKwQzGW0upApQo9HPnCnJ/i7JAWhLgsWuPhSjFp6T1SORaQMz6+NEcKDmpff++ViMfPU/FXxnivBryYSJVHECKXQt0VpdA1vFwhfH3A46SgxZwyLKYS31+fvCsFcRrtLIQtH0PNFJpETTQiNvFOT33MJqFhw6hCu36VoWoQWqLoUHWWHyXLuHoRG8ba4LqK43+XBS803BTnEhZWikD5FxkuvKr9/UJSQBIlfpBFyC9J06WfX4/0KwVxOq4tOhJRCLEmTXLr4pwRlhLkStcDaeaYj7XgMwi4SlCLnnesFbNSNwjkLwnOJpdRzStCt932KZ10Vf2n/RBKPwxE9kHT4PkhCv8/fKUeXkjkRLUrOPH3qEfFOT8Xpn6z80ETXuVn58qoPt3XkbIFACUATElbBWZlZJX+alnVmoYU5wtpYYRucs5ZyZuk8HX3eZy2LeRcn847rjqQQSZYG4pIapnsdsbXJZykxiNsHZC7QOI2rlsQ9OWJjV4spE5Y6IbpFJYu5N8LS8hDPVV7VCVP8Xu77COMs6Zl6OKEG0nCBRBmclggScYn4dcbxpc3Knr8q8RY9VgimwJDXbWBQpnkcOhizpHXS0uYps9Y5i9qThE1AKDohFEdwkFTp6RTye9r5c8D3hQ52/uhxlt57MQpJw0NRvEAoBORSIeSj5yJsiQqVx/F0lYATUSAmmb5FfBnIH5dKTmhpdRU0tdpK5WGLyqstrm60qL7BotoaaG+AMledcEAWMvvJxwrB/GT4LOvbhfZwhFHjCAnUvOHPW005wu1gl/5Gj4v4JXUnb1Rx2CX9DCG0a0y8znIpEHWmQPbzID5SoAMBcFoyYVFCeDLNsyREE82He75JO23CdXaIQ15Sryh0pPLkHF1l1hk4ve7F+fUcrmkcBhIdmb1eRPFviitvXFrwrLIqeCGebsOXFIaXi72rEFN9H1cOiRg+jpIWt0olP/Xe4+RXgiWN4lKFGxEQUgTpZaUaxIM04rRS3azcg0QbJAqSqjzAM8RVGglX7uPyIM81cgntFepEGwH0BU2VUohcAbLHImEvVqiS6qI2RSr6lUcP0Te8KapQBAKGxbwU2J3j2pIwQjwBBoClQHEpoIUm4nC66lfA8jsnDO54dFRCdfJr3jSKFmXz4NY5yxpHLJk9aFnzNJrUNDQ0B0FIlWpZmjRpR1QpXVNUohRicCmRWppz4kjIHoNYIIYjFfeRn1JVdHrTkqGIQydhfmooMn/npQslXIjv7/jc6yLi0j3nTzqAVVAngVkOCwFhsT8S4GNyFYSwFR55/0lELuQkDKJLvZ4di50ApU62iB6YgtQwHRHMSUScQVQxMIggqExEhEposQiqF7D0QUxVS3v3Wrm2hecNhCO5nABVLgjXKwXMcs7lqp7CqHAgmtCyDhcnNNUh1M5Bou9UJD3EqhGMC7gH2Crm1T+uLYJRf0CYn1VciAh/BCNvelhM5AACXnrvFEJ8IrmaIQRS/yAZ5zplpY76FTOWIDEMKRK1z0AfRyybQb1qQSgJCAQiJGUaC4T1PoAQl/S8EdTQBcKL04rjovMLOaIy+r+QRc8gUEY8kXAotBpNT2pV3erqbym32hmELd75NbxX1MXwgghC6MV/BRiVl4tg4Qe5LojbEJYaBO5lCyUK70NZnSCAW5I1SEOStIHkRL0EboaamYqBQEiZ+m0wj8iJCuTPGQmOu3xHWb0tKIrK0rfeyvWN8JNNFlXWm1WQRBXBDqmFhNIpySRYZhEESupZhGQKFEMLUM4UeFHEKC7gQNuqosDZJRZfqR7q5y0yIgfAVf+5pggGfsdfRhODgA4r/XACHAFUxCP0jlJRkqBGQ6f0Idpn6Vucpa8xhvQ4iaA4DYEQ3hpHYEjVorOt6EgKg0uKU6Kw03jqDPfAGeGaCxyTjnDONY2OsneKQRjHBk9FKelQAXTqna40pprbG5JHf7fkKmTi0aMqmHpc/AAR3Kjweu+Lr0gtR9Qi5DVXJaFzgaCKgBDTg/lJpd7yyiU4z1KKvLQhAp+TF1I4o9/mqiCGjAzpLAltuoewMqSypFWEuiqCSlNJFdC5UrVKzzCEo/7QasCE+tYDIfVCVPSXIsINFS9zxheKu0AnamZ3piclgZ1TJOLp8rgAS1WrS8c1RTCOfGobkK/gw/BvABMgIjwS0sVqJAmj1hFLZ75Dt+MRBMtxswYcy9UHxScmRObqRBlCqSIZ6nC93h0W10YtUxgNGysdGkF9jiDNdFWjEK4fjpKQSa2lZ8clbjwCz3mrqY+idBYPnhYe84T8oyKwCNMXeXq6vVwsULyFuEqiSFeJLD1UYA7PTnHC6Y/KVsmQTigr7/RC2Oln+FCorz//1NW0wNf1FurwRFzqAM+k+Sztch7mhZRqSeJLQkGUZKSoMRlFku5l1LvRm9HaPoLB7m3wLkkd5aHyqhySJjAyL67ClQrt4rdqL+WdlykUXqW56se1RTDUX+0iM61FYLLRV4B4AiHxQkBE7UomHrbm5MOWTb9kcYNG6ahBeA1Qy2B3xkNaRVfuWWWV3p0Qyhb6IXVLSLNA/kxSCiJQAzoHBfiiNT/UAF4WGkkNLZbnjaIIIow8mohIQbxb4MoekEdQobzx82cuQoeQuN/waZ6ap++Z8po6F5mEaK/9FWJRrguIFKIRDhUHaOU0pSIqWFeVdUkU7pVC4Nuu4nkaoZ45d8i/Jp4Xi69FnF7ekK6nlz/HEI0kVYp6l7bPIfmPIYROWKcxGwgFIHuPTrARWMu0wcCQxSNvt2joAzC022irHl4hrcCDMvpGrHaXmqbiq9nIy+u0tFkI7sZxTRGMpK/gWIqlQnHDf9LCYtU8Yjb3AkMb+zmP8XzOWli2hKRldcilTiHWo+qgZbUh+iU9Vk4AtPodFTqlqFhZRkdVRKFWIuEwkk5+3gAhr9Akzsc8To4Din1xZOOz8EJkpCMP0EWHX2naBe5PrRaosogUohbp5B+FT/NXF7vEStPTFerkx0KSS8J8nCh/78FE8ootRF6oQwgJ34rwxIB0qmzKL05CLZd+L9jou8KcjHM0h0JEzDxgRDD6RVkyyz3MjTEmN8c3ZJ2kj4S67FROnzGrog73rKO5dtJV3G3W/3YrVekDxVLZwsgUH5CXMhGGYBrnb2lteXFVj2uKYNSDQUkS44QbjWHI+p61Jr4HsRyxuI1VCwtWggVHKlqpCoHU10EkqwJByIIlKw6dcjNZcAAjEiWAmV/EuyxvtBw5kEveT8hicTKBPCcXxxQ1OaE5xagTekGjFA/+WfEthXZ1Re1VRFh6H8Ii6ZJ5unp78UNS9RKHcNIRc0m8hWwXbqhpUbMl8f21JxA+TmE6kmpKzyVeTgb5fc7PpcF60d1EHr4MRViSVIKqJWtchBneze0ianXWPU+ZuCEY+j5pZx7ti/ZpY5xpQzyNMzBHLJbAv6Q0Kv2ozavo8tzK+W4kzw20Kf1Nz1caiFqWPijPnnRRnqt8vaYIxhjvSBt02jH92tyzPD6DRDkDjgNYgGhwoAyLlcYB4up6gMrgWrkfQqAdIo3CQwhwwSwV8UAANLhG5sXt/ADIogcHsL8j1Bs7B7suPHuQN7THDDjkX+lN4KghPf0WHI5wvfZP8htHuDw9f0V5FiPp4yVHyMsDvABLXr3ObUBCvQwfeAp5nsUnYkCeJy8d8fO0VYuQI7/eOVQEXvr3gcw8XY+vmHzh/Ys8nfzrkHVIyaPKuujwDqbsIMkpA7qUWJKICIWNRFQa2gkqzBgPSzHcGIYbGWpkocs6mPrbaBo9mKv7t3LeDNHsY0hoJwOqa/ke443S86xD/kWdr+a1awQT2kmNVFROYFMogERqWPuUJdM/snTyBxDMfqT4mJWEXFKraohl+iNRRQNlEAumSswunDQOjRj6GGoM0k5oFlGQ8lGj+G1ONEoPSaNXhf+X9OOFQ3G9TAsh3IjwimcRhepw4RE+02/+5gKkJc8QIXy0NL8Lksm/9TCVV7D5SceS/C4Zt0iHb16TbJ6vlzkvq98H5pIDiwSEnIsfOyiLZKnggjSGuQXpjhwX8POILhn0uTMiEYweCCWOougnwn1IQwIyGqQyHEA8WQsrJxa6CEtm3INlbfAOi4feY6X+O3I6D32iUC8RutIkQaXp+XPVkVczPLzx364RjKqiWgipA6wytFnZ+ani9EEI5RuWjH0LicKYCRasjsy+WE6qfTux7m52SeLE4X5WvFs53uIQAMPBjfb8i9aeeckqDVTyDowE1Tse3G3lzb9oGdLG6OOUpJo51YnRCDeC2uvjY06MBDnFXjnIukYwGqJyNO9QGbhs5NasMzCRZyw6/zksXwesJXeTnrrVsdNH1e0Qiez0GvBCcEBs3slDFMcanV453uIQQLXuoF2Um9gFUM86R8zmD1g2heWt0bLyqirGgXdYefWDqGv7MAwwmKwDla+tfhKaiXSHkg8UQzXR8jDZrhGM5Ik6z5IS4hxpY4Jxr69Z6+CnEb1IGnGIIRwAh7HNV/CwZURYli0Ri5hEsONLoWNZBzc5Czorx1sZArKhRDDIFKtpirEkpl9j8zjAzjyN1JnCQoo6P3qjVdb+POjyTlRAWUE1MO0yhvsOTBrmqj6t962uHFpdIxgnEvx/AAED9OPWmfiGdc78qSXnxvEwoWM3uNOsbxvWL7mjh/6JiET6m+vOfitFNCe6K6/7SgrXNATU1uABbjtwVK6MySElMmPaRPMEBqEDZrNjEAJ9oMEbrLz271pl6B6IS2NtWOXAE2GbjM+h37Q8le0ewSAaO+q8yHt2nIHHU/8Rs/EYXKJCRW+2rH8HtetBhKojj2SRQHUWA4eQ3V33IhZA4Jflqf9KKtcsBEB4HyllIFT2bB00f+pjMPi9NbGszdD35QQ7UNHutuqmX7G0ZwNSRREhGlDFsQa0Wxj+8oTe+E8XCQalTFaL2Vcsg1jaZx8BIIzjrtoLndxIjftCx81NUtI+c11MKpwIzTt1XEUzKxTzxlv8TfRlErdgmzhmdujzCg8YoNPAdrCLJUiaMUvHH7dMhqJ6v5U2Pmil9b8EcSCJoKIUlc1j6xvHmyuvfBcJxi2+qGDftPT4H+PWcsii/lErrf4ohKPxWqSKauUcRB18ACTiEZsoaivCAXC6rBxvdQjgJyCC0TBAImmBciVfM1lZO1jFSi08ougXz/zY0vPPYH5mMHR0q/Xt+Zcw3wGGd8Ah4seQnA8dvNkIRjgu9/HWGSxixz/PIBUu+Kt24Xh3l4vNktzlqVSCccDFp4gE4Gjcgxte8eej9zyLzawcb3EI0P5SyVwd456+SYqxJxUTRd2KmeIRl2GqeEp3zj5syeQJfNFWWX3P/4kf4Sb6+FLr5WKlNNTpXx5wdU3CyKxcgSO0j/2RdU79JTSAoXhoH0Mtt3OvqUBUHilTAhDeyYvQU10Vk2oWRKsIx1UzAfInHgBVcVeONzEE1GmPGWqgj1vBXwFPDmNIQl4ckaZnaJ4OA50prk3JxA8Zx3uFIYkB69n6Tywevg3cweMdz5E41RQN4l8KZS4TUl0jmMApkB9jX7L2yT+zaJZ58f1rcPH+CH18fIcAQIq6pbkZcvQTrWi4xTkFYWk+z6KsAU1NZNIhulg49FAEiMDUFVwhmgXwXKM3RQuFluNXEoRAKeXebxGyu3cEDBUVTb5/ScqMKTFRnx2L1Yx+TGf6pHUG1tngDf8Wg1oNUgNP0E40RUB44V7OywCD7hGMemFQfWviCUtO/AmWsucQOVXMgfdbUmOuuKb6AqzU3Ye1QIMoBrm0oH6hw2JL18xId2C8WOUd+gI9p3d0iua4WOSVsP9qECiaJaePwOfydnOC0QuaUP1Z2jG49iMiXCXHeZb5NNLUE/Ajm/o+50Gns3jNXVbf+r8hTYgrJ1334tUUEQ4lvwxH1whG/N7LPH8MF5gv4jr2ZSZ8NfALYu730F4GK3GkjPAyFm8BGu6Y51JCyhxfamEI3mlsxrnHBQAoWsCZCvH44oL3HrTyc81AIDQOLe044VMIVDaC1ZIiBh0lNSJznVyfUqdfA9bq6DMmozlPjSbzocZ+xD1TPUa3W33DLzPq/x6e1f7SVlDZwBbhi36X4+gawbhrjCChRSeY29Ie+2tLzyBtcO8ujazHCxUDQE0eyBqgEly0Agm3ZfkF6Z8ncRZRnubAKNBPwnW7cKgvpOOCwBC08nttQICmkSBxZ9lcBQsFU1uq/fI21QQpZ5TqwCsct35G/LMOxNA4bk3wKJ6dYrrzkJU2PWj1NT9HLFxicMDVeE2YviOHKpKRirYMR9cIRjPotGypqi03h6jBgNPpP7PGiUewdkD9dRZH6N3C/G9cufFKVucuQYVT/94XwcNaEiXSSwkrQ35uCOBCek4a+vGbHOD5+2WA0UoSyw0BPD6cYKR+q524FlJFKpgzRwgnk7Ml/FPzXpgIRQeeNQTa4z6JMJ09zOxnvAB6+6088gEGLj9On3ir01UJ4ujILxHG6jNshSTLI2AoXrDbLjdIXpOelu6JsHzh/wL1wwFYpSSeO2ozR/+ZVaY056VlCX2aUs8WlsDazWBmvw9mCmJaG0xGg0gOdNJjNQnLqUP3ryYaQQeiWSGY17TBNRWgpoNqnDhUMChGRFS0p3TqWH5krGAT1l/Aqjp7yGzieaTLFP0TGGe1buVNn8Qq9lMwURbTwPQsy2qGpVXW6FKJb1yC0e9dHgHTPYJxQED06sgldOiZfW9l9Kt0fprBzM/Tr/kqnGPMKxzVMQCwUEUkNa3CrErWvLIKLv+AV4yjJtEsZzpZT0QwnIJ1+MklzHKxFKW7ciwvBJyZiVRAaPBB85k0BTnM5ETa0HaaAVpCkegw0zZuvwJuHGWJrPPWxgGz3FdBqtyOKv+ApX13QDjMk3IEUI9lEk0EDaXUYBRG6pjkjZQynVd+dE3CgOdICgCD56n4CuSCoBCQAIox227ulKVn/xqJyyowmuuN2T2uUtk+Joz17IF4tiFxWH2RvwjrSEkEI7Yh4DtrIoMcaC5hVgjmyrHjaqXgXB+Cob18kpmIhbxi9dY5M40nMOsyabxsjfn9LHRCe9NvwU0dn8Mh3Kk+gQr2MZgoawAYqwHRZ1HnNiqj8qPKaVCzAxftgCPSxCRclkkj656EEd+HOq0z9R1Lpx6nUtjKB99tpcHbwPkYMoCQ5o9gIkTkzr5gnVlmX86cw97Oh6hqvsBFBanTs5p1/tYgbhnpXXDSFLg5dXF1jNxEiSvHNQsBNaskiXN+IXveP8lYt1rTlLM2qhjXlMHKuAqu9G1hdRkGJAduYR4MKnt5Pd+GNk7Of5WR/sdYRGO1JasesLo0E3DNZ4G6h7yw700mYby3T/3ap/FSPvmXoarr7rfa+l+mYnW4DRXUxB86cprfnbVexN8MP6GJ55g3gzu3pjFrmVb01liWNFYSKfki2kxX1ooxuNZk6LxyzPM1stwGH5rFWZnPKReAAZ7g51IJjgVAHewiMICsL/QjhaEgujwGz3l6vPN4xFJ+HludVP6UljdWiKDUwqEXOWctgjzywsPSD7xEC29e/2bpN68XK0+Lui0cBTMhqKhJUVevoiIu3OhB3yodkM5hRH/Sw/SOcKXn2RBPsNWhkULC1EWWqUeQkpqVoRGE8ZV8xwMRRQMNw9e1plPPYGSmSYY+ag10R1k5ZuCmoJ7XdqKqr6MYwhXSZX5VNg9zPf3Hlpz/Ebo6Ew63/LpVh97Fe/dZltiiHCr/8sgY8l0KSa/q1fkRIAFg++T/i3vM55GgAGV0h/Vs+kcAA0AwLRljIRAWoOnQqRQdVrScesoSzmweHbbFapZaII4VR7yRIJy4inGA5ZVENFbC45mZd5mmrCKBtBayGwq8x6d0nVJoDADt8/7z7DwzL94SNBCQOUCGhTWGVSqPS2PlBKeGEDJIFdA6Ad4++i7/vLjx6Po4zzekkyen+IsfcJ8XyMMv9fPquIvP3rQF4quZeeVvnWBUB2WrH4VSi4KQuA/2TOVdMALq6aPmod8RygtM8/5IGJVHlVpYignGpWSRHmHxd+bly52FPkjmS9My5Zh5+1kDidJkqAF13Vcg1VJLFbUn86JYcraylg5973by7g1t5lmqr0K6GAQ6Z/4z1lb1fyfQPoatsvM3mYQIwaRaXot6FHVWVZbh6BrBpHRKYlwa2if/0DonPo9rNsuLomrV1t2HE+aD6Ka7wCWkB+3nrjFUriM1DQCVBGhtNTG3HwJSB/AI7UifB4AnLdnmEe4QXFxm7TGW50m1HA9rkZVKsrRhrtbSSxq7kU2f5V/R8Rw9hVABn3JkKjhljlBCCkcnWeUEeUcO0silit57BBG6fyMM4QjUEfDQI5BO/iq/KFL4NP/17wI6578h5PV/RciLqXk8yuAhebjKziykUDTeyMAYDr2RNFSA6qBrceo2hIuWilL6W/EbSW4aKchSYOGmYX0tGHECGw0DZNojx9e6Dtew6PsM1it2SlDbt+TmguTB7lti4b5Y2kKNwWvWJItZUimq7yCMcTmtv0x+iU8mc9bkzKlMX6c9xTJcx/6jReOHQBYIaACC2fXbbCxwD94AKgr9ZIeJ6qsaXPnRNYJRw8WMo3RO/Ac4wp8jhllKp4VMweJRwz0mWvfzblKWEEjhNiW1bkmNkCO3ODhg03NJlpXGGAzqm6wz/hAu3hAQS/KENgc4UIFGgkVtWRmzdBUrGwv8yfIWV9j/REQkVxwad2HVmBxJhCI69OvIwk2sUebFwAB6x6AQy2NrwhKIF5rFY4dUPF1ChZT+kjqFSErxwsPjKignhteLR/LINOLpXHrwosh6IRik9nT0I2Lnqjg6xY2Ul0/5FoaJDPKXKq+skDLO6ApMHXkpY4ilMhJX/Q+Q1wlG5cloV614KTV6DlWLdnYbr1JXcsxRiSVlkfoZ0zuywRtRod6Dced2iIc15niVQCDSNipqb65JJpWdT8lOblEdzMcZA97N/f/Y3WJKbZWD/34WxBDBDN0Lk21QXsZvfOCTl153Lld4dI1g3ISIDtw+9vuWnsBbGUuY4N1m9L42PGDl9T+LAeABmL+QGUBBMEnuAhFDOO7aIIjzjdBEKJzJOsIYTdZ6GbXtIbwHHqHfg2laxCKCE5x06gBwvvBGGZsJUqikzYIQ+alWWgRxYo2Q6ghslRu+1yEEIT0hiXIt1BY1IC94r6aVKoYaKOQSMTtxi9vyFRGDM2lAzlejOJEWDpGb56M0dOdFyMuxEIs31EnvXv1mIUp+o9Q8Eh/oGx26OC34C3L0TDzU3y9NU9LXWYBXVtKKUxyNQ3V1BFbnnO1DfCsRmFiHPXVAKoiC8uuDvAyqV0obxBXso/0slwSRxP3v8gUsWm7ZEbyAFXNfYiRPjGSJ8DRWyURfWvhERcWwiuB62aJj/wp17BWXNhJ6vq0HFtXS7t9GJbuf0iHBXBWnBt5OefsS9UqOrhGMCqnKt46jkh37HJOAUNHqAzRA2zosghHVWN51eB/0wqht3y3oryNSyEDRerBvyCRNk/mcGBCUmds8y2yINNK8bzZASlgQDqqBgE4ELidrC7PyIpaWRX4TpgXiNKeCBtXAF57PakQfBPNNhED6WAYFXML95F59oZLWGRC30nsMD3mfSEitWrnBgvI5goqj0bLS3oSkhdoXNmeltZfQpWCiJJSKHzlW+1rCpEbsix4hfsg3RCCEPBfi+41iceOuEnk5yGkxFu/JT1m6oHEGwwMDXVqJP6zKD7ywXqnPAVC9zZxBFfvoaEV/EDn1fkro63CLisUAtBZ/1wLj6ojDnIyBxaiKd3p1lPthJD/rKbO+XApcVQYfVwxF8iqJCeHjAtprLwdamvxt/iBu/I9YOvYoJufjWtiU7TXIA7U8m5umD9Nn1d2/ZTbyYf9GPR2BQgTs1BaAdUW/XSMYIZcovXPy31sLK5m8SUsDO+jgrfF1p7ImnTbVCyKyIdadwjxY6nsXSCpbu46AIGpy4Zw67c6PpX4BGMHX1QOtMEIjZhm7huG3pnV9WRkQ4LLiP+sxZy28CpqHrS2iYnnSiEWySUD/5CUECwgfOK8kCu/kYi6E9HfkDsFI3Iu4RFhsB0A9IDKW9hFReZl1j/HByxYqoALyV3DohUDCda/TS7FwIYCD8CKqv87jqGAXvMjD/ZPFdLyjLoTWGsdCfO184AyGq29TQR9HO7GpzyHEgvB54FbfgP3izl4uQZ5nPeLj5eoYtykSI6rB2Xs2IbU3wOh2QQi0oRiP9tKJ6Udy+hYiYkL0MwXnUEKpsSowbi+esMgmvJOkjpA2aYkMtVfNxEMQytdZ/OIwXJcF6VHb4uFdLOi3Da3igGUTh5zpVnb8ptnwB2GIjPZ7amSnPAoYcnslRxcJBgCg57dP/jtrnZKVjG6cVjHs3w0Cg7yMwaTziHYQu4NvWaVvO4avuyGgzcB+I1c6gPiYORAcyDSgqz6hndUCvhGSAMO9tIgCp4KuTbg3tqTMCUaMj0A8J63Eck9yvdFavyIsFG8aSno3KqMW7HDLjgwL4qTwPVrYpQaJa+V/7cglLi5plXFq4pImLAV1ILzzgiwUJhAhzZi3W15Qf68gPYfyh6fwrPuAXKqcovAj5PZDYboXQXJfhEktcubhFec1kkMdc7nFU69EBAFQSvT/tMGUyhlmtZK6BoZlZdTKo5KqSFofDzPNjMWMDzFkLPQescpPVFkLn9hMGF4ZdaSJ3OudkVF2VUaHl1lZQIjkKe1A+/z4WzE5rzT5ETUSUXcwN8+gIWQv4xJzgHGWHyJFzoi24ENDSJZ12HN2U6Zh64w/Ydn5lyDYHhPBxBCM2kAau5iwQzovhopyJUfXCEYNI5OjE8zJzwFAVt4feJuVhvZQfpAtYUlQra2LqO2w8WqGmJVo12LjMf5l8cAeLChYT6pIJa2tC+cRajiCCFkcIKhP+a0AFaAfwEOwHx6NH4ZQeQ1CoTuJYGSi1FiAliqlQ8RVzznhaB9Mn6xEvIJDy7/NrUFCQJBAjoAiMMrinFlh6kuB5ZJWgR6UcXGv4vDsBVpyL0pfoKX8ZRFHddIhyinOEMCz/v1Hv/khguGpIATURRFyJkLIicBNueysHCQC8HMJSd8By1WElTGcSFERiEy9WB+lokYYTmLfiQ2JISZBub1IAnwOfHIvSud3TuSypvmBOi0Lm0pNJ0R7AsXyTm7BNOcYvJ55lsHrkyxW/grMlDXseFWqMWwAQUa1LZb1bpb9wOHQhmCS8ZedYKo7/mFOMFLk1OrAW7kXMPS83/hP9whGfRBEcefEH1hHc/qpTGn4FjxMOTEnt9RDBOgVIWb7kLWmn2WFmRn86fiOBkiq6MVwlcqA1tZ9nzck8tgbEn2AOAKQCADxLu7oJhlRj1iS4AWi+F3Ip3gOFiJBU29zjufQXYSwf8ePQkSQYVwBScV2gCnElLBfZsQCc5HUPabFMmcWJi7i0/gCPTERjX9NCV0SqCCO3iHbvGQK1a3jGzdOZIHSnN+El4okxAf9RAh6zOO4JFUYgaH0xNFid94/QzKwIzIOWHBlPCYqrIxPHyNmcfe0tokw+gI+8AvRhB5FXiqVPZRVfQLhaEB8ZaxwQac4FeZQQg0KMf2VxAKPUk8TMQxilZB0LsEzjAZaa4xtL6ImaypDKOnko9aaOuppab+fFFU4qq/GWADDhFBSd3khTUkoHHqT8ScBOYTFGE59229DMB8gnFyki4kBKUddluHoHsEIphS6c4KBSwhGiFMaZuepwb0gIQjgeq2sTUQEQK5fs/Vep3GU8ZazcBomCWmwU0wDU3Hci3kYqWN9N4U1dhkBlrm4pM65E4saTFnyjYDlg258LhjKrOIw9FakwVQ4mlPIxl/BvB3xiJfK2ZPGhpy58qmiqxxK10WaiFD56VRgOMIekKhBXgbFASlk/tbHUifVuZaa5FwXtcjVPsWjDqw7LTOuJEJH89qbhFcwlEg1QiVK6Q9oOndZA4Uwk1SmJIcNS6hKMjv3BtnoM8h0Eg4vsN+qCnrSJxeW2l8HGORVKb7SNRAlZYcIwmuRj1LgFDEIvvzoDDDzqlIX5SQTMcoX0jlC5UrmjiFNXkSz2M+VDXuRJElL8EBho2+U9IxaTap4bSttzjgNUlGbYkmtU5003UPzXtKJRzlfJh6d/q2/ZaXRDzhRqWRFGUl0WY5rimDU9Qv9A8zIACIWkoMIvv13i4HK5nFry+rFPiLqCwaVhwYBuNaDioBNvwx3iVmJRusECKzq14R4MlXqOSA9sAwYg/6sBkpESWoE9UlyMKuBZY+LUyFdfnDjTItHfaFTP0KICLte+LZoJlQVfZl/EOJTKlGiwoVDfngsv5MAirxMICU0om8jnA61XKqsZwmEGTuhKaL6S0z7Blc176Ok5YiUY46wgmdJxhHPj9ydGSlvpeuFJr7KTVgezAu95FSYrsWh2knCBPJzQakkdIpe8iPxEUP1Twhwaa8bIqBhpI3DDDqzuPj5r9BJB8FF5HwvRiFztdYRK+G1UWHQUrvG+bwnpKIbDqRByCwmc7MYnlaCYb2yVGM249cpwbjnat54LuxBYjUIZARwwR51VlFzkjbiGneKSBu+Mg7gfQdFlPqhjijTAVLp32XWPatiMMCCw3Q8ODFSiYFLNYCmFwhHxIWEeAVSe7uHF9yCtOKIwghvWH449Dr8hGd/KUIsHqWCSBUUojqx6PuAVYHzhgQ8b936sfAxDEKESyBm1Qaj4hNTc9bbU7OeWrAyxSAXvUHKFspFhb04mdQc4KAOdUgA2AmGBcGEQofcyM6D9STY8ZVLD+KofpIaXny999cgKYjtpnhiiAx0Ki5oG8qjhUpgar7DWAdjSgsTP9uYiNElUlcx68tsndLfUz+vpAleMipoEUffbRm1kNX4NU7mpn0tD6vWFxhzmIoZeLlFMEjX61rCCMnCIJNG99Uo+gscWdxVJtLgA4aLRb4NnNY6i3HBcO9WTNPFfiJqZN8j3nezolFomARTZ6oNmVjsvKQG0pSB3lusrJF/xgbCmgK0jhpImKDGWvjlTv+c/sp/Q1zF1CEECoeITOJBcRVbiK1rQLQQnqfjyKoQ5RQOEUIgVLPJ6Vk7evKo7Rhda1PziQ2tGWZ3A83wID5ql/oE7hWhsvG5iDBYobiD2wd5EEocShPuVQ80OuDJ6XSn0gvq4S/ce1D48cSJqM8hHBlFsg4E0UStmkdyoFJ18AuLmRiYqh+qCYIaO8EQkjIq35FDpQhE5vc6RIHXRYmtFiMMDlGk/pUMC7QTxE9joDpTfh/Q5FGFLcoWGiZ/Esz5G//u9amSuZ7rsh4OmYNIgFIjObfjVgSjDmXmC7sFHqeRdI3ruHOmOBodcezGSKVi7EGSCQTG34imJi1UCxGS9sPsZfwAC1AJC1DkDpyyGNGInLoSibEGpJWPudB38nEXNbT6GXA5FYx/1+gcqbzoHqy7RSmil5Q/b3AnpAVi0Qt/qx/UExATRJDmMT4xaQePHrCbh9bZieOnbc2N26xvdASCCVKxSZ0mp3FBQW0cGhyyWpUcHcFIQ8sSaY6vHwJe6Kd5gT2O4CkYgswusVApZf2TSR1roBbJ0/hMGMik36H1GBQmz2KmClsHx0ltt+dOscxfUf9Mu1PDIATjkpbE8hNYAcuM3eJiOchqQFMMS8YIH7hUn0hloCzAR0YHqdIpq1sKfoCXcFG16sw/ZXdmgDom5pKef+w6JRjnxA4dQYjTQZVf9AzSQ1AZothxSnglkIqAvJGIg56rrTXYNZZ4GqnGgiUTsRwBpQp0QAi5kOcqnhOauJTwXg6a6jCL82nA1ImDwccaDSyCcVOrCEkcUcQk0yvxfSwGxMTaF8yyGqso7uGYPvovJBIyidB0KMO8fjw5EhR19g4AK51AhRMTY3bw8GHb1ztqx5/4vtXets9Gtu9kzod2GqaajaYdOv0KdY1s84aN1t8Hp5YaqU4/XB5s5sS7QaPzIH+ksIIgZE6XNPB3gglxZTZ36x6DhS7FmW7h4Q3GayTZicd+LZrs5cVX3eQNgSFGpyZtaRVTlxxiOEh0w6M8lgcyaqvoM0gMVV8wEPOTVISViVmqCSEWX7GSLyiMfjmI6+0smBGGuopqwTdIo3Pfuz4JRpqwb8AqPVXs1TmOuAiwEudxKuEeqMfSJwQ7cZucvQdvZA8kHKKhQTRKr84vzUtDSTqRtnPKSUb5Wcx67jTZ0C8SokBE3pieH2nTeo7rGtQjTHlp8FLDBcpc+fkGphrXqCGFdEJUOMVxHfZxi8zVPZDGBwBFRIxlcCiJQECqh8rM4YFCFo26i5tWbGZq2o4cO2bbWCRk7NOP2PnbttuGu/ba2nVwaMqSYT071eqzZnPa1g1lVq8xCAgBlLSXCoieMUXC3VswfatvIZO3yeTdEhPBJItU8LEaBzJl8KLwk8NX/N6rTpDWwNZ9iasvsAgxRNrLBxO1u70gseUmE/zykC5eB6UVOusE8AesqJcScqsgraNmjX1QRTDwF1zJF+ugE4cikwz/Oax4diKTZELNvV4ljBpJzRPMsZImgpK4ssJ1D6AEIq0eI4DxLMlAE/KKGCKcwlSrBtfIO+inbxzwokH0Y28h6eHiagriXl6wPkdHHFRuNDgRMijAW6QSC12LS6PrcUVy6SpihnBd/aGRVVRvvlBEb/dC41IRvZiKw6lvvEYQirhs4LR5LLAnYf0CpVYG4eQpPD4/Z4dfmbPhv6zY1I09NnRX09asjRhz5xuItbnmN21m7JQNpl+Ch0MYomj910Dspgq05BCMvQyE5YQq87RmvQbMRbK5xIC4ReRIUKlNGutiIj1RZLaWZJVjpPoaoT7i9o74beIJ6XMVS3VTbbVElnTMSCqjPLtl2ECS6htvEwDjjE/thwcZjUkekuJFOZUmpxeeQA1F6Bup5hPM4r0ezcpCEu/0Sz93RFcjCsuFivrLEUydfxfVABfCEUwVP1iNIBJ1HKWWITG87fw7pSlOp1Ogh3D0jdIXJ/Tv0ZkZCJNJ2xMVwspU642keDpBDMqjMune85B6B4FJBZR6k2q6re6lAkFcTmDSRVSYBSIjCS+4EIFXeuRZrileNWVBoHymmnx39Pi8lf+EYafd77T0lqNW3XLehgfEKEo2tfZ/trnxg7Ym+YrVIjwVlBgUnAoOVeCh/hqI7qomfQjvm3FdHKlXQbwEXsQFQ0HA5lAwvVYcGNiCZKQCBfT9a1XA1WWeMINrzATI8A19P+ZCxdIMxHgwDYd2Vb6SWqKacHo2ggOhWlkoTABU2yohwV6xias2c4JB4r9Vzcriwm0GLn31flhTaeROVlzfjcQQUgIAqWIAJBwCpk49F2F68+rw4p3CdQjwS74rXivMWb4wUYfiFUf4NpAk7z2ewjhVaE9PcRcSy+95Di3JRcSTSx4hhWO9rsqP0+ORg675PTf+zsO49/yVHd/q87CRUMfmIcjjJ7FK/euDIB1DsXetteF7N9n6bf3YNsp2vvcDlpw9biO9x6xWm6e0UkLJlVmKmirhqqqYkMNYV0lerheMOfHBpQ6VW0ThR3G98KMURJZa6+0IHOVESZH5DvVVSC4HL5GR+h+qP+FOMEgMJ1TRAt/IRO7TIjw/UhOoiBnwwxNUgFJAJZOV7McMHfRades/ZELifeQphqiUL15OfftGDuoWivJGPv5bfUPNhHstCCaVawxqQ2n0DjyT94AEEIyAyfswIvy3SvlNFHmxob2lc8kZmh308aYIRuESKpI7TkKEbfDryFHcRn7v2yyuc9zS2/bamp95j228gxmKINrZaLe1zh620eEmOANSgXDqlKeJrHoiYse2rsBJtgYnGOdLalAQWgyIq1szvb8Z4CCVODh78pGkhYrpRKaPQXZZxi5xiIQKgokgmIoTzL05wShb/S3fsUIwywfLy0gpIMpiRGHI4rmAMKiL6oJ5v4nAFiPaRw9jvv0XX7WZYwct2bTZ+j/xHlv9/h1IlR47b3ts+tyPbfVwy3pR+2OQzpFEnWY4efcJRnhPvZwAZHDhlgJJlvgAtMs/iRLeiCak+nEfGAYRkSphsNipjgivf6wQjPdZXh9Ab+43QmNH5bwaBbHoUff5gaqUMGpecoSKbZY+8Kmj9E3+xZeZw37I2n2Dltxzu/U/cKtt2b7aZqO9NnnuBVs70sYjIHBUV8PkWiT1Z2naRR5X6So6yUuwkIOIxWkH0gm1V0AR6B/wTDn9pYgHbUOUpL7OJY4VgrluCabADHV2pcPnA3+Imsn5lp05gvXr//qS2cljrBxatsbNN1jtwXfZ5ndsxo63w+YgmA1Mia/1COG8N0SC4tRKdwkxFtlcravGfRzzg1HFb1UGSRB/I5MJUgeioKR+uiFGktDjqZ+Dio5wibSmwyWOFYK57gkGDHEkB2nwTmjiUjLRyOzE/nGr/JsvWnmMcRWiJBu3WvVD77LBB/ZYu7SepXYP2MY1Zav1hc6uEEke4ELKrh4aY3ElTFPBc+nmQwPqo6KUQcEapZfF0p0vZRFA2gQPcpUaInKh43eXLPoKwbzlCabAAaeKXBoUYflVplnhPX2RyammnTzTsh1sb3jwd/4phHEKDx8MJgOrrX73bVb+b+/CQxt3/3Nnbf3qKjNVQUxn5aSPl3MApwK6c2hNOA3uyrM4AvPdMuYqluoriYGaJQKRdUDmeA7fgg+XGg0fJaobEtLHMWXev8SxQjBvaYJZ2vpLeL+rUEveycQK3mtxwInxhp042rI9LAxy8Hf/V6bqjvkYYAmv7PKuHRb94r3Wt421hGc7tm5tn9UH4PDCzXy8J6hkS9K+yreaOSkkDivxoFfhZuMrW7I4SZJOYvHjGcufxlLKjBOVWME0qmpqM/Ne8IpglhQl1PQOmeSXwOh1yr1CMNcjwQgZLhAC9GFEMCDe1Ll5O3pg2ja1t9uZ3/s9PIOZ0cnhDqTrNln1l37KRm+JbaZVsdFVvdbTC8JKp0EdcgZ9aZzz9JbrJ4yhYOXjz33SGkfZf/IALjzjhDAmgwTRugiiafeylppWhWj6tzCjdis+Z8wIda90yn8Z1P4WJhj14tgVN5+iLPOixmEizbh0a45AqOMCzAlBb8nfor4Xqxz6PyqZOseTY/N25Nkx23B0wMb/5A+ZDo3jI4gkPh4PjlrvJz5oaz7Sb+PJGhsYruH6Dwpp3AO1R+5CUuu6C1Nch0TtDDxqed9k6gWcHyZZJIMpCazPoOWW3NNA6hl+bVmDBUlY7E9jKOWBXSyxtQdmMWgdJGTFy34x+FwYlrgvWT5wuY05/SP3wjQ0R0jk9JPgfGE6l/PUvXEY110rEMy/Y7T/cwxWimBuZ9WYGwAivkoA6LqhlctomZS5IG248fjZhp18cszWfXfMJh7/LyAScKODg3MQqgx9ljt22bpf3WMTtsMGV/dgVvZxcwhFc4dQ7VzMdI8J+TweoSqOnu3pH0ETh63MGtjlTe+lre9hZuwu1E1WfWEAM2mfsHjqG+DDV5gQiIdCD6vPDLICJlMu2qhk1csqNulAMAm+ZFkdlXQbq8awI5m8GAKpaEBYEnl5CKeLBCOdlPUIX0UwkQhGzn4FwSxTxS4DJ6/hKKgpLP4xM9+x86cTm3963Dp/8VXW5Trsqo525hLzTbXQ3fZB2/w799uUrbLVawdx7xeigBx4CgQXeRhRFzmR+iDSCNO5V1g78Yf08adZunWfVXf8U1e9XG7KwRUplOHYqSkFjWP/0rJTj6CiIYWGb4aw9oHhap7LoBioIcE1JplE7WMhv/o25vQzTd133PYWftMSDBYPgNQ68YdwlL/IJQwqWZ8IJvgfOXxWCMYZi6YazEx2bPIICP/kWTvz2X+vFcHckiRk05zLqEyfYFfVdv7ur9t5JMmqkX4mkDEvB2UukS8WII8Kt3lHnqv/w/xK7GSUa+4wq1Y9D8HgNLr6Abah+FWmArC6qRQJyiYXqI5UcQi7c/w/WXb0T3mBsWDVPpbeugFCguzlQX2p4y1NMPiMNSGYjgiGTqn3YSAYcQN4KqBZHrF5KRhf6+/D3J/Uxs817dyT5y3++os29YOHrcYELRlaJUFEMHEts8otdVv7C79hk6saNjRMp59d2sRzJH1QyEDC7tY2wXethHWrPfNja00+Z2Um7FWG38ECe/+EaQvF7gwimnDKK6Z16v+29NhfibotGr2J1bNuwmCBmu5+cJcq/xKV7FUSRpUXRr1JVTKaGoJxlYyF/EIfRitf3oj5tCCYSwHn+ngf5vlENnZ8zs5+/WWrfukxdik4yWxGyAQMcPd2QFHqZwLy7b1W3/0JS94zZKMbhqwOwcgnK4u0JBPY6K7C3YSbiJTR/AbL8U79iL4JHX6Wc63v/j+YRc2kOu99iYrDGE3EAo6No//csrNP+3SDaORm1lnYzoRKEczllPviBCOc8gUzPAmRzfIcXezD5ATD2srtE3+OugAHpNNfGrwJIS6C0dFldrg8MFz2VLQSylwjtrH9Uzbx5aet/q3vep+mRcelLPGh8QnUscpqZlju6bfm9E1W/rlbbM3e1dbfoynKUspQyRi47DbBuHQUwSbnLJl5zjoTR9DEK9az+afo1N+IWraROTraSRvjRGOaOXpPW+PEp5noNsfyWKyvwOKOmVa3ZP5MpLGYSx5vcYJpn/ojJ5iIRSqcYIZupnHhmS43Lwmd6yKCHPzHzmZ27vFT1v7qk1Z+6RlCmN2IQub0gqIR97FNyJbIav11m9w/YNVf+7Ctu2u9DQ4zUUzsR30FzXB0paR7YKP3QsYyPLBWAFImPQfRzE6yaiUT1yCWWAOUTLfWoCwOcKybfNDas2fZ35UJbYP7fEMln91JPy1iEY9LH29lggEInVP/wQlGi1REo7h2YEERwcgd3AXn8knPS8P6Wo2BOfjoSzM2/vWXrPzoDy0bP0kn3nsk6PkQAcMclfUQyzY6zadTm3qF+1/5Wdv4gU02sAZiUQSmcWvN6MvqOC8jHBI5TCYQB+WNU9aopvOfjLNPKduR+OA9RcbzB4JGwuhEzcxY0KPCwuJRzzY+Y10ESVCkpPo3lz4gmHPfRZIdgNj6rLadCWTD94FTQSXz75XWMhmTuqiSOcvzDTw7Jz7Laj6sJzbCmmDDt4bKLRBMQTGFenap51eDtIiv8CKNV8e5Gs8Xy3dpWFGei4XpncJDeWcm23bou8dt9itPWf1lBuToOKvfkiBl6iz5WWKSWO1GxmDWMcf/0UmbOZNY/Rd+0bZ+fIf1QUjey9EieL4QyIVp6+lqHnRT6avLlCuEpc1thvGWSZubf8V6UcM7rDwTUx8fVNX2F4y9JHUcSVlAg2F+JmTS/4FQNB+oxLz/cBTtuAijEM4zawBoHKYz+Qp9nwGr7/ifUPPfQzeKgjg8+ZY0l0vSdo1gNMzCGq9wy79hF7I/Y/+j42ar1rGf6z1wkh5fZE+dVZ8DAnfIDJ3WAR64lZZOkm7vYxCatSf/b9mMNCDheoqAyVpW4sSwJjmRu17CbzeOjhqIVmYmCwiOg6EIQHPq6QD7mgCU09cr4LlFZ9yXKhQeaNkjlZVlmRKApGY+c3bOpv74Ses8gjozz5YPpFli2zqZikulttW2lq33tjod68TGv8EoOSvHNH76ftv9qdttaMNAsArJOiD4iVs7fEg4J0i/87wpkzDzqhxKV5no4Oqey/m9hxGkdpR2Idh5MdRmXjAvc9ZGvawKrlPUXSP3WNncQwCYsf60jCDxLBLs/A/wGGCsami9Ddzw+4C9j7QFU2yvDADrr+gl51m/4UvXCMYX0qPwKX5FyclP43X7HQBBNUaYolxnxzEt2cOIl6oWYcl3k2Km1VvEZaTPckEnD10dISKAdWIRgMOhBtCfEOSq4UGR2auvcFQ/NLIu5FCBQVbfVcCRQb5dqCuUMWLrdJaCdE46OcfignDkVXKapJEn50t2/lsHrfklOvqHWU2SBQq1TR2OI4xbsObXcMd67yhbdYQ5MS+1bOI5rGGsLtn4yPts58++01ZvYylcCpKi/2idAZ8XT4jDhfCgmhBDkYChmNRyqSte/8v88dmV3nQqi4iGMvKsWTOUyNtPczUTHDW1uqWmbDubccdUFitB0rYbrJM29qRlM8cxsdestP4BKzPe04KY8JkmDdVbFX0TShi5cmspn4Q9V5Lxb1n7FANVk8dZrot553T24t5tDMSxpq7zWCF9gHxY3UWdSHFLOLdOFtUTcD0SQBHdqKMscOvOiUsJeBzF68JBQyo7V0NUII7gmiIOr6d8fghMwvsVTQJZvmh8usMU5KatGynZ9GzTThxoWfLnj5k9/xxbaLCYHh+3kKZ91LMJAfbuiyAYpMtYYrOPdWx2AmRiTbXmPW+z7b/0Xluzm3n+Dg2tGkleLomVP+UJQCOcvAuOIi7v5QtxuvOrDHXmDcQtglcF9BZUGfToi64jVeCmvIOxEF1ro5U0+tmats7U4ywTewyUYYn5tbezT+qvWNq7i2RgxEhXpeZ8Vom7iqaUr+zomoQRJBIQSRSfsWlOMvEN+jNftHjyDNoIy4cObaHTtg2howXqJKKpKv9SsUQ0chfX+mFy6hOA1Pah/aV+CeKkLCjr0NXbIm8QD7zKP97iyps6huLQ4GouFUYSRwxDMEAyIDWSSdSNdMhm26x/Vpqy4f6KnTo0YTPfPG7RQ49ZNDXmdRDBdKhbLw3e7mU0/8Msa7uqbLNPztvs06k1AEeFOZedt91o23/l/bZq7yYvgwhU1qpFWKj+QaIINsVOYzkQ9bKLB20KkLy9nLkERufSzpsMmAmGSMkoRSUHfgH9CcaVJtKmS+xKls5CLMAmHsJpc/0nkb73AivICwmjrf4EO8l9kFwVXpb6dY1gxOjcLEpreTVYl7czof7M51mdlAUe6iwa16tNfjYwfrAR97JRH2vQfpXCNK1P5WLbwRAEtwDszIMUwx9AUYDgL4emQDXLAqjLSWQhRzDBV0hxyqGsInSKpl2cWWXVTkzMWKWx3qo9G1C3ztKWp6wGch9+GKvYF1ExTp8EMVCpqFWixuaosbZX+YbU1n5syJqnmjb58CzjF1qzTCZ5Er11p+38tfts6MbNxAYG8otR/s5jQxoeTqqFOnT1+i8q8esfIhY/dOEUQhfEojrrT//MVIbPSF5iURUMtTvc/DHU+iMoGqzvDEMqrbqR86PsFcR6bVqzGSNAjELmuz1LGnnV+Skk6usX67LedI1gHHcFIPolAcs1wMY2zzuRRwAAF1lJREFU1ef+xlpncCycgWvguh5Vqrh478B6stcHuEq+CqQIQfXhB2TMWIvLt41Qp9ZPBeeAlmoEkH2p2Vw1uixIXGEkmjyvoiRhaPBQZrEJyo2/nOo9z/yWAwenbePqW21w0wbWeDzJYDh+V6em7difftOq33+a2Oy2Rn3EPfWtRqwr9YoNfqLHBvf12cy3sYw9OoebFmZ6eGibNaOjm7fb9v/ufuvZuwWPZmQyA5tVFsQoCeFyohOMBD+luxCWI+cVVv9v+bka0xuUX2kQOpxMVJr8FcuT+4s56gAUtDPDPP3feZaZYt2pmMFPbQhb3vgPUOlvE5TQRrSusxJg2BY8EI0EIxJ4goFgOY6uEUzeZuAMYlau/igSmDDAd7jozPetfe6LLFX/FNKGBcQFNvZCKfdvoLe7Bc0Clwr6LeIcJVwQtRolWEnbw72l6oho9BXIEAbtgLQTS2iK5QDUpdMgLxEKdXLrj/JHysnMWrjaz0007dRL+IZND6M+sIbWGnZVq9MXOXLezn/tBxY/8aL1qSObso2eD1qIIYD0qGKVfWVb93fYcRqHzOmvTFjjBVaVbAs7pLKh4t202/p/5t1m29ej8mY2gEoyvK1ufax66QciXm0gevEfEY0MEMvEeUMml/sr6ScJKmLRgCx9DhA6LK2E+iXpiqQo+d6iMNK5E6hfDHJifcy0UdbgBhw0H7De0fvoBo7CVLRDjbQOsQ9W2ETqJsIL0hdLCQs9qS905Uf3CIayShOV71DMxjoZrg+Wsedin1zVaXg24EnZ17Iz9tc2jZmw0mQ+BNImxb2jw1bkFXZbrtR2AASIgsbXxj5uthWwhKsggIS31uRynWyZdNa/HYjBRhiATJrKvqORdq3vDGLPnpmxswfGbOowSyExH7+yo2qrt5Zs8sx5O/n1/Vb91gsWn6PfQh0qqJ8tVBChVLUvsoF9JRv4yJANbOm1c9+dtKmHZ/DwJSu6KZofU4YwS3e83Wbfu9eSLWx5wTjOwPmm9e/Dv2xrP3DD6gh0KFiAk8NGUoZQEYxAFn5004VDjECZSuqK8+tKmIhIOwlouV02YJphQLJWgajaSFrex70j1rPmo3g/f9za7KgAV7WKVDVmc2pXhkhblrBTAHZ2mgG/RWbhlVmqqQzxsCwm55UfXSMYbx3K2zz/BUvOfBkxC2/Z8CBjMT/NKxALTqO9DzN2F0vnmHg09bTZxEHEMHu9aIFqFknQ7mIZDnxJfRWTkvo5h+HisqyxMLaIjkYP/kcCUOC+3HTlQPNxlCvL2VG4AD/A3oVKAEGfb9vpZ47ZsWeP4OvF5qY3rbUN21fBBRmof/xFm/3yk9Z36DT1bPENBAOh+Z6V1dj69pZtzccGrb6v15onWzb22JQ1Hm+wNCxIRDVJwlWy6u13W8o6ZfVdg5a9xEIZj5+0vndus4G7mCMz1M82mAXRiEoCSJzJBJFDgFNNeHGVf4vtSZy5IR21OVPaOsfJijgtVvjUrnKaWaoOH5PPSv076NhrP1SsqfXtEMZa6kDlGZuR10Dn1P9n6Zm/ZtyTHbc3/mo+PUAuQsXoC3VbJknaPYKhEbSAe/v0H/jaytoctbT+Lqtu/l9gMjRmYfYDgHGGU14bd5A55q+z9XQ6/ShWkZes3Yb7EK9EfN96gWvMblal2kaIaaMTT9jSDQBJNUKiuT+GI4N0I/UvhA3iZrryo4AFpFEYof5OwTnywwXDVnh6IeIWYYYkPD0FYzJXfuqsa9dfbQcxMTtlk+OxzT17ypIXTlB5iP7mVbbu7evZ14WFK/afwyr2pLWf2W81Bh/b6rzzbV5yq2+KbZjpx33vp45kMfPUjE29gAn5R+zodTYQlYwL2qqjc+ttuPm/12wdfZzvHLTSt49YtG3YWvfvtK03QDS9cFitwu9qI2Qp6QcHduLxylAhEZKkj+qmgT+vK5cALL3UQ0jjApgJAPmp9HXvUfP4grcjuJ6BkzwBmJGZdVhjjSnKIo4IdSuVaikjDx9X2RC2tOpeiryOXQg2YUndgkGITj2DwZkGprSVB4OaycQ3wSfG9ViMXTMua7v+R7xH3g+ykY+IxKsj7aMoC8lfwdE9ggGGUp3ap1hbmfkwWQPk6B+16qbfwJXhTt+0SKgo41YY4edGSI+oTWfxRZpmL3bcKyLs71njFOoI4SgtmiDl28BpD3m2Y2AlBcIYp9E+9Or3aHMkPbuuTFMAN4EuEI7uyOcCYIocFMyvI4XiFvFo6PDWG0LfLRCMUNr7UqyFDFHHnYodOz5u0y9gzXr6ZYvnZ63v5p1Wu22YrTZ7QXzq8dDzlj3zPHWbICUtMyRk0RgCpUV4Dr67biMfpP+2nlHtYw2be37eGsea1nwexELCSAqpmCmSuXXXzbYLs3KLef7nvnrAyn/zNGpLaq1P3Gtb3tFrI6MMfZZFNHwD8koQxm3KHwBOOl5r1UjVUqICgscPAaq5XuhJV53hmxBPb8BT0lFdPKaQmlVi6KQSRaoWmoLG45AgGTuYaWv2BBcpDUpKksgpM/N9SDf63P7SyP0+Nqc+jiz0ahntAOAdQ2CVpIfYkfsPzJgakDXJqw8n1F3MuBzkO6L5KD8FgU36Xyjhlf12j2BELTRW++T/g/PlF/BkFZdjqZ3hXVZa/Umz0XeA8HAVtROHA1xcSTf0nH03MZbqEbF0ZplnQYcw0mZBzVOEocO2cJdQZN8JCwkktwnmhmhv+khbPGg6rPY7qeTPclsRKPP8isZ3FPDMee2Hyg0pC6EgHJlEg6sL3xIvEB4R9aEeQMCmVtQ/0bHxZ05a5YlDEDxuGzcMWc/79lofsyLPn6U+Dz1nySN09MfHKDWknyNaolHqesv631G14Q8xv2VLnV2H29Y8PG9zpyHGsba1XmD0/yxgEe6gziYgYvSBd9iOv3+XJf0b7exf7bf2F/6Ltdh1reejHyffQVu7bZX19VJnyphhsfOdu3CALZfBRBGNiNXrGGrtksgrCKcWkal8ObBC51zoqz6RAChCB0aknfpGTSIM7fgGU2hjCtZYE2p1hkcCAUgvOl86YGZxjY1662uRDqsxbmxnc7fdri1oEDtjG0IBWYYc8Szf1s/Vd+rRPmPNc5+x5tlvWHkax06KEQ+wkdUOGPDwhxmLoXzuGaKvRW0XNGrI/w38do9gBFjapXXi9yEYBizZKFRL7iQ0WG2Ugae1H6M7cie1HoXr4ThIHWVUBZJUtmgUhQE852B0AvGGTWf2I44fY3bfk/T1zjnyecOLQNEBQ4OShPpAGA+iGu7l1TXki1csnWs330oN8c5vjhyuloggRBECtxwfhRLE45TEEQH5a0KETCEGTQoWz9Ppfvbb0zb8+A8tOnLUsr0bMAnfagM3jthZJEXl4IjNfubPLTv5CsMlsu5oNF++chU6seyWvLttqz41bL13DoBzHWs8N4fpvYlKivp1FuKBYFpjQIc6Kt+Izkz0iY/Z1k/daAkrs5z9wjPW/MJf4n3TtIGb3m7Nj++1rXdttYEhJK2Pa6lacG1BU+ZurrzgFOkKsQIcPBzYOwwhKO3cHOLxvb4hdiAA+lTM05dKVUaFzprqh2h/HMrlQCIP5QeMZeDUhkyVOnNfBphAyPz7qLotZKWxI95Loih1ZC5XAkRfQgG5+8f0c9l6Ph3/tk2d/Az3TeuR/Zl/EYztpA8z/ABwJA3hDeE+EK6mW4ajawSjOssxsX3s9615/K9QqeirIIY7cKKkmVrPwChE836mLX+I8G0gOMbAhM68T0wXgoK2gqLak6v2Z+/QGApSeIxvVtTBBNnczwIkqEDNM3hEn2FbS7a7bk4xVRYuLJYs/wqlASFoo6GMMviOW8w3lzrHRBNOiMlVOy2FL+IFkRRfqpb6M7mBAcsF5RBSiDb5oZKN83P28g8PW/zNo1Z/Zb91tuy1+P6bbc071hozPuzHjx2x8tcOWe3A0zbHNnsdoFKGcPVxBw7d0xvZ6H8ziCo24hbC2R/PWvvlBh17yg5ytw81rYFK1jpPPVRvvizBsds//3O27WNb6Q5U7OxnnzL72tfAMfqJGEemP/5e2/bRXTayhb4Q/ZgIIk1w4nRVFcYlvyxZy+RSQmqkS12dsHinvUFpI0kHmXVdvWIAMUN6aNOoTGoWG9Nm6qBCwL7LHqCQFHJVGQKO6GNmDEgbXsnlns2AlIX7MAfL6VZtIZOwahLUXbEm8ucEW7iyLyZBvs6yrGdTPzYb+xOsqU8jYVFde1i6CeNAxmS0uJ+9NHf9OgTzEYwttBMpgTje3J6Rnq/w6BrBIIhlB8Mc+kfWOflZ8Baz8eAedNfVdNy+D6bBOQByNrgWwvkglo6f9tF+iWKBUNJGo7axBiXZXddRhXcChCZXCSy+UanrzXwBJwKSfIypUruD4U7hfaFJxnrkUgGiSANpgyhKRo56npxDOYDXQ0QsqHlQlxsbIql5kk4QVMpKjSXtYcnmpyl9KS2JdO4H52z24YPWeOqbNrBxmzXvf7etf88mGxzJcH2ZtNkvvGzZ49+BuFvo7louQn0XmZKZ09KX2OAH6Ld8crVVR3F4OUq/5QDIythLEzyWe9Dcc/SJIJh0KpRXxFspMevy1z5lu+9bb3OYk09+5jGLH37E1RhJgPadb7P+T95pq29fY8N9uNakdYhzjgUpkDhwa+2UzE0ggg7qrfbAlIQQgcBkFvo3ok4BiVPIqgX5pKJKSvlen8ysTAdvxhS+l4FnVKvqJuAE0wE2MvOKZUo6awYmepeThbZK1ICjuI7aWizQhQEMqAUndIYg2+Hsy6ihX2Sg+xE0CaQt76owAy3LlMEUE7n39/TQ6f9tcOc+6iMJE8oqDHF84fdKj64RjMZg5FvVOc4iGMzpl+5dwa0h7mM+zMxBkPiINx6syjogZLlvp1WGWLdsYI8lPTuwpI0APLgWjeQdVnFBkMHJyTk0jSDAEOZjPAJ1DjCnAVmgmMREh4Ao50AGrgmntihnpDxlOaBUXLODzo2DqMYCnHuKvbUFcJKDeCRtvA9Da/gYC42vORzn+HTyJSTid/n8+eeJDaKy4dHaD66xwZ2j1phBHfseUuSrj2BmxruWMlcYiBWhi2DiamJ9d5Zs0z/AZWZr3VrnWjZ3kNH800hiBiJbIhgqPoWlrPESnHdWPJi8+K2v2oGEWWtbbxmwqRORnf78y1Z66kUKzJwZ4pQ37rHmg/ts9K6Gre0769KYHXGpu/oIXFU9yiBYijEFFUzgIw9UKY2Sa6/LVItYqN+hHZFllSjJyILvHxvDKiySUSFGemg8BImdYnjRMLVSgqQku7yJ1H46YZ/KgbxhlGQvYw+gDM0oiUVbJtMPMbTwMgwCw8/kMYKwqGENiwfW09+B4dZGXR1PxnErqvZabefvQDDvJhHSpOyqVRi4FLSu/OgawYDmiHm0YKwanZOfp+RoqiMsgDHArEtgk+L6AHYwx+M4y/HiXwXA4jqA13TWXvzL0HfL/e8ESFv4EjQDYb3fgMh14AB0IOyNQEspNwAmNSoAyfMnLPBl4QdIx+7JYW9KcVchDnNLOIP7jp5DJzWdGycRDbaiisgc2hJR8Q3END3dsPPnZ2z6AJO8nmaO/UE4JtKrfMfd1r71sK3fSz3ZXXn8BVSjr2MtOkSfy/2dpGKGRoxYsa66M7LhT43amntGGNlmTbIjc+w2Rh4zDEwCHxQ/J5yJ70Ewr4BozPnX1wkE2/u2eyy99xAj31jhD7Dz8tcnrXQAfzSQW8pelf1kZu7eYcPvnbP161knTKoph1sOGRiUcUT7XQrhM0lPCCBygpCBRNMupJYijZizA2VDRIRJfXXpgcTlnQ8kQxIRHXVx9owBQ6lYykPtoyNvCn8C8ZxpkkhOPMRSsWBYafOAdZjrH8390FpzY1ZuoSGwUa8TLiqd9eFrSD9UKp2EU2tcXsswiRoEs/0f0S+6h3YXY1Pe5CuOgHRejqOLBBMK3nYJg5WMSsRIkGx4Dzo8FVcjEpa1zyJtXsLJDlWBsRrtIy97eqk+io7KIm8sJWq1td6grguj0mU0ohMRzRMaRWpE0IMBG3DSKcVODZkTk5MO6eqVwmlA3YrAPA0nRH+F5MP8Gc+jS09ZSaPK8mtiJuE8Ovy5l16x80/tt9YTx6z6yrjVEXrZ2m0W/72fofN+wHqqZ61xeNqmvok0YwXLFHVCE+Gw4XkZM/oP1Y3sXPiRARt5AFWsn1H+ww2bZRPY5rRUIlAu1y2iCRb2+/YsfUBgpbEIlRcXooFf+lWL9zzNXBr6O7jMxI+eZo+/k3oJ10YlhXF09my1kY8i8RjIrLNrmU91gyi8T6PdkRkEjlDtXGJgrdTC4D63XkgnyarDYaT7/NkvOQAderzJGZeLCcFYiEoU0YJDmG/U5xR4JVUyfAs7HTzWYUTaBj6bP4iK9SKEgkFE43DUIcNgE0MMpR7G29A2mM8MYYoY1DPGRWj8B9aBYOJaj5uVIwwJ2vrcJxMqL2VWcE6+uJKjuwQD2FzCYFaW/lsZvsui4e1AE90XhE610y+IFKE6xbLT02nP5kOnXWqTqwqI2biXJUVrdCaZ+xCz9KjRoczoXJboSGZwPxQfVBHUCLWSCMUbVj80Gcgqsgo9qiBv/DUhiqhG1V3+kd9plp84PE2dOzMiDOGg52fO2PxD37H5r32LwcSnLJuGG/bCnd/3gNX+zv3Wv7kH6+dpm/zqN6z90KNWGQszB/F3gElgcIA9xsOJ9b+vZqt/mu0rNtfxcKC/8gomZFSyDh194aq4pax5ydGmjT88Z00sZIW/Wjw0YgO/+7/bwLbEDh3FzP4Y/mjffcJaxw9TXvp2sO0G0rq+erMNfPJBW/P3HrTB9TtAWPIi8Yr4FHm4iqSKczovVnXzw2EC0qkvEGATmJEQ3gP8ncqZB4honMh5r3TCR34jyY5DnKvCKWsrpwxeZnMHmPtzAs2CwWoMNC5PKVtJhFtZA4NEwtHmJUbyqRCnCo2yKQsfBo/k/OMQzX60kToE8z9YNPIhshV8A3F6GZbUhwze8NE1gimg5gTDprBqhDLLLEX0UbSLsncKgYU3ChV1wgHoEsUZfkVZg9mHjMEkrTlMhqpvsK1k8tXq1VTntyOx7kaN24Saoq9RD6QOyEsVXdoNCo4KQgdp04FY9BQaXdTlFObvQnczyCfxsSqcXhGFBxj1bBbb/8Efft96GO9oP/4wjU1Di5tu3m49v/5btuHdd9tca8wmv/+iNf/zX1j23BN0lHEOdM5HuiRUApn77izb2p9jeaRb+zFGpSx0iEXsZMMa9Ju8wckr1QQp8m09O2/j357X3CneQUzivFtuttI//h3bcfud9uKPnrTks39lQ088as2ZU5QXfyrKrP5ibw3v3g8/aMO//Au2bvceCB+4kKaD0oFAdB0ewDUnghCU193hwz1lF0I6DuqVc6aCMQlRKbtrDLAZ71NibaNz7z5eGDsy1itLxh9hIPoQ7YmK6HkGWCcwREnNMgRSHnqvsv+Jh5NxvovyW2tT2LwlfhLBSHxLt9VfYHMQg5zz6Cuof8GQOAREPwKp08HvKKEvUdKgnTeOvqEhAXbMIJiV4UZInpKsNb03IYm2omYEM6Yw0ccj1OLqGDriePN743iwkEMdfowQKbq7FDmt6iiLXGty3s689LTN/sXnbOax71l96pyToK3aaLX7PmTrfuEXrW/7Fjvw1PchFub7PPIoTPUMeeFyT0qyIciUW74xsjUPjtjqu+k89xM+1rKpA7NWgnCI4RxbuCzzuQY25/6GRe+eQ2LMax4MMfpGbfT999rof/8bGEhW2f5HH7P5z3zahl54Ak/fljUhijrWwhRpUgY2ya1vQ337+7b5vffJkwc+AsGxzoJz69AL9/oXPypFjsuuRgkkrtkIXv4if84Jzhk/+laKKTprQ7Ctw7TVUV9n2ZpHeMZnTI63qNoaI0tJzN1X8HOLq0N02mkv6adIEpm8+aAoyuteu00w/z8AAAD//4D5oU4AAEAASURBVO29d5Bl133n97v3pX6vX+cweXpywCAPQYAASSTmuJQoSl6ta3flrdrglaUql0PZW+X13/7DLrvKtUVyJdmkSKpIiRRArGiKmUQgQOQ0wOSZDtMzndOL915/vr/73mBACejZmq7WgOgz8/q9m84953d++fzO7wQJxdalpK9pjH3ZmmPfsYR/2f5bLOjab0GUsTjI0IqMhbotbFgSRmYBdyVZ7gw5mVgQcC6JLGnoUpNPnd8LllQvWFIZt2Z1kftjy2SpLwxM/0I+lvAJsxbku8w6d1im64hlSgcsKIxYkBmkMq7zSXhfrPspHPnHD5IM12oWWdNqy5EtvHTK5h75S6v/8CFrVuqWibm/2GnB+++17n/8T21w3w3WTCp2/BvftOCbX7Xs1BjH6TuyifqSsfxgYj2/32399/dZrpy1xgJ1j65YY6ZhcRPY8PasXs7tUSawZi2ymT+ftsZ4xmqNmLaElhvYYeXPf9aGP/cFq9QrtvzLp2zlr75l0evPm8WxNXhnIaBxVuDummV3H7DcZ3/HSh+637Zs2+J9DeMm13hJoHZdWfScRomipnNPEuk+qmaQElogSIV8W2PeGrUT1mi8btnxxxmLecahzuOMI/UntEXw5CRgpi+MjxW6LV/YZWHHLsBB3cDeAvU6n74QWAcZhwDHb100SvHM4xbPHbego2S5nf/WMgP3gk/psykWvPXz/7lXguuJYEQYIhsoKP04kEFWRzKdF2YyYCCwCCtgsHxgIgYnqjnxRPVxixpTltSrFkYMKgQk5PGRZ7CCLIOSK5rpIwLKb7JMYbOFpb0AfA/XtoA7nU5jehej7fRkDGDEYE6fuWCT/+m7FvzVn5tNj4F0WaoH6YZHLPO537Wez/+O9Xfk7bWXnrHom39tmSd+ZAEIxOjTBPUF1KPezjvzNvxfDlnphk6LK/TjUt2Wz6+ocxbRtyzfoZoOsfjnYt0u/fmsNecyFgkMIWi+Y5fl//k/sV0f+6RNjU1Y85Hv28r3HrbaxCmaDhLS3pi/CUwmEzStYxMM4qOfsuxvfdz2jhywiBfl1EnRihBWRV/qt/5c/s0P/aaeuDljcY1+V89ZUjtrxm+rCd5LgAgCqa2kRMLtsaoQjYH4GeAdhkXg2wWj6rEk32dhZoDxYAwgLLGAlL0J0fWgcICfq5R3N8GA0Bpm50YCFBB3YnGoc965EFKAQQhFCPr4SEJmkgI6juZAhBkLmsv8rlAHA9gEEZsQVNTkWBxPhBYzSBpMiDTbYWG+ByztZwD74HjdnBdRFUBMDWCJQe6wSwsdNvnspFUe+ZHlf/Vzy1JHA4LJ5ktmtx218hd+24be934Lllbsqb9+yIoPfxuOe9YyzSYIq14l1oCTFwdC6/t8r/Xf22/Zvow155GUF2tWnaGN4t7c61ILjtwEaepV2vr8is38oApCCru5p6PT7Pb3WP8f/IFtOXqLnX72Oat95S8s+eVjFq3Qf54L4jzvi4Ep/Qbhc12bLLrnXsv+/mfs8D4YBK23qAowQXR+J7EYD8ctuFER8KoAN9oX6/y8xdGsSxSrI80by8C2xvlU2jhTyEOkYcaJBE5E3RCKiCTbzTs6IZwywr6DPmrMrhhreiXKTYCP0ykdCMToVinvaoIR63VwOTcDUnwLIGI1zmxaBJOeAwlSlOfbWST3wpX9Ro5dqjDQqEZJxMD64DO4TjgiHl3jOK4xMCAO3BGdAsTgpRqsDAOaQxplctxTtEYuZydOJjb76LKVnp6wzMyk5cOcVbk9t2OvZe/dbQMf2G79m7fYxbGijX3jcQuf+qllajXLSKpAXCKGZiljw/f3WP+n+61jW8niBorezIrF01VrQljqeru/6kuzFtvi+apVf7xkK6dBREkeulcbGrbch++zA1/4uBWG++zVHzxjla9+y7InTqZIj5TOxjmrI1lyghtMJ8nC4W+/w8r/7FPW23fauorAMJIaS7/F0QUHJxoYTZMPUlvnxGDEaJzZCL5qgNSlMA9D6QBcfAQnzsd5pDNEkoFYQjEdiCTIdPi1ZhOpCFyl/TlzU1/UYVG3imCkn9wQ+E0a47cv72qCEZBS6aIB5sNAS7cVTAVI/QqQOmGkwUJFAvCOXDyX8fvhSHoU7hVE6SD40y1Ca4NedajCxEQ0CxAKdlB9GiycSaWRE1MqgVR/yP0zs1U7+yS6+uMr1jWJBcH7cujJ1XzWanccsp6jDdu0ZR7JENi549ss/8g4msooOEBb/MW0Tergoazt+692WeEQ3Bfp1pyrcN8SeAtyon5JDQNv6J//t+alhs08tWiLj1VQg0BMMYmO0Kr7t1jpY4ftyN3DEG23nfvumFW+96hlLtIHbomoqAO4VLH18vSfmqXAogLeaMP/5EG70PgLG+rLWQG+kEozmIRzG1orBBbQ9S3EFQPx38Ad6WA51Mh8GakxAN0Mc0uv9zFJlvitsdHzfFR8XFrfrmapTsGescY+5e26i9sgDu+4LqfvRE3wa2/3511NMIAKMPpI6WcKWCcYpwKucFJcqQEg4VpBNsc59Go4ZAAXFF2kA4B6luEAdcQRTD9VhbDQiwiRcWUwExkMl5FCF6WugbyoJYmrdRj7HI8+O2PL3z9n9vIFbJIVy/JMIsIbGbHJO4q27WYIprthKxcztvzcPu79hTWac7y/AB3IrEbN6ilY9+9129ZP77KkUIcA6hbNLKOSQQxNsBxEc4IRkkE8SSW26isrNv/DFVsaq6P8FSxCckRDqI939lr5jsQG+iObr2216kMz1nzxjIUrqFUgLSYzdUH0dFluk0hqLdWWtu+x3o+/1xaGf2rbtvXQDxAWSYGu1EJ2SQpU0YBzfl5qKecC1E7rpTJGQWJBDEdSi/e4mKBdyE+ID0bgwOaagOxILwKRZBEBQHw678SB5IIB+LgEvF/jwHmXeIxDGFDXKuVdTTCyUfBCACIA1yId+a2ExDojYIs7RQXQrw4xgOycad8uWvIDl1Nwdvd5BSCQEw6IgU7vBMUgJiHnuQM9xb/00z/OSfl5+ZtasLJPfOMZazzypAVTeKoY8BzIEoGQjfvut+CuIRs6OOCesIlfnbXS37xgwbkJPFQa9CzI2rAon1jx5j7b8S93WGEzdlI2ssYs9sAstla96QZySL2REzpNhngqk3Wb/+mCVX8ecUvNCtgGFRAqPrDH+j85aJtvwdkQ9dlM/Glb/PJXrf76S+AnfQP5m9yXcwuLOumjyC3GhssN9FnpvqPW+f5+G9yxBUEtDk/nAbCkiCMv73ZwCK8FBy6qPRqDBBUtZoxSFgDyc043a9hgCRxABFLZOOEOWDEWv4gtRbskSURoqi3Ac+cOngSCbNmg6ZhxzYlHBPX25TeXYARUoNsY/5JFuJWF3Zn+Wy3o3gc+iwcCbK67RNCPNxUN3xVFg6hBuLLoET/19z2rCzrf/uiYD4f6JUERNlGXZASLO8LtJJtw9MJQs3bufGgLX/qWBS+dsKAqfV98kX/Fbgv/6Ydt5K6dFnZiz8zkrfL4pM1+42uWaazQL+rw+iCWPWUb+Mcj1vXefiuAH/EKNssMUqGCjcO7QvoUS9rRokSqGb8WXl6xqe8vWP0E5zkRYVwXhndYcu8N1nP/VhveUbJkoWDnHpu1+ve+b8E87nX4i1yqsb8XApF8od4IBIxA1lwxZ6WDBy369H22/WDBikJuf5tgo9L+To9+/dAhpmZ6+bV7OZc0kUgZMSQkP+IyELOSWhrR6Qyw45+aJptK4k82YwCTiDOSUEJ/PKDCBfFJEd8q5TeeYOoQTCyCYRBFMNazH9VBHq4WwQDg9StwUkZPDuNsQwMt7gghaCDF4RjIYCWxY6hize/+wJLJSTg43BWKiXAIlO5+wAofHbHhfb22Umnawou4fX9ywuafeQJEpB8gBiRoud6c9X5g2IZ+B8IazFmmjsRZxJu3tISNLd0dNBUTSP/TjsDquJmnH1+whSeqck6lxjJYVL39Zut78GYbOjKMd87s0vFZm3noKcudPmUZ1EjxbRG7oOh/kQx0ECKkT/Qz5Du7bYfZb3/GdtwoghHStz9rAHkcDVLD0nkVoTOd09hyXjajjy6gDYF7IJUOkAcwKGkBcSBo6RnulxRCQq9WdPdv5jyM4Ma4XHcEIzRiYDJOMPA4BjtyFUJ8P7Dlc/N2/quPmb16nIlR1CdYeEZ6/9Bm6/y9L1jXnti6hwo2M7Fssz982eznz1ttcRkPmmwhIUFopUM9NvDJbdZzN/MOwCBZrlhzaRoXsWwl8VXhh/6CKsLdOt6455ds7vFla5yjDjxpWYAXbNtkC/cesa3vPWDDwxDpwpKNP30GYsbFzfyH2LLwXxxciAQaWg3CzYB8IiJn2yL2/iHL/NZnbfd7BnAMcLr94ee1F728zfSoWIOOKskfJCh2JgBIXee0UMBArZWM8+I6NUdiVoKKi6LWtbf42iCYdZYwGhjNXAcNGZ2Mn+YkGCipiLXFpk0/d9aWvv4DbI159zzJiM519lr+5vda7uNHrb+vbh24ii+8ctFmv/uY5Z5/1ZpM0mlCVZOm2WLBeu7bav2f2GqFrUixGjbA8oJFy8yGQwh6J5a3q1BSnbJgfBMDfxLbZfllnBkrMoIx4cVxP3y/Ze/aYcO7+91VfenMlNWePmHhE7+C6NOpP3FqVSl7KM8zFQg3D8JqktIncfmulVElP/Fx2//B3VbIXj1yvgXOvvm0pIJ0XC8Qh6QLal8giYt0TokAmEMUoiXZLCFMyvmFgOtkrmsihQ0Jc31JGMZPJcGvGjTzDB4DnAHRQeAGzH/2/LzNPvW6Nb//UwtrGOacl2qT27bbuj/yGcvvbVpPbxl1rGIXnjhhKz9+0vLnRvEtFMGNuuUQF53b+yGWXdZzzyaIA2mxAuGt4MKua5IQYoBA3OYVmhPyIrf04q8WberRilXHhUiR5XJMbvYMWP73fst23NBrhc7YJi5M2/hzZ6z31dMWjJ6zqis7IBqYp3/CzwzI2sAzJQeFuhqKg+ONq5cg6PvvtwMPHLECNg1YLSgIFNdcmnCAgPe2ZZp8dC5vcL6EtAP/ffo6zku0iGjcAeBSiZZzDBT8k8NZslrRmG2oZKtBaS2vgyzOm/GgJXDihIFNQOzFuRpSY9ySF09a8MqLuLJRZeDOioPKHNzPxOOnra9viViosr366jmrP/WalV4/bfH8nCOgiCNPiEz5rp3W98BOK+3qRQVDh185j8d6AQKFSEUsII1MYXFYbGKLZyMb/5tpWznB2RqolM9YdnDQMu+91zpu22mbh5m7YZJ1/DQS7ZlXrPu1YxA35IJqk+FeiSx59Rz/nYunnD1LuzV5GkP4DdoV33WX7f/IeyAYVE9XgcDUtSgJcHQKqbrx7y5uV7WQ2VmcFB5pIeKBsKTa6iNa1cQoMBPfkIxUNJ3IZrWyQTAC2noWRlfjpUm02FUHJAkn5i9VbPzZU5Z9/nlLxsd8ItRV6u6Sddx+yLbgZcpBYEt4uV7GlZx98jnrnpjA/QvWS7rQjfxQl3V97oj13rqZKBu8VDWM/CUkAvckSJMgB3ZANLKZMky0xouRXXp63uafxMO2CCrQnqi3z6oHbrDqnhG74bYt1ktEzNi5BZs7NmYdJ1+z5NxJqoDQIWY5ogQ+xaGJEGvS91S3EJBjn3diDquOxIpuvsVu+tyHkaYpvFOiuXbAJ+q/RAdtTyBSTWQmsl0UUaF2NAnvaRB3BoFbhsnPHGFHHjUA4dBSFz/cq7mYIKNpgLcvGwSzrgQDZUgdkVEqFzCkE6LzNzC65yerNvviKYse+7HlQYIYJBTnM7h9+Y5bbPv9tyJxMjYzPW8L2C/Rk7+0ZGwMW0KcE927GVnXjdus97M3W+fuHmykZcK0uK9yKUVopIC8Ya62i2KXmNM5XbUzv5i14BLNqiIJsH+iPfusdOddNri330rdIeGUoU28ftHmnnnB8idfxYGAgyEvtYr2g6dCRNGApBdoJ9QlTIV5GFQ7Wu/vrudCaxBRve9TD1qpS5ODgkNKOBxcY5ENKOaDpNGcS+0SE73nsd0mCYpVGA4MSRxJ9EKYTOhBsMOWlHYS/ErUgCakZW+JyNT4VcoGwaw3wTiyiLuhboFRGd6/tNiw+QugG5HJjZ99lysQC+ebjGCGmfLuO95vg7fswHNVtXOnidR9AU/Vq89bY3oaYmE+BwOiCUEMYyN0f4A4s2GMfYXeVIgoJnogA0KoiFY15yKRVp+o2dQvMfSPNVz9E+I3Nm+2/NE7bNvRQ9ZZxuuG/TR+bsnmXzttyYkXrHBpEsUFFY33aXmEvGFSJ9UXJuTdZHbpImLCRa73CRkjVLf6zoNWvO0m2z6y1YqoZY7BatQ1Fhn5zMAg9WAa9Slc4q+aLU/QmIbDJMR+CrHxFJ8W4HVMmGj1cJoyUeM9zMl1bKX1xLwBE6m1q5XfaIIRi6uNf9mi8e84B8mwHiYs3wBMYCWu74gHpsi0GqDW5Dqv81lovDeKWtYaGpnHc8R3LYzOWsfZM7by9C/xjoFkah9zLxkQrXTr3TawHyOceYNTL4ybPf2sxaMQTS2dB/FelPK26VPMqB8atrCLehsTvm4ngtO78a0OgBSaSW/ON23+pSVsEsJxFkESuH3Q1WPxnoPWeduNtvPAEPdWrFHJ2+jxcau89qJlJ05arlqxLLPnNbi2jO0CEi8goiDhE0L9CXaXo5woBeA7KaluIoqTkUM2s/OwHT64xbq75IBeHTnV5NWKh8PodU3Uz+Vj2HSvUTV97tnJVMx2y5Z2QRSE9hDkGVdgNpXjVp87BuEDo64R7jsMnHG/KxZQnotViuAXT7MeZva4WbFk+ZH/2jJ9DwBXYMGYpdgkZXBtyvqth/GW49Kc+I/WhGC0ViXTf5MFnbehXzPAuBbT3q1V11YHkIDtXBe9PkCvd8IFcWbmVmzh9DkrHX/JFk+PInZEMKx5KmFA7Nhv2cO32Oa9fe4NOvXESUt+9ajZDIMPb9UghehZ+Z0DNvCxo9axVXo6+ntjFPVk2tU+vUnEonmIRjWylVMVm3uSOZcJec3kjcMm2brXcoduZF53sw0MoabQ0IULiS0S/lI//bKFs9O8B14uhOGdVGc5QJjphfmUIP5lpI7UPNqdAb5uI+m13JvNE9+25wY7t+k2u/Fgj3V3SvdJUUtNu5ai+tX/uHLR4oVnLVkh+qDYZfk9/5Kg0Vsx/AdhTimjkhMsaZ6w5bP/m+VmUdsKvRb23+yL/AIaLpV1tZISzGNvEMwuFpD1PsBjvIS2yD0Ni3A7brW6rub6+hIMIrY2/h+tMcbCKrwimQEkTOlWN0g9LMVbvDqQrqZjV3UPr3LmK+RFuqgh8phNE26/cPKklU48a9WJWdy+IBOXO3qIyt15g2UP3GhDO7tYDRDamZ8+bc1nfmmZpUUcQqmEEtcv3Yh37AM3W3agACpqkhLCay6CsFQF42Qc8QqEtjSOrfT0gtVexZ2N5yzDhebAoDVY4NV7aD/vGeR5CInwodnzFwns/CmLzS5AHKABjVc8m5wVcjJADqiMWDkQQGOcwM55nuR9IQSviU8ZBRESJszlnWDO9t9mRw52WU9ZEv6qILbqTVoGkWF+KVk8bc2F55GswKXvRgjmv2d+ChuFGlAiHdZBJEJFVRv/v6x54QecQ63sO2JJ72F53N1eW+2FisiIpx+FYE6kEmaXJMx91CUPSCrBBWq9aS3KuhGMc3KkSG38T6wx+hAEg4QZvJmlvbfADOAmqCr0cs0G7uqAI5EtLVhzBSASnFFS4tL0is0dP2alU0+iUuBmlrMGiZjtZcJw9y1W2HuD9W7utMWFxCZ+8gMLX3/F172IIyKzLFvIW/fdN1nXLYT9dCIBGudwnI1zDZbKPYkWhIkBIh0Wji3jFSOCYBLHAtgUMyeUOXKHRTtGrHvboHX3dNrcLO2ZY6Ha6OOWH38dZGRRnEAFkcdSdzDqwzrSDdUvf4j1J/nAqq+yxmaG3vl7qJP74f30EuRhSUJuz012pnzUjhwuWld5jaiFuhtIsxx2Urx0EgnzEhKkAmN8v2X3/jf0rwSnB94aa9lbijHLLEHcX4doHqHzjEHPjRb23k49dctLbK5SFMgZzyJhWKLMDLLlkTBh/wd5R+phE59QLe84gpFnJETdqI3/GQSDhAFomUFUssJN7n4UqqZdWx1Iq8DwP+OyyEXsHilAFG4AVwog6otTqEivv2il00gOPGYNkC4DZ84Ps3x55+1mW0YMb6hNTca2/PhD1gnHz4ol+qjQz1KH9X/4Hivu2sLcCLp6/TiIM0X/JQ0gKupMkC4rE1Vbem7JaschJOLLpKtUeljteeRO69+/23r6u6xKzoDx8Xnb2Tdi87/4D9ZEFUuQLlIzpMpmIbocVFHHqC6NdLDOphP7mnYRWhNNp54mnzUH/rIvxB7CDmyxkRtttHS7HTpUxIahg2tUmiC91L+kcho3+YvYUSsQwJ1ImD9CZPSmk/0gsUhXBBw2p61y7n8nKO5XdJ+Vrz3gRNdBYEWbNDezSonVp9l0Tb+xCjUlmLvpJd4/qYbiBf6+VSq6ysvrKGEYYnSR6tifEvqBhIGTpwRzIwOPe1Edc6IRD1yvAnG62GYiD4QLmYuRDTKFSjZHIoniuScZfDQppIIIIrNpmyXbbrdgaAfu2JwtzHRY7bGvWDCJ9ACJXevh3kxflw1+/MMkuuihX6h09dcY+3kkggiUV1JnhEE+/QKq2GsVCxbSZzPM8axsutUGbz1gnczhINRs7tKyTY1P2I5g0eZeRcKIWCAS2VQiUEUG5Ooc9wbWfahs+e0dVp2t29Lzi6y1gQgFWN7rL6aBkmpBB4GQWw7bxfJtdgACK3eCnGvEp0TEgQItUUFri8/gIZtiqU235bb+Lg6eo2gUJN/QCkwkY1AnPKjyjC2d/TIhQLMkAxmyoAcVnRwLOQVitqTE22GDmEA8JxvmhGm1ZwHCDPvvBDRIGCSYY5NA4Pj1djVd3bV1I5g2MVTH/syzxqQEg/gt3ggCaBZaDeYPCLt+JX2X5g20ZkVLevV+2TBzp16w4thTcEAZzhAMnDO3eYfFW46a9W2zUjlvixdLFj31JUtmLsH10dvFvVnCmBkesOGPfAwEQZ+Pz3MN9YRI4rRrvJP/TZJazDy7iKGPZOMdFd6RDA9addPdtvfGYSt2Fwhfa9jsGAg3ddyy0yeY+GRNjCIOIBQcYmKccHBJv8CKB0D83WXLdmeQXBVbfJF4NZ4XpkhVdFIVu5Xdg4OjNrDPasO32669PRAMktVru3bIK3gV3QgbpMK80+ssOWCuCG9egmcsW9iEnYHRn+t1N3NcYUIYR0h1mUV5LAbs6DmIE+gQGkeHq5A0fvUG0aVoBoKZOYm7vMs69v23jM9tKNmMJXbfO1bCeM9Ra2oT/y8E8228ZKQnGjwMUt2cugDbgmWNOMHqkG7d4TSjST+5e0EcEGpmlrmOcy9b5+RzcEpWXIJ0GVSa7PA2izffjlG6zYpw6YUxkjk890W46JyrSd501J3stq226b6P4FZDJ2++wsCNo57jiVMfwQG5e2vHcSwcW2GJMl4xztVIshFvv8EKO26xLZs68GRl7OLFBZs/c9x6Z1+16twMOSUw6FG3UNsVokW9ID/EkkXa9dzUZx39zHFASCtji6SCIkRnWWH2KcH4+hi9n2fquNCrffusc/97WVbdbQVsmrUqitCWSzfiHfjLLbMA5188ZQ0YRhbbJsFB4fkSuC8mnk4L7HA/sqAT9bW0H7WNxXU86iqVL45YpWWIaxFMNIMKiJetuP9/tAQ7iIAixhKLyQdFrGxtEGsdJQwdBxmbk38OwfwlwCLJQt8B1FpEsCb70p6tAp21vgwQ9V7sKYWViCNpjmR2lnUoE69b19RL1lwhjAMOrQm/zOBmi4Zpb892K0EY8+dQLV76ImrFol93CVLKWW5kpw3f+SBcFXdy7Wm6jVoGgkgVQ+vDaCe32QuLVh2tUT+SCTevDUCMqHtbDu1knX1gc/M1mxkHCcaft/IcrlkhosJNJMckNWgutICKk7Pi3m7rwGuXU5YWJOHy2KwtvgyBsUbHs7DQMKlxkjMagzoIXe8/YFvfc491dmnpMYV+r0kR9aMIKZeavkPlimOWP44uwhVwbni+BDyCaovaG/Zj823DjGSuiaQZYgbeL6lUV0EwigqPZh61SG7p0qB1HPh3FpcPQDA4FLwyuix3P8drUdaZYGA6U3+JR+SbhLfPWtS1k5RDR/HkwBnVob8zZgL6lSfTQXjrjuv6leXKZ6883/7N6HCLh3DgWYrRc5QQYnZu3pYvklWFSbfGArPV3C4enIVgmgM3WdS5FYIp2OI4VPbKn7I2H9cpBOUEg3qT373HBm+/H28Vk3fVJ6kfpNGLmCBVjjEjscX086hMSBdJm6CErbP1qC2jw48cGABjcnb65AXsvWetv3rWcmSzUbCiogdY90w7eUa2C0RbHC5b6eYhiztoO2t6NHO+PD5lSy8TgqNl3EC27sQGbjr4RDBImP7Dtvd9dyGRmOPhHy8VLSmYmV94BCWqHJxtGKaE0IbcW37zvC9BdqyHyLU0gRdHCoOh3ZHixMjik4H4w8IAsXc4UwxC0stgnAmxZ2p1jJEmHvbm8dehN+py25SDLpp5Cq/cFOroNivs//fAYofIJb3XB6U9gl7hNf1ZP4JxxARtlp7B5/41oiZeYKYNXRUVJ8ztRmeFW2tg+Ygbao1IBl2YmS8xKgqz08LvgChYjaHgwR8NsorOSUqlg986ISR9m5Kue4ELetQiyMzTTaz8JdbZ1/B8dVROkEjmNPMrykoDA+wdsiYeHCvutM7SEHOVc9Z4+euWxxOkcBcNi3XmrWsn6s7RByE+JEPtGbqFG5gGupUDgdTP1mzlON4x3MsKegx7tlq86wFyFSS2fUuvzcxUrXHpmIWXXrJwaQ6URzLrL21gThMhQl3Eg+WHytYzshnpBBzFb2TcEINWHb3IPBIBaUJG1JIlRJvPpAuuEB09trnN77F9t96Ecc2suwOU50g9dmFRAQ1zthkizrCWOja5sCG7ELVJa/DXoKTRALSFGqWnBr7SUoOsPopQtX5GZMsZpL9rH2ojTML7yD0BsT8JOdSa039LUAE2JNEL2eH3WnHkf6HfqkKUnzJEbmTwqHcNyvoRjODh47Vk9elHcC1/zbLLEANJ8Jp9t6LGjoCY8BSMRpGKrw0PSX8kT4kymHgBEgKgHwNABwrfThh866eKf68OoJRgIDslglCgoKJm+b80v0y4xqyVo/O2OPo83JCGU2emu8/qpLZNCO8oF3vsEpKi48w3UbFYQwxyivkFnSwYI+ykePuD1KvZ/acZaIxexk7JIxJSzc4eY00MCS4S3Mv5ctkq5T02XbzZbrhpgHtICTt2xuoXXrbc0oTlUWGcXzD4CEGLeE8sYhkoWWnrELkHe2iPKucu1KGA8P3q6KQtQTCeCI/TEVHRMbaP8gbIDR0jwRa2fMC2HdxOfgEmY2FSirCuxJ02tTJAXrXX7aa9edbhkHdMnEItEDHy/rUo7WR9ngsNoGWUHUbEjAqm/ougFD0ekChEZCM3ulzQaosTAqpzgkpfqz5jwdw5HmsyQXzY8iN/hHQBj7hbjBNF21FB2otrMGvQ+HUjGHW5PZsf1ycsnnrYGie/410Iu5gQhGgUeKdcJ945JZULsHMETM4p5suf1/gxX+KSRQgqkFwxkEJaqT8M76pF96ooSYOQQu5tEeT8HESN7dKbYY7g/GNOME0GLegsQzB7Ucn2WjcEMzWNZ+fUVyAY2DIIq/rCkgjmBive+iHUrTMQzLPUCWMA4V16zjYhGJJWoI5lUJlyA0O20HuTzQSb7fZbQFaWFUQXn7f4EnmK0fklUYCEOmVFPg3BgQjj4vYBK25m5jyPs4Dw5EDqGrZJUiWD5vlxWz6FSiYChdjdOYZUEpPWMoAGtkN124ds5NAWnlH4poCGd63ZZZOLJbt4/oQdPVSyrCcy5O1CYggmEHzWoEiWqzEKVBVxKPeytAvPGgTh+OjBYVyKEE2h9+vdCZIyJuWVJpjR7W2ZnMoB45Rj/iW35ROW3fIvcLfTFzqMgsJvmFKLWK4GH66ma+tGMBr0HB13Vgvlx8uvWH30z8h68hJXEPmlfmKgRrhpG3o1cVoYEyIRH0uNOEAWd5GUJcaCegRYzrewXsCWeI9lWUvMC+C6/jaFJ9LnhUjUq0GRcb+0tGxLK8u4cC9ZOP1Yioy6TpRtBekitay3NGAz82UrnPgS3iiSATLo3uJCwXoJaizc8lHaeRqieZ5rED5oqdxjjUvkGHt93moY+zkhNAnFV4busCZ1D/Wh9MzjrZvSRNwE78V2YeSloorLKkLHcCpkh/osD7Hke4hTA9EVSS1hK7UjqixD5OetShS1SxPaLckmWDjBUEcdBFsevNd27EVCEcoiT8TyfNXmCQKtZbp4b9VGhop46nivVGCqll2VcikdrEFRX3wwgYHwwskW8a6X4StHceWnCBSXP/dpsVmogM0q6heTokkV26WOugrDyPTdQTTBZyzuvAkYUAUu/owIDM+nGIGjhvBmDcq6EYy88zKogYRL3zhaQj1h/fvMXxFz9BqcWNKEGKcOVheWtiJttjCO3S2iEDcSVxJKiv8ADOpRbqyUAAUJVazr6X1CJE7owtsUXQcppNfLE8bACMZ1jOyZxSWrzJy3gQix32A5MZw6JE3LAgRdK91gm3Atz6/0W/7U/42EYfYdgtFCMEUC92w7YB03f5J6z0I0MARsGB94qUt4sCqn5wnzJ4QEZK317rd403us3JO1OdIudddnLJhl0ZpC36Uq6b2SEhBMyPxJAWLJEnEQduMoQDULtU5ek1jiuhBMszJnldGzVjs37Ya13M6h4EJXHYRk32x2b7HF0m22ZSftzxZseblusxOjVkFSFvt22AAJNjrx3EklEueH/Ths0vCltwHn1V4Sd6LJNJq2a7yEzZI2qRSWTMWalIgQSqDtolE05ixTxT1fGQVvLlodN32BXNGZ3qMQzINM/RwBBOAFSKZJZmWiSSdR6bjeJXRYg7JuBCPgiM9JtdI/AUnhJs3qBC7Bv7ZoigVYCxe5g85qzQTSJihuAo7o2PLkkH0xASkizRA75QnV9Un/+VFL2qRXBB0flbcGkw+UuDeDg/rhxi3A1lNTZGS5NHrKdvecxJCeA8EZCJBtIdxsKx1EK+MGXqkjDU//nxCM3KZSFxh/iKC8aY913PQZXj/KaL/KwEvCYECzRHnp7KTVRpm34Uyhdxj75QjBiSPWT1bMU6fHbZCZ7wAuKjVEcyg0SmyBLqFmkD+guHUHudyG0EphLiIo2uUEI07K3EdjZQqixAYiaFQPxkhn6EpainvXMsRbJQM321Jmh20m30BUCWx+6oKtzOBkIJdyEdV4YBdZZSA+uRqUM07EqK0+FBi6NiXtl1Qs9QtO5LDXXFWqmsnmgHgaTPZmiAYgbKi5eIb1RKO0B+aFKtfs7GYO9HM4TO4BkKjyjKW0DEmmrJil7JwWkXizec1alPUjGMGasY0I8YiSZcYYo469WZSfKtFCo7mfWKIQhyW4Y5W18twv3TToYG1Ex2Y4DR+IR25HN2b1XFuiCBIiFjhUqooBKc04i6W+bUkJWOpUAKIr9asSk2uh1txixSZHz9lI/yVc4BCNODyD2yziWu56H5N9PVapbIUmvmghM9XaGUBdzGrGenC7FW/8bY4mGfTj1CnpyQBWiB1j2UCNCUnEhnWP3GONrn24fatktcwyUXmJScqfMvCoHkIk/adSecUy2EbFrVst3w9y4CgRN/alyLJdHDGYdEUSNRZZJs12F41LSDGeDyU5uUXVuVSWvTj0UZsjDW3vpm6rYjPlaueZI2FdCnpz0P1+69tDzBdSVu/PQSwurcVcfBb/bQF6VRcls8SWMvRZjLOJGiy2J4KUZElwPcfsuBDXpX6NkoCEeSyl1aUTARHjWWLTktK97FZyhBwLOCZgSCHEFeO0yaIiBNhocYP5JWy7toOBN61JWTeCifFCAXIypjxt9aXnwIKiFcrMAzDJ5CMp5Gc1ogL2Vqb/CqnDElzWdEglCXBvRkW2okAVyhe4X357EM6NUL6dVoQN4rh6j7AMnddH/O3AJCyiSCUTRjGXT50QDKeXlpkruUAYPa7h3txxObW9/ir7mdSJsA4yW+z06QXbnDxteZwYcn+KoEKs9Fw3oS03ETsVMtCN0z6gQoxkZYH1NadIPg7nhLB6Dv4uk6Bb8La9ZtOTC1bOTtlA5Zhoy4nPu6H+McOf7R+2juHtwKILONJWiTMRuFCPrmo2A1CRfvYc4TaE4shxwfkcxK+5Dmk+WURNtn8XOdU+azOXztscucz6INbs0kvYO0vYUcO2kLnRtu9HVYtxIyuPMhwb8cIQgZjSV9egxFK9BCvaK6midFMom048xOpDHCetsnIWQkkTHTpxoYJ2DH8MJ8kXrFEoen/lDnI1eJ55mEVsxXw324d8gO9tjCmVZ8AneqCoAU1krkVZN4JxFGCM65NfsXjiIR+EzOCnLLv1n6FeEB5C/0RQUgtiJE689Crc8uceVpGglwdw8FBEgm4ddwyh+pT5QET5QQCjuQS5nhlg3KOIAz5XQTCAUv8dO0HAhDqSEE7FKWVqjJt1AiwnrDN5AuZaBekIaUHnbxRZ3kvgYoO2Lh0nF1ntNG+DYHhMiSuCzj7rvOm/wEZhDkOh/UzUSV9rMlm7cuoUJg0GLYGCywMPwi134gCYsYsXLtnuAeqZPw1ywn2BlW+TgRMhO7DJsqh5sfawQRpqLVEKLPURtRZqcITmWmOK+i+cQupVSHYBstAZhwZ/5PVaLm6zheI9NkSqphdPnLeRbuym5lm3d2qlPbZQ2GU7tyDVK7JhQGYnEhEOgLqs8gpA11KAFKq1T+hGC8CZid06Uwg13PN8+5Ykug5F5br3Yq8phOoW1PTDwI1JWrVG3EQj1Ri3+tiX6PNTXCMb6J5/wQ5z7wM+SHThlBiLiqhzDcq6EYyMcakR9Ykve6rYQHm5+pgH2I0NQKqigC3xBABQxZ0DCQnvkpikEjFGcO0CHPMF/wioTWwJbVAkAhJgLNNJyDou1hIcmE2RIuwdpZ91mIoaXDVrAc4pRIPP6/wGfkg6UV8qlTSQgix6O7bN4sIsdsETVs4vuBSRFKrn9thi7gHrKIxb9fwpK668RJtxd/Icb8X/i61x6LM0qxOBN0a3IByQPMLWqZw5CQdlvoG4p2DwvRDMiC3Mr9iFUyfs4BYCLKvo7CIY1JQMUijsw7AdPgCycD91eHYXMCFtctpuqW8eU4Z3qzFFdALSI8Be0q4gpDlmMhb+BG7lOlDB8vvtUjRsJXYPWBk/Z5uLo0hR1LLuTeQ+u9OmyKSxbQCHQgOEY1WaEplnkZ6+PWIiKSBQibk4kBya3hg/1J8rObnaJ1jqIb5otNJBGeOZVE9bXTuXwYiUPEdzKQrP9sw9eEyzPUSF9xITFuL61pYaMEfZba7MgUc5aROU5uQ3mAh/GK/rFDYv0dp7/5ClzvfTRmCEVL+MA+84gkFVkvuyBjfwJcp1QiQIL8lvxXDrvh936VZgDVfTPwALOYh/8Az8BLUhqY4ibV4C9/CokVAiweWbNGbRVSE0uIgyw2sPS20Bp42D0jgl6iPsJsh2csy3SyENqJSaVhEbSrHPB1XI6heFhGBZhUjbqYunrL9wzDpyBAui4jSz22wx8ymMeOyRqUt4tp5GGiyD0FqoxUDRr449SI+eXbSNGCpNXCKtmkyy1UZPoCLBudlrM68l2jg2FIozM/qi7R48B6KCNGIbNCOLDZcZ3GfBwF7aznwJk5jCR9/3E5HsiSaEGIIV7w3xJDWmX2GfTKJ/QUBNL0kVExo3QZhGdpOtBPttieUAWdrVa+PWof1xqCMo77VG53uImm7a5h5gRfSDJEyTMRMj0CpJdz9wr45UIBv/TmHJbz/UOIvZMb6y3VCztZlVyA5mCRJZ645QHRhDsujI7qO+HMGX6IowPZwZwCMs7sFmI2YPBuiJPWSMaZjoT1MJAfmXYQlzvPwYAuarMNIzEBvvZRK4oCXK3R/ifqCI10xF+KQ+rkVZNwnj+0Ay2g0IpsGaftgLA0/Xu7rQOz/IHpGfA3lGnCOoa5FsCdkULT1da0kCDQQbkCZwqKg2xu9RCGmcjzgWey+yz6I8XpqZT7RGHyJSrBTQ59MBwFHb2DErhIA81IM5hyTk4/CE+/mYQ6A8n3Io1Ch8+vOE+2erj1tnBwGNVBGzpV+cv98uXCBR+Mqi9QcvwqWnfNBE8DGqT2Hr7Vbofw/vAyGFLPUV7DI2Tr2Afi7u2HMzW+jtw5Atk6UGRF953gYLGLhMZrqRj3TJy21KkKSVUZFQEVO9laR9ILHmKLTYLUVbjsGmpHre6jO46hdY74/dgr3uTEfSSgGeTVyvtWCX1Spn2UfmuHV1oCrSFmVxqQV7rJ5F1ewpWQ/xaol2M5B4kg3FOOk9PjjO4/WT9wuD9QYnBm3nByEQoaxd3RgM4EG/lYeMj+aU0i34qEeGOtMHUqGkYgUQSlDA+6fxJwgzDAjCZHI6hjnJE+j78IgRiWhYhJiBEKM5GMPU1626+DruZnZAoBkhKXBzu/4NGvqHGW8tNhcmifWKAb/DCEaTU2pygyXK0cR3QCAIBs4h2zxg1jyz6eNImvcxeMRGgZCJZvlB+IR4Mhm2cmyKw8lS0LEQxrknHhJtThotvwDjYoa8cg7uKW4mlyjARsyL+2gpr3NEjPIMXqZQ0gj7J8oxcLI7qJcfvFeIyEesnGMHONenJ1/FM3aaj8I3QM78bjs/tR+cWLHh0lkr1s/QDt6r1uGZkm1SHPowCEAVyhDG7maxBvnSGbxinOq8E117BOcbM/UspCqELHOusKYDRBcBZ9lKI9eLKta9y4k/8MlaqUQYwrQL853f4uYyxCEmZuIjTQbPv44Uxsso6gfg8HOfIA1L7Nbc9z5Um16rzf2CyHuYDRJUczvZri221NhJptoBG9oEEjuy86BivCReeIfvCwqXTpCkkh467RESkhJsHKWI5AhmJkboGoLUZcVvOZeXPQHzEqFIE0CaBT13k0HmBuAzTH+o18eU2zUOkopyBojhwST1Mmie80zkIkWjxVdYT/RNq86f5R1IKHnZYGwhrubc7n/FCs+PuEBpuirOLQDinUcwQEEIXx9VmqVvM6AgtAx2jOwm2z40AHC2vI01HR8kKvgu1BqWA2vuQsuG8am3+UM6gdkCKjAU1/FrGlcGWqH0+Kfx2V+E444ykXcapD7LbybytIEpRCTi8fkcMFM8UvMXsoUCBlRb0gXs0ShJhIPfuaEI9wKLsToKY9bVCTKiLzVQ8aKO37dTLx+zLf1L1tU8xoQaXjGecgOzWLTSpo9CGFs4x+BXx9id+0W44jlHiHpI4GP/PlQMvFss0+3KoapNnfGFYdoHstCzw5frasGVQthDEQyeMMHL17g4Gkh9A45qp+Yqlp5ir9Yz0Cf3i+q44vBB4mVxzUMxSMwptKRJzxXtE6KSHoMftMVoG7CatE2sqXEmg3SJpE6xJj9EUkhaxHzklAk4pzB9MSKF2qgESmoO8jKowJMPHitPzNex3aVHkt/Juc0wqz4YCuNK27QLAiukgA/ET0H/oN0wI4hLbEBqqbvGdT5Ge8BzFk39jK1AfsjW68vYPkjhMq59gl/j5WkYL0uU9/5rCAZGRccV/iZg68sZog6vsayfSsbANhHzycSfWDz5bYBPaAgTaCFxWdHU3zLYhPs7a2WtHEiW3/w5ZnARrYhnKIDvVMT6LYRrwHaBhTgT3EUUI1HlqgNfiH8wi3NchQvLQPX5Gc2xVM/hgXsOSQS3XzyOXUSCPT0PV1MRYxQ3cretHwvwAVG8ICT01tfPXi/bQFAlnijeas/98gR3D9rWbmyCwrT3SwTTYLTLm+7EaIf4IUJt092ce47Bft06eHahthcJdACDnH3CanjiMkgXPHJ5Fo7FGLe53htQV49guEPAIGmorfDUSNr3hsEtgpDMJSSeBOfNxSdYX8Okp7itYAbSCFlWgIuniNLaESSA0FOBnxkFZWLojF1iTolQ5f7yvA10MUaohUJ+sTgB1w3n9CdEwsMOV35SuYftF/qt2MXq2TJGeq/6262b/Nl0HHifU64kuQ+WhtN/uZRsEQzU6W3WWMorLM01SzKMpE7s3SRTDVM/ZFIXbxrXpLB3sP4/LO1zj2qEZE1wN3fsw+jvuY8mihVSh1R59cMh4aeu6c+6EYzS+2jjVtkwzYmHIR+60E9of2m3ZTX/giolLiwvWAM7JKf5BiYJQ1bhhV13IcYP41nSQABoHzwfTtXi5wQTqSFOQj44OqHj9sBxm1Q0GZ0ywgniS2K5MHEeiHvKndnAI9fU3Al2EhvFusGKJDS42RKeromJOiEsHbZ9H+tOpHowQCderdrcVMa2bM7apgHO1WVjEBMGupX6DyItP4b6NgCinkPv/hUS5mUWiOXIG0A0hxZvQfiaje/ultpGmlj1ABU113cU9/Qe8BNO7P3CQ4SqGSIJxTqENVIdFTsn1IgXX4PpoJLW0kBQBwogEINR/GIWCaAwmpiPeIu8jMor0AS5awsraF8sf0aAyf5z9z1brnv8mKIssqS69e3YaS+ZXwKkRFiU3aGJZGxA7DAGCR6CVxDbS1Dnxst/vU+0QyUN1af9ri7B9NRGCNzHinf7RCNjEzcukF/6GJtOvWbRwtNI75aNyOrQoKMPyb0XaYX6mCkD1ydJDnKC9TVkjdnzx2zFeTe4JrbQwg1HDrXp2su6EYwrZCBGY+yLEMxDrpPmIJikew/8BYNcnhO8XjLom6hSWHOIf1iMYpoglKS0gyjdW1gkdAdu2730XKxOo6AwCoChn+i7UjMYNQD/awTFZZVUVaHe9IHLz/ke9SAkU8sQEt98YhmvshFqqHC5Jbs4XSfxHpKkxCrIDAQA4k1NlG2RrfpyrIPp7py1ThEh7VGmzGIZgh/4GIO7B6RgbokJtsbUU0wSsp8M24znMa5xX9GDvPUOSWKSzI+mZcp40HpwGJAMQsinXZwxuoAZ6274l4YXeW+cg0qViWYf9YgEeeOcSnhEXfQYOdkzKuo2RRJZC9LqiNModwMHg1YoDOJ23gRU0fiBYcY3gtXNqFchXkbWw0hyyhiXAyXMMhUgh4q3hwoliXwcWi/hSuutOpu+VN8qomKpqRA71h5wBrFFxdIAWIMUzf8cInmKW4jBY7I3buA0YCohZA1SGjLVR78hUlRoxdtF04RVzZ4GREQtk87J+rCP5CRxG1TtAIrq9BqUdSMYoXcGAmgwD9O88BCcjuhbuVVRO9x+cHGMcYnakDSm8T6dZy4BY5JM7zG6kJbnZgvMD3TuwiW7L+UuWYI0FTKjpAq4pF23F+AZBhmR+qZyHzn9SreA02DpXJv7cHhFkXB6owBqpJI8dQqhr2AnLM2cxej8sZVzP4NrLxO42EOyiv0Mf5/1EBEwEJ5wYtUa+oxc2X3k5AL59bZ4/mmE2I+oL2szVdbgd0nyQAB493p7Zvg95+vti103MYdzI/2Ck6qdqBexYunYBcbjx6hNhCREEBKHEHlt+m9ArgnqFqQp9EN4KVxUEj/Nf2giUNEIylss6FRwv9ftPuvEGVDqYYKQNEgOtRZsBC9Bq63epPDj3dSXwkmWSEogKbGorXo5RQjK7xRZW8d8pfXxA2YUR9gdfEsljZmAtMoFQizOEMhxGsbJilSFuuDBM0kupHSmiF2HVFE/1DmXsEA+noFgSBLiecn2/RtyLtwLwUBM3KZIbrXNmSqvvdaybgTjYIUoIk8V+zCMm0U/TEwFIIeA6yguDgbCC+WjplSkJXTWaRBKcy6oSW5sUgeeFxGPE4vizHBLEsbrQXiZjp0QT386YNSTxpYJTLRARKl3uDNB15x0WoOve9Jyecw5FNLBh92O0fnaMmvxF04xIL+ijT9jQBrEvr3PlqqHrZQdteHCL1DvLiAVcC6AeDGesDypSzN41eLlF9HDv+NetqUsiDpwpzWZE6kvPktYzC+wq5FCePE6et4HchzixXB1QUMEwzxMYhVXa90rJoiJQwupa3je5n6KSxp1DI7rcWjqCo2XcHKCobM6D0rTNnwEfE9VN1mh+/PWN3yndZTh2vRTBBBogtLr50uFjgtWXqhPpX0oSe+nnMgkWbmXm9Pb+BbW6qMKUGsjotRjpgQM13ZSn2SMcUdXYUJoFrFyU0PMoZwGOeIItbitUwyxByJhvH07dPoBU5DdJne3lnxEs08QUfMaeFCy3L5/hUr2AExEDIZ/3hb3vaUNv8a/60YwDmHg1iAZeZNNYSVKtWgs1C7KTEkrqNKjheXCzMqkk71BDBAxZ5I6iCWAeoY5BOK2WFglTqstEYQg4jgJnCgo7ySc6L34CVAztI0CXDkFMggAsKVO+LyMk6Qglw6rw7BlhQoR1DbnjI5eqCi0SXFU8vLJPpG1GxN+f/Hi11BlHiXWbMQuLTLplwzZcPklkok9jKtT7lBuxRbI9bwf3L/f6iCJzX6dt7KdeO4fWXnwQ9gRHM3/xDoDJATuZTHmsP9+vFpIXtQhD/GHwOXmZqUOjVN7ZF9Qudy+7Bhbnfv/WIw25tLFmweSaO5CTziDkEpGveqbiiRxld2Oz47fbPtu+QMrE3HhCM01bvO/LjH8N3/8wfRK+9SbvnVdBEGRfeXjhfqodTWITT6yGxUmNMFWIuO4tFG3cAlr0ZuryN5pYErYkRX6mDbbhta3BS2NUKBVikjzN3YHMo3G2xMMKAmyQg1wQ5BWv/HiyEpJR41zDICkjfIUJ4RWRMz6x0giwmudO7XhG3RirCr8JLcVUT2CrboFT7EGge8Q50Fr7USTb7ZtpWmSa0IYiXAVqR5UiyQMFYqjUx6aIpWH8PJaaMuLY7Yw+zXrLZ9jY6WdVq2/zzrZOKmQ/AVrMk66l1UrO8LyPgzv+1jJGVnZvoP9s2QzyYNW3vwxOC7b+y08aj0Zlm3j4cqSvins/gi0fiONEcrjNpYBC/F40Kk4ubinG/94z+qvYxg/gu4vewtCkWtX71QzdQwF+TJjP80fjrnTlgiPuTj9Gdt90wdJFcuCPUB9ZRHh6ZEWMLwuMN9vEePQBWdqIhBsKElvBdhmlZGfPWESqVm1Ub5H+Z7gG1e/IqDlhubxSEsixQhwOuSUq0xR6VJBmUyOA2xa+p4VQ1ilvKsJRrDxyUY4jgAB9XBCHItvxYYx3yAVKwlRz/QPgtL9midI0P+TGrP+2oNFs+oaF+rxKqSXCNFwozYxtOVEyBXQh/HAaRItk9nNwO3iXdzDf4/KdVuI11JPuylqBhXxTzFPeGtAslee/x73PGZ9PXm8ewdsemEI9+xJ21n4W6ht2QMjo1KJBU93ETN2lCZ8C1vnnE1X3mP9276AROm3+vLjzMOA9HBgqSNh+TO05zDvpd2EgkhXd2PbFSkaCDYLoRO7yBLdn8GxX4WRwEyIRtbEIBeACeqn4AMBKXxecxpeeK4OAS40P2gDO/453i5CUjhHrRSHaus2/U7PpedTivIx4LT6LpUqrh5D1XwO/vUyzhrag7fNF+QBOG8+dafMD1qgHzl53Qh/CbSBklZ3ono5AQm4SE/IxN/qL2gxsfTE3//33U0wQNj5lsZGg65RZGT8n7ilDoGuLxCCq6XLkUESqSkMkNzDHppBWiN5uTxK2CNhUQfkPZIXBvXKl+wyeI5cGJZanBYSwInuBKLqIw+MvEBdjHKZ6GgkE65T3S/XqZ93L1KW4MyKXZp5mTacYGITj0+wm8nuvBUWvm0D5WPUhVpCqxdrIzZVSCFCAAAh2klEQVRbu996Oo9B9o8zT0NS857fJ66MXGes++/OPwImvw7CsTCshzAhea8Ej1DyQNIOQpC0gajVB/UtaUAo1Z/zwdbT/pZaL2RwaNS0JJpN1R3BUjSWYj98A8JOSLox/wkbOXwnz4DAMB1JTyriG1gR4oKfmlOyG7E5FE0BHEPi92LiwmK53PFq4pbjQ/tEnLiGtbdmgvtaW/CFOGG0u1hA/XqHb8+HZA/k3UI99rhBh6HU3HRcJOXlMxS8aED6xa+3K+9qgklnsAGUOGOLvzmwWhzV4cifwN2QqAdic2JjrqYIK7gbZBJiKZRDBOKuYYxlV0RAikTLjVHhEoxPXHEcaz6GwEi9Ewr1TPhID1GrRwZL0qBbx3i2dE0evYR4lwxIoJiukPmJFQI05wmnz3QOQ3P77ex55pFYojDY+xwu6LNs7a35+KJVg8Ps+bMNg/f7pJ89BKf9HEsEdluFJdpx7Tus6YfAsI+y3RBM5mb6RhuYuHOE5/1CIjEM7f+YNM/A4UlZVTsHT5brfQf3U3cywwTxK+DwrDORrGAllsOXlvAuL5dtfpot0InhGiTZuQWSCkL+Rgo7OUYEQ73DbQ+OgaVCVdweESKLwFQkmhTuIiYCo5GTQvMwbicSKeE7i7nUlg3JPbjPnXBliIsmNGDp/xTWairnnUHCAIGubnrb8q4mGPgTwMEZcBmYHKNOSWeW7BECqaSuQq61JNJlqOtx3ZdiWGtwOBbTktGOKzvQ5IlipeCgCZ4456Zw1kjckgkzIYevXReSiJPzkcfL08672qDhRJpRDfOrIB7IAEEvwZwrGKlJ5wGbr++0uYkXrb/rAqlYm+Quxh2sSVSQKiwy91Qh9WuziEq/CeLtRkph0zDxePDwLN43etD9SQjxKI0W0oHIMuLFFHhvSjBC3jPgNBN72G7Zwhau7aUv4vhPgfuvIh2qeswhJwYkWFWqZNScyVoFW2oI/C5yThJDaZYc5P6XXxLtrY9LNMFTsMdTp/gwSWTNxXgEeEsSB5LQkhyatxGTUYW8X+q02pyOHSc5ljqZvlAWHkVzJn4PhEpwpSCsY9+mXNffprzrCUZGd6jBcSVdEL8SWhAPxwFAFUBFSH4bz4isHPggls8b+D0MQGtwYFggh56AA8JpVa+MVJ8plzTR/I/ilVqua1dRPDaN+QIklYzolONWqJN8y9hWoiOWjHBeCNy0FWbOa+EAwYxH7PypH7KGpomLuN+6B5i7LMkW4T2FXTxATB0GfmWazC4kxmCi3UYrGbvlDtyiUGHQ+yHCVlCXDKx2rOflFBnZ6lvqDMHxIdULJA0JIPX1Q81HkVRPww+kjtEwOI+eFAgarN1fmicJOTueFUhW2KMZc+xCv4pTQ6E+qTHPOQhC9Wqpr8eFyaWNKudSok0sckKIgHx8FK+VuqTJtOZEQsUU2Z16hwatRRzIDd3t4T2cY6QZCOpyO1PjxX3ye/sVH1Hd8ZblXU0w6WwswIUKhODOnYCZLzmW9Q6onVuiK6ML8GEwJNsdrjoH99IBz7uWBlKDzelZ2TlaZivuJzQSgegdDLACOtPsizqv++TDB6H0PmylGs/kUMO0JkSqilMp9kxA3qOIrItas6+EDbpX9S7O47kji2We35fGl1jjP0zqZNIjsQYlDfAcshUWkzWml6zAQjnyBtrZatFuOUrwoFTF3g+g6dxDfcP0TdyZdnn/eb+rZlxS49V/RQTTzObKz/nzIwhnmm+5wYEDlxS8WMN1PT9FOEusTP0ZKyo1UaYXxwhJzwlxkTRJpanqpKjbKi7BBV4qEVjVFH+vAMdN+tKHi5pYVludUFtkmkoa1Q2pAwuHO3UqwNKdNy3VzLNdajzF/dRX2WqCtRMbX29T3j0EA3vO9L95HgZwATQAJtsELiOOp3kPAUXI6wgs9UTI7ED3oUxHzQeJ0RNH5hMzh6OrHt3MgPluVyCRgjGVAUUxS/LapO5XEJ1aU9ctA6x/DJzeLJslYCY9xv0by2MFd5anKMY4xwom0Z7exeyDpBbt1dYVEe1XetmcIhTAkymWJDeJou7tHIN5j3tqoyr1rixj2K8Mkd5oyRYIKty14yzXp1jdwAZEuXt5zw7aDyLJvQrBpO5bCFXcl/4Lg2NlVYmOQzAPswvaRScWIbpwLYLrQOo2MTkA4ey2XnIPd5NMw5kF81tBVs8CJwFeMG+VVNK0j9Jv4bKbQ4DE58D4Fnh40P8LzXUoKKgI7pKIuqwFb0yUcU53AEN/ljv1TvVNjEZPKl0w7RXRqK9tVz8n37L8RhOMgK55mIjtLiRCRDCBJi7hmhraFPZvDNxbQskvUNmbio/eFWd+/foVl3xoddy+p/1s+1jXrjyn37p25Tnd0y4gszqnAjYoAbdWZgpftDNBkzXCc3OLLEQbtZ6uSSsNXUSCEEGXwda5tBlDvMu6+1lvP/e09feNWr5zN27XTxNHR+Jzqs3gpZLBHPuiOk3mqh0iGjxWlV+B/z+COiY4h/bv3JyrkkxR3i7MHuQ3S6ZZX9NZKkPgRA24nQYzEXZ7u9v94vhai+uuVCKCpo2uJfBO2Vpy83MBwlHbUzgFmo9xmIlgaJPa4yjAH0nJVcpvPMHUx7/ka/o1USKCYZtghIn08hbBXMHpVoHVdXYZJFDR4ONR0vyHbBxxzhB7oE7I/OIc+c1YaBUiabr72B8HKVRd2M6c637LF5s2PXHctmxlIRnRwJnip5jMuxukgeNimLtqJqnLLH+QyMs3BiG+BAd6GikltVAIBq653QJRNLrYAWzY5laIcevtY3KyjBoGY+I+fZyg1LzLTMAPrvmP1uTH7kRQOIqjM21nbOVo4YwvFpNNhHRU5HhO4kZahYoIiY8kHKTzxvn06t/7d4Ng3rEE0+aG4pyoj9LpKQrdT+0mLCAM+iohNTNzF62zXLHO3ilCRYp4yXbAgeH+LHzbvPkk5hlRyR0PEJnwIRg18z8+PyJVBa8eaYiMKIK4warDxllUQBa0KYEEeBcQh9Zk/dDcfBd2VK8ND+3EnGF3MiZOcxj24vZa5+MBmGqfiIdzaxXJ6x1uSVpX65AorkbL+JEaLIoWHejdai+2qNRejwlz9UzXOW7hgGhptbJBMO9UgmkPrhBCyCD1o6WC6NgLxxHIMz3DgihyK2cLoxjdVVuudNvsVD8Ry4Ht3gnSJ0/hJcO+6/goKj2BpNhQWuoQs/2fRcdQwV7DyXABhNfkrF4DV+ZTw85aXiHRxRK7eaGGbdpSRKpwTYSiRrTa5U3ToY7VMP+TNvFa//oKTNoiO0vzaqrbJZqcFpK4V7w8fb9OYg+mjeO6LB9sGr7lHFitbBDMO5VgLo+sMAS+2ZYyYq78dgMY7JHDIsbwnbmItGGtR6GLCRzyMc/M9LC+v2n7RrYyZ/OfyCE2DNHchhZDPBzr+FkhhUQZRfUaw05m3ZBUHBBTRnKFuDbyJNn8UrdVlvutszhswwPEy8n2kUanCSMQVelfHYHxoomAXC0TAnsBodegeOyaiEVOGJcaqIcQQIiXUWmiRBdOqfwQkcvAD7QeCu+IOzNojubZpL65Y3CVNm0QzDuWYNqIxwgLEdrqjhuuIECrXzEOgJAtxxuoUcr2qAybddzYhe5BO3Nu3LrLGRssP2ulEhOKmgiUG9lVsgWCO1mrT31Z2QlEeDcazJ4TizYz18AG2onzIGQLviySimgBn9dg01o9S8mgrnm7IBRf4UhzJQWdy1/RdL/5Gv5EtE2u5zTEE+rAOxZrToy9Z2R7BYpeFuGIcokQ0PLvUAvUlKbK1Tna5ERMTJ27ot++MRsE804lGA2y8EO0ISK5bCPITpBRq6HlPAQQaC29YsNAnKWlFZucZmtxth4vkIxw+0iN3c+OY+NMWbkXtQ2pILdsRpOIJLRLEtIyMW9zYXzZJifYGwXb5MgNbCZbqjmiKvJaHsiIfGMZUg0FLCn2trhKp3bosCVpOCeG794rmrYWJU2KAdFIPMA4EmUTJJ92UlEo0llUSdY3sThML/ZUS6z0DDr2AhOYjBKPKLLDl20AJ6V5WqVsEMw7lmCkbzPYHlIjdYdD/RFGOnbot7g7J0QEwlmF6XCugXq1RBKKpcUchjp70JAIvUGOgQbLnZtMlIasqVEuZqk7GcVrkZopz3GxQ7ZC3TrAM8dPGddwdHnmFG8W5JkHYr7I7SlvR6tNIm73loFucn+rSNSsQYnJmEljmYcSLFhevHyOmdPznvWTxrgHTWQqIaw9XJT4JFdikRgbuoYdu3mU1bNSYYmp0xTUamWDYN6hBNPW3Z1IkBxCP5c0QkTHRacg/x1lCPqUKoI7XR8RmraqY6rCk4c3mMuA7kAaAiA1ZyLponO4YTOmPXNEc2TdwS0NqfAsZ7AFnEidaIS0IKxP/lGP7Cn+6VxavEH81D1CubUsqk31M0FMYpP6HInOmZRtYDcV2Hsm6L4Rmt6KE4Mo6AWWBWilJG3W7m5h12HiN3fTOfpLTxFJqzbsN5dgNDQMXGP8T5m4/GthA2lQWdPffQikaCMO8HnHEozQD2RxqSKjVaWFPI6f+s1HiEyaKA20/3MEB/HlQ9V9IH9C1nzN4qduVZ2UOKJOqXa+2lLnWnaADGzp/lx3etAlfy/voa50dt1Pts7zW4dqjv9pX9PxGhT67w4OMvBE8y9bY+6s73KWGXgPK2zvJpnJDTAAFov5pCtJB6cJFr30E7rGXFOZxX3dR3Cps17GJaUiAFYpND+aeYx8CSfJttNphZ3/ltS69/CQIiIUgtN63vu7Sl1XcXndlii7GGYGvDn2/5Bb+SEGjdnwQTYTAkAR+omHoftAtpHtKlq/cct1CAGRCwygykrLefK/LZNet2e35Xb9D0zYboaYSo7EonFPQsgWg7Wz/yu5F1/BW8i1HnKbkeQEtwV9W13CiPg9Y878KSJrytax8w8hmLt4FlX0nU0wUh6aSJg/gWgeppciGEmYw/SZRVOiE1ct2izhOsSFjSatCgGP3GZmP6mcgWBeZIIVbx+ZNTt2/rE7OzwgTVIVFVJSUbvKVUf/DzbB/RnojVQFH4xob90iQXs1JZp9DGnGZG6eEKCdf8R+l0gy/OkSKtJqRJoek3c1la1yz/pJGDqvEPDGBZKRjz7MDDWG8eAtSJgDdKcdH8VNl2XoKi3fuHx9QgDRIclhyyTgmyEaAVd4dud9Vtj2h2iWSA20CaWtUtSrUlFxwqrjXzSb+B72HDIBjSNEyviaagXSrVqYDJ5/lKyiqGQsd+7Y8cdsBPAB6tdcEEXLBfyXnCHXXtaXYOAo9Yn/AMF8V+uEsGGYze6CYHxSSxNYIphr79RGDf9wEKhn2NGMZdK2eAoJ8wxRCcy9lPdYfuTfYWMMEuuWIq4jM83MVlg+MfrvCel+lgMYZ88Rz/qj62FudZWMmHeSvJPEcO44zoQSBIOEYRcyX+1JHY5oTjC48degrBvBeJvhKNWJL0IwD2GzEHw5gITpPAjBID5loG4QzBoM6T9sFaTPRtvCrcxcS7z4AhuKncAPQnwDidcz/fewKPMInHKzM8a4fh6jnzSvk4+gNeEBZKvDkHzJVtiO5481OywtX61ojkoE0/TcyiVUsj+EYN4PoZBWS9oY704dH+h4a1DWj2BorPTJ2oSM/m9jszDT3UfCbfZW11pzJ5gN6bIGQ/oPXIVsEwwQOXm02W/C1hQROci0zCFih7AsuRBIRMWx5opIE7VCmA+L7xLyIWR6Dno+MmYy0dwIjWFidfWCok+a3ObcCWyYkpV2/xHZRu+ESJickiFEcbRaI9xaR4KRW5nlQxf+gtzK38SGIRlfD96Q8h1wnLQ37pZdHUIbd1zPENAEEsSiHY3lCQvZQj2afdZVM4KAsFPwoTGT7yqZEmZASNoaIy7jABLRaEYTQtE6GU92slpfmQyNZh8n1A4nA1sSlvb+d+TrZp0VyyKUgcbNJNXxziMYcR4icS8+hKfs66w9nzHrJul2N/qmu0PEDfRpa7fq5UZ5p0FAuxf7aksFMWjGX+E3jHXCLgkxiUcCZmeV8kopbuNculSaLQ6wX1iOzT42vvoSTUTRCVfDQLWZUzTzJJOgF5jHGWS7i//Zok7mekSs1KZVOWtZ1lHCYOVjDkYzP0HCfJW0VudIitLP7O+9JIYgHSzXnAlIDKn4ckCJZCSTrjir4JfYlpf2d+tQhMYpf7x9e/vSxvf6QUAxP4qjI3BSMXSe1lYeHt+Gj+hpecg0x4KXrJHRMXkFFE6knWuZ9NTCO0eE1ADhXt1/hWrmeMA5oQlzedEy++oQTUAeXmwkFuLt+p/YmnArT8kdwNPCF5/R5WANyroRjMK9vQu1U2xb9w2rjf3M8qx/D/twI+J3j7NMWim8Q8DDNx+QBE67U5H/CBsH8c7aeSVGyBJj5CSkgWlzD4CoNfgiKq3eVbSrNmd12K4BkDaqWGsIiLlpoCCFFocTWbhEYdz8lBCdIfat4Im4lkNI2lrSyigTIsliEphHU2wixdYoWXZCyG3+LHbx71mT4FYtongj+ll1r01ZN4IB8wEEEIBZaAew+uRX2NfjeRgNMVVsjprpPWKNDrJOwnmUsyVho5QIbqRQ+JAwCQURyu0RwJVkEF4GgAALgXl4iE+IARxJYd8w9QrOtDbw2qhlDSCghOUilJAwHzkA0sGsgxqoa6IiBtDtDzxnfk1RzCQggTJAAeLMMn1uE9VmvmMBW/VZCSk1/CBr7f41QZw4DIRk/qCmKvRPzHVtyjoSjCglVcsS5Rxmw5x46ltwiNeRLACol82HOvejx5KUDmnjCfQkuhVDBeBc6uB+1u7KchN6nBSgEeF4UgVJGxHPZZ1MAAL4G+X6gwCMU+MpJurbdfATVuij6SPGMGYY41BMT9s8Kqqb40iTnVo3s3ye1drEoVUWUOe53nPUMsOfh+ne7OShXR0CIsLlqXOCEQ0KUdagrCPBwCGkTinljvCa3L8JGU8aF79NgN5p6AL1jCjVsMhWB+wZkyjMmxKi03qounQtCMhX6Um/lUgnpj31sYtOBBFVrGu6rOONcl1CQJqAxkfqlcJj9E+MrjVm6fqclhXCgrOQJILCgUZjjNi04xYqF5w2HAVfssP3odY/CN7sI3ysi5o0/ARySnJRRIjoKWKna1LWjWB82wbtA0OPpDLFyoCihNfLLyNlfkTw3UtsKETGRoz9UJsksR11VOgEJqSNVBpSuiwiCJEyWqTk+cbgOCKclFjaIAFErbkAgW6jXI8QaI2LfzF+zgw1WpyQKBAzFOaD9HF9FEarRIm4p6vjBHUiVcCFpHMTjPU2Jr8/RV6End5JRb3L1k1VutS9LbxBVq0ZJqwbwYiPaF/FlAVAPnAW7adI8kjijgijWHiGRUaPWbJ0kgTyeE8Ud8QaiYAdeoPCVsIe2ISULfAUxar1E6I8/yegA+T0S4CGa7kOKwLS2Y2yVhBwbXeVyq5e9dHAp2OoPS4DGGGaY0BOH/YXJRtOUJ3EVrmIW5qtTAix0XAGMNCQAM2g5w4I5nYmK1l4Rk0hTFQT44kW5+mYzxvZM/UgJ9agrCvBpB1A1AIgobUM86zCYjDuvbPsNRLNfZ80W4+Rc3gZAoNLSB8tsEVCF1ykuBVIoLYRj5Qk7DBG8gRlplTkq5J2eyZh6vKcwQ4ggW6jrBUE1oxgkCgyzJVDWZqGtj4XDoQy8rU9CQk/YvK31WZPWl6MU9iuLTO6DrHJ7ifYMPcuvKhSzzW+wiTixPTT1TsxU/8JEeqHJI0IZm0M//UjGGlP6ot3ktB+dQJJIUJpoJ8mAEaJwgP9rowjaR635NKPCeBjXYV2HcNVGBCcF2qvw042ASI3cKAURFkC/SAa+FIKM5YKhIRFkHQIQMnJsFHWCgJrRTDa6ybNRaZMMdrnZg4CYWKTqACohLlLxg5mCRskQ2g3NsoBSwiozJRvJZMOE5zYwe4QZWm3724g1U34xKa57nVTHgGJGBUnJBGOrl97WTeCcVXJKYZGqxMUpmFkx3tXM5p/EQG5Dkv3yTCClYcn5GWrs0NwPPMiIroVjCcVjLoSEkBoz/ZMxza+d7j6pnpjxSg5R2lDTWc3yrVCYK0IRjaKZuibqN/NJVZksmOcdi1L8QINRKtWSZjesf0f4T19wBqo5EqqgV7B4Eqa8A2D1TICpRiWQi7tgk3tuQZCKdNOBtzhTPv6WmHC+hGMQ+MKKqfPTjetUzSE8UwPJIVcZPu8jTY9wjtSPWuN6hiG3wXLLh5jnQXRsA2l5mE6VATkG/tg88CRghxuaS0ZwFkQIIECskdysrX+gp8+6ZkuMEpFul7N+zVQahceOxF4KtLVlja406FJEa/VcO8Ef5xAdU4V6CR1+C363frIhmtndqB+Ly5x9QxH/js9/ea/rXe9+WT6TPucbhFDoqiqdkmrfNOZVrtad/gl/lx5S/vhv/dbfbjCBdx+sGWfhq5i6UE1SJ5RdkkmU0woLUGeLalc7GDW3lbE8zwTGeC7lRU1tbCPuZS9aNvbYYQjMNR+CEhRIDh6gKtGQI31MdGUQ2tsdD3tBNcdzrpHRfe3//rPa/qzjgRzFe1sD1rL1RiD2J4NRX32reTmWaiJAcimsCFrxmOt6ls5hQpHVhLCyZWeJwT4chi0s0EmbEuRaPMfFheF+R60N9zVGYiKzJBC3tQtLeDyj/crrau8MGnBiASx3c3pRHBlH2hUOhYtZNMxn/Z9b0J+Kk7/Q7TpQ+lfefuuqLP1rM8r+f388ZKiyRV38rNVA7ekyKKr7craz3FKALzi8PI9f+dc69l2u1uHl+FC3fqniA3BJH2bzrRgxTnfMkP7jCpKGTVLY6Y5NNmh7gnzKA725NHz5EnLKlNM+SAuYQgkN4Tazea0qNkh3yGMLt0Gw1/1ln88I85bXl37C9cfwWgg5XKGQ/sW322i8b5zEUeB5mLkQBDhaLfeaIV4ouVjJLM/CfHgVakrRxeDwu2OF2Cl8g4HpCtS8jhtMZd+I5G0pyXeN31iF/qaJON+EEczASIARwqvSH/4ODL5ifR36+ebh8d5IqfaSKxv3Yhd5RywfV5PvYF4Ukn1pP757ekf3US54p0gqlqm9qmotjcIp/2sTuoe3dEu6XvbdK2zbabh9+pml1R6iBq9qrQCvdGLJ+NAYuDuZYMcpIUMdZKl+ea8GOzalEopcKRmtVzGvngyl2MzXiR+aTseUDbjLe5GorB1YWG7awSqXe9Tk70/VzYyffPf+btBMIIayKp9XFLuJkcASCRAClz6g2NAub3g/T6Enk1R7scKs79LL7Ir8RlUANQ1pVP1TUs1uPotZGUQVYcC/SCgJN+LA4E4tpycByS9Q3XTDd4M3qEZ40gZ80Wkkj5CJo2oOKuf0+/08+bxVR06r6vpP8dcAgbT+/kS4XjRt+rjy5FVDEMtoDgGtX63z7Ufa9Wf3vjmv+0nQp9Rf/M1b8ebTkn3lzcplagAip98dM5tS2Cmc2q72iP4S+Jry0OpV6jGMXuHyg6JcmgFSPgM4fWK6Aq0UxmezViZN9k9OV/C01VmvUrxgIORuWwvEoTt4j/pY+tS+/R18X19ShinDsS4BtCNOoCt0kKeNsf3sRP+SxoglZyqOBk1MAC1h2XETmAk7U5qYzhQJlGplXVRoeaodTHeGWwVMcBIKVj5nZUN425qeVkYcNlF7OPCSKfnteuY0rdq5lmEhZ3E3hS8X/e0VLnLBOXYz3m+RViO3EKBVl902YuzBeoTebVO4vy4/Fv3XL5XiKvSwq42ZnF8mcDeuBnoyXmi+Cwhu25OJbeQP1WrUsLUFuWBMxNJBewMdlRzaYHEcJVKIU0Qj7bx8G0LlavZx4JWSnIrySBwiGAoCXaI8kJnsT2CPOmUCkxCY4soa2cKO3WGfriUFdNLu5eyKB21+tZiSJy4rsr1RzAOnhYCXEYUnRQgGXhHjRTxZPi1wZvy8zfM85R7i+SELAys7BW/mboxQuv1SyxuusDeKietsfK8VVZOoO2xoxi3KxmDE6PYniJfa3y3X6SmUHygaV+aFpb7IS6sVLgrE3C4v5l+5hjJhaqXEDzoBKb5gtamqfLi+ZYYfLdRJn2HOn3ly/jdhoOkoxfBB+RUHX6ORiveDuLwuS6XBC0ErxKc6BKhpUKhLsn4TvfrFOFQf4u9+1v547TVelP7y3lJqx16N7s+YXuQR4xNcBVtHpT3MTG/CdtSzIUma2c2WimGJBVavRRPE5MKQjbhlYTXprf65y+GUBU7xjHA41mmB9ovv46+ry+CcUQR9AS0dHQccdsASyErEPuZNvowDOkTPNq+5hkjdRtOAN0nUhOaaxD0CTR5Js7JrDJiBwRa5DdSJyLvryQQG6smdeYHNOMcY8RKPwfRtDtxAhdO1T2QFINW+9N7nWmzqDz9kerX/L7iIrR4RXnTAbfpGOJrSykOdcbxqYXFDg/+eOydvHnCZJX0Qvru1ik/14JZeo/f2KowfcQPIHLfPlxSFQma2njYduwIELBLcrpbMuoqGz0FOc1/EXXBfFjEGhdu4HcGFQwpq3ZLjeP9npzCOy7Y4IyRfUhHtJluOhqSynq7CEbLMfwxP6dMLyK3QBL8OivXFcFc9r4I8CqOKenP9qHGXx4XV8EUS+Y3Sb6IMIQpKclc1olBXlXT/qS4xHPOmaXcaaC5Qbq6/PhulENIvke9CILfZEKJnbj4DfcO+Sg2Tr9lF6XcGiKD2GQIxw3SoKLbBxjD2j0scKKU3p9yfcccESxt0P6YOk4N7xbSqD2/1nfOpEX955df5j5JKfcIqhMutZgAduR1ng7XVzQEBCFpJxe7I3wfBALyQwxab6LtAGVvOMIDe4WpcKM/59lXJAW5LwlwmEgyqP5UZlzRTsGUBV2O5ORrcJev7ksZliSN+IjGJaVhYKex0UlXQVud4jBlKhpRDq6zcn0RjIDTAqzDSUjtgNeRuJc+6T0OS4e85AfFCSMlDg44ofMp9/LbHPY6J0VB1Ygo0+uXbW+d8fu4o0VQIj8NqqsuPKXL7bd4Y/w+kF8eI+2mLNVI0khEIltAi5989SEE0zKivW4Rm6uLKaJ5hn9dV33SXShqZ/pHraC93ri03f7bJRFqGQidqmgyssXxmQlvIXQoR4YIRoSBepiqiZwTASFNdF/aH/VZL2x/OSBShOac91vXW+OR3ppCQ3+d2fl4vQFXTqfFq6JPzu0gvtZ7RD2pFaX634gobl/2x9p1XCff1xXB/F2YgEAtxE+HjMEAu4XgKZfisg9i68kWhF078YG9gmB0i58TMmL7iJO2RqY9QF5Le5ScEHhESMkNb7rniqOUwHhSN1x5U7ueyze0Ll9xT1uqSMKkRCSpw+8WwXh79Mc7LKJRpbTH69YfPv5b96SHrbdcbooHqnLpbYsDQm3QXW120KqYr3bVHqvn3CUdgzfXmd6YRopLurWK+uMwYCwd/oJnel1VpexLuoFIpvVOfwfPtw7bVV0P39c5wVwPINpowwYE3oDABsG8AYuNXxsQWBUCGwSzKog2btiAwBsQ2CCYN2Cx8WsDAqtCYINgVgXRxg0bEHgDAhsE8wYsNn5tQGBVCPz/jkW6B7YC3ukAAAAASUVORK5CYII=;" parent="13" vertex="1">
                    <mxGeometry x="20" y="37.39" width="75.57" height="72.61" as="geometry"/>
                </mxCell>
                <mxCell id="32" value="" style="sketch=0;outlineConnect=0;fontColor=#232F3E;gradientColor=none;fillColor=#232F3D;strokeColor=none;dashed=0;verticalLabelPosition=bottom;verticalAlign=top;align=center;html=1;fontSize=12;fontStyle=0;aspect=fixed;pointerEvents=1;shape=mxgraph.aws4.generic_database;" parent="13" vertex="1">
                    <mxGeometry x="170" y="41" width="59" height="78" as="geometry"/>
                </mxCell>
                <mxCell id="19" value="サービスB" style="points=[[0,0],[0.25,0],[0.5,0],[0.75,0],[1,0],[1,0.25],[1,0.5],[1,0.75],[1,1],[0.75,1],[0.5,1],[0.25,1],[0,1],[0,0.75],[0,0.5],[0,0.25]];outlineConnect=0;gradientColor=none;html=1;whiteSpace=wrap;fontSize=12;fontStyle=0;container=1;pointerEvents=0;collapsible=0;recursiveResize=0;shape=mxgraph.aws4.group;grIcon=mxgraph.aws4.group_aws_cloud;strokeColor=#232F3E;fillColor=none;verticalAlign=top;align=left;spacingLeft=30;fontColor=#232F3E;dashed=0;" parent="1" vertex="1">
                    <mxGeometry x="510" y="600" width="270" height="160" as="geometry"/>
                </mxCell>
                <mxCell id="24" value="" style="shape=image;imageAspect=0;aspect=fixed;verticalLabelPosition=bottom;verticalAlign=top;image=data:image/png,iVBORw0KGgoAAAANSUhEUgAAAMwAAADECAYAAADTcc6fAAAMP2lDQ1BJQ0MgUHJvZmlsZQAASImVVwdYU8kWnluSkEBooUsJvQkCUgJICaGF3puNkAQIJcZAULGXRQXXLipgQ1dFFKyAWFDEzqLY+2JBQVkXC3blTQrouq98b75v7vz3nzP/OXPuzL13AFA7wRGJ8lB1APKFheK4kAB6SmoandQDCEATUIAzUOZwC0TMmJgIAMtQ+/fy7gZApO1VB6nWP/v/a9Hg8Qu4ACAxEGfwCrj5EB8EAK/iisSFABClvPmUQpEUwwq0xDBAiBdJcZYcV0lxhhzvldkkxLEgbgNASYXDEWcBoHoZ8vQibhbUUO2H2EnIEwgBUKND7JufP4kHcTrENtBGBLFUn5Hxg07W3zQzhjU5nKxhLJ+LrCgFCgpEeZxp/2c6/nfJz5MM+bCCVSVbHBonnTPM263cSeFSrAJxnzAjKhpiTYg/CHgye4hRSrYkNFFujxpyC1gwZ0AHYiceJzAcYkOIg4V5UREKPiNTEMyGGK4QdKqgkJ0AsR7Ei/gFQfEKm83iSXEKX2hDppjFVPDnOGKZX6mvB5LcRKZC/3U2n63Qx1SLsxOSIaZAbFEkSIqCWBVix4Lc+HCFzZjibFbUkI1YEieN3wLiOL4wJECujxVlioPjFPal+QVD88U2ZwvYUQq8vzA7IVSeH6yNy5HFD+eCXeYLmYlDOvyClIihufD4gUHyuWM9fGFivELng6gwIE4+FqeI8mIU9rgZPy9EyptB7FpQFK8YiycVwgUp18czRYUxCfI48eIcTliMPB58OYgALBAI6EACawaYBHKAoKOvsQ/eyXuCAQeIQRbgAwcFMzQiWdYjhNd4UAz+hIgPCobHBch6+aAI8l+HWfnVAWTKeotkI3LBU4jzQTjIg/cS2SjhsLck8AQygn9458DKhfHmwSrt//f8EPudYUImQsFIhjzS1YYsiUHEQGIoMZhoixvgvrg3HgGv/rC64Azcc2ge3+0JTwmdhEeE64Quwu2Jgnnin6KMBF1QP1iRi4wfc4FbQU03PAD3gepQGdfBDYAD7gr9MHE/6NkNsixF3NKs0H/S/tsMfngaCjuyExkl65L9yTY/j1S1U3UbVpHm+sf8yGPNGM43a7jnZ/+sH7LPg234z5bYIuwAdhY7iZ3HjmKNgI61YE1YO3ZMiodX1xPZ6hryFieLJxfqCP7hb+jJSjNZ4FTr1Ov0Rd5XyJ8qfUcD1iTRNLEgK7uQzoRfBD6dLeQ6jqS7OLm4AiD9vshfX29iZd8NRKf9Ozf/DwB8WgYHB49858JaANjnAbf/4e+cDQN+OpQBOHeYKxEXyTlceiHAt4Qa3Gn6wBiYAxs4HxfgDryBPwgCYSAaJIBUMAFGnw3XuRhMATPAXFACysBysAZUgE1gK9gJ9oD9oBEcBSfBGXARXAbXwV24errBC9AP3oHPCIKQECpCQ/QRE8QSsUdcEAbiiwQhEUgckoqkI1mIEJEgM5D5SBmyEqlAtiA1yD7kMHISOY90IreRh0gv8hr5hGKoCqqFGqFW6CiUgTLRcDQBHY9moZPRYnQBuhRdh1aju9EG9CR6Eb2OdqEv0AEMYMqYDmaKOWAMjIVFY2lYJibGZmGlWDlWjdVhzfA5X8W6sD7sI07EaTgdd4ArOBRPxLn4ZHwWvgSvwHfiDXgbfhV/iPfj3whUgiHBnuBFYBNSCFmEKYQSQjlhO+EQ4TTcS92Ed0QiUYdoTfSAezGVmEOcTlxC3ECsJ54gdhIfEwdIJJI+yZ7kQ4omcUiFpBLSetJuUgvpCqmb9EFJWclEyUUpWClNSag0T6lcaZfScaUrSs+UPpPVyZZkL3I0mUeeRl5G3kZuJl8id5M/UzQo1hQfSgIlhzKXso5SRzlNuUd5o6ysbKbsqRyrLFCeo7xOea/yOeWHyh9VNFXsVFgq41QkKktVdqicULmt8oZKpVpR/alp1ELqUmoN9RT1AfWDKk3VUZWtylOdrVqp2qB6RfWlGlnNUo2pNkGtWK1c7YDaJbU+dbK6lTpLnaM+S71S/bD6TfUBDZqGs0a0Rr7GEo1dGuc1ejRJmlaaQZo8zQWaWzVPaT6mYTRzGovGpc2nbaOdpnVrEbWstdhaOVplWnu0OrT6tTW1XbWTtKdqV2of0+7SwXSsdNg6eTrLdPbr3ND5pGuky9Tl6y7WrdO9ovteb4Sevx5fr1SvXu+63id9un6Qfq7+Cv1G/fsGuIGdQazBFIONBqcN+kZojfAewR1ROmL/iDuGqKGdYZzhdMOthu2GA0bGRiFGIqP1RqeM+ox1jP2Nc4xXGx837jWhmfiaCExWm7SYPKdr05n0PPo6ehu939TQNNRUYrrFtMP0s5m1WaLZPLN6s/vmFHOGeab5avNW834LE4tIixkWtRZ3LMmWDMtsy7WWZy3fW1lbJVsttGq06rHWs2ZbF1vXWt+zodr42Uy2qba5Zku0Zdjm2m6wvWyH2rnZZdtV2l2yR+3d7QX2G+w7RxJGeo4UjqweedNBxYHpUORQ6/DQUccxwnGeY6Pjy1EWo9JGrRh1dtQ3JzenPKdtTnedNZ3DnOc5Nzu/drFz4bpUulwbTR0dPHr26KbRr1ztXfmuG11vudHcIt0WurW6fXX3cBe717n3elh4pHtUedxkaDFiGEsY5zwJngGesz2Pen70cvcq9Nrv9Ze3g3eu9y7vnjHWY/hjto157GPmw/HZ4tPlS/dN993s2+Vn6sfxq/Z75G/uz/Pf7v+MacvMYe5mvgxwChAHHAp4z/JizWSdCMQCQwJLAzuCNIMSgyqCHgSbBWcF1wb3h7iFTA85EUoIDQ9dEXqTbcTmsmvY/WEeYTPD2sJVwuPDK8IfRdhFiCOaI9HIsMhVkfeiLKOEUY3RIJodvSr6fox1zOSYI7HE2JjYytincc5xM+LOxtPiJ8bvin+XEJCwLOFuok2iJLE1SS1pXFJN0vvkwOSVyV0po1JmplxMNUgVpDalkdKS0ranDYwNGrtmbPc4t3El426Mtx4/dfz5CQYT8iYcm6g2kTPxQDohPTl9V/oXTjSnmjOQwc6oyujnsrhruS94/rzVvF6+D38l/1mmT+bKzJ4sn6xVWb3Zftnl2X0ClqBC8ConNGdTzvvc6NwduYN5yXn1+Ur56fmHhZrCXGHbJONJUyd1iuxFJaKuyV6T10zuF4eLtxcgBeMLmgq14I98u8RG8ovkYZFvUWXRhylJUw5M1ZgqnNo+zW7a4mnPioOLf5uOT+dOb51hOmPujIczmTO3zEJmZcxqnW0+e8Hs7jkhc3bOpczNnfv7PKd5K+e9nZ88v3mB0YI5Cx7/EvJLbYlqibjk5kLvhZsW4YsEizoWj168fvG3Ul7phTKnsvKyL0u4Sy786vzrul8Hl2Yu7VjmvmzjcuJy4fIbK/xW7FypsbJ45eNVkasaVtNXl65+u2bimvPlruWb1lLWStZ2rYtY17TeYv3y9V8qsiuuVwZU1lcZVi2uer+Bt+HKRv+NdZuMNpVt+rRZsPnWlpAtDdVW1eVbiVuLtj7dlrTt7G+M32q2G2wv2/51h3BH1864nW01HjU1uwx3LatFayW1vbvH7b68J3BPU51D3ZZ6nfqyvWCvZO/zfen7buwP3996gHGg7qDlwapDtEOlDUjDtIb+xuzGrqbUps7DYYdbm72bDx1xPLLjqOnRymPax5YdpxxfcHywpbhl4IToRN/JrJOPWye23j2VcupaW2xbx+nw0+fOBJ85dZZ5tuWcz7mj573OH77AuNB40f1iQ7tb+6Hf3X4/1OHe0XDJ41LTZc/LzZ1jOo9f8bty8mrg1TPX2NcuXo+63nkj8catm+Nudt3i3eq5nXf71Z2iO5/vzrlHuFd6X/1++QPDB9V/2P5R3+Xedexh4MP2R/GP7j7mPn7xpODJl+4FT6lPy5+ZPKvpcek52hvce/n52OfdL0QvPveV/KnxZ9VLm5cH//L/q70/pb/7lfjV4Oslb/Tf7Hjr+rZ1IGbgwbv8d5/fl37Q/7DzI+Pj2U/Jn559nvKF9GXdV9uvzd/Cv90bzB8cFHHEHNmvAAYrmpkJwOsdAFBTAaDB8xllrPz8JyuI/MwqQ+A/YfkZUVbcAaiD/++xffDv5iYAe7fB4xfUVxsHQAwVgARPgI4ePVyHzmqyc6W0EOE5YHPU14z8DPBvivzM+UPcP7dAquoKfm7/BTmDfGcR+MvvAAAAimVYSWZNTQAqAAAACAAEARoABQAAAAEAAAA+ARsABQAAAAEAAABGASgAAwAAAAEAAgAAh2kABAAAAAEAAABOAAAAAAAAAJAAAAABAAAAkAAAAAEAA5KGAAcAAAASAAAAeKACAAQAAAABAAAAzKADAAQAAAABAAAAxAAAAABBU0NJSQAAAFNjcmVlbnNob3Rnap8gAAAACXBIWXMAABYlAAAWJQFJUiTwAAAB1mlUWHRYTUw6Y29tLmFkb2JlLnhtcAAAAAAAPHg6eG1wbWV0YSB4bWxuczp4PSJhZG9iZTpuczptZXRhLyIgeDp4bXB0az0iWE1QIENvcmUgNi4wLjAiPgogICA8cmRmOlJERiB4bWxuczpyZGY9Imh0dHA6Ly93d3cudzMub3JnLzE5OTkvMDIvMjItcmRmLXN5bnRheC1ucyMiPgogICAgICA8cmRmOkRlc2NyaXB0aW9uIHJkZjphYm91dD0iIgogICAgICAgICAgICB4bWxuczpleGlmPSJodHRwOi8vbnMuYWRvYmUuY29tL2V4aWYvMS4wLyI+CiAgICAgICAgIDxleGlmOlBpeGVsWURpbWVuc2lvbj4xOTY8L2V4aWY6UGl4ZWxZRGltZW5zaW9uPgogICAgICAgICA8ZXhpZjpQaXhlbFhEaW1lbnNpb24+MjA0PC9leGlmOlBpeGVsWERpbWVuc2lvbj4KICAgICAgICAgPGV4aWY6VXNlckNvbW1lbnQ+U2NyZWVuc2hvdDwvZXhpZjpVc2VyQ29tbWVudD4KICAgICAgPC9yZGY6RGVzY3JpcHRpb24+CiAgIDwvcmRmOlJERj4KPC94OnhtcG1ldGE+CrXhBEMAAAAcaURPVAAAAAIAAAAAAAAAYgAAACgAAABiAAAAYgAAV5lxmh2gAABAAElEQVR4Aey9CZAmx3Xf+aq+s+9j7vseHIOTBEmQIAmQIAkSFGWK9q4uK6zQ6tiVrFivwhEb1sZGrHfD3rUiHA47wrGxWsmW15JFyhRFihRFkyIBkiAIAiRAEPcQg7nvnum7+7uqan//l1XdPcCAM8L0fB5gurrrq6qsrDxevitfvsyMsizJbOVYgcAKBC4LAlGaZSsEc1mgurJIUf75CrCvDI7/tb+OoJeVNrxkKyTEiDkjc2gJYlBAVFCBf6/AApS8yJa8LIIVb0mwf1b8FHH0PlqaVhHhwmtGXsUnxZ1/6hkUISp1+cIPlzwV31OrPDQvHI+Lxde71N9HVlry9fV5u0Iwl9HuBToVUR2fHbeEWUKmzNIo5ldEtXgUiJijIS+U0tLUAoovfhHexkL6pdGWRric+yXfZlHiSYUyvDq/KBC96pCJKegIjOEiHOH1iT18eF38rhDMZTVzh1gFsoXrEpxcRMg8cFHyKKA4lRGElYGQAXs9zYVbvc6PjAj66mLvFEXvHK11UxxLP1gaHomgi5SKK0EXxFl8XBIjpFzE04vXvAxRrqffFYK5nNZ27ltgjj4Q5iBRoAzdSQFyXFrUYy6OXCShVF6Dd68JCCrVa4L5VoencUFxiCldsaDUJe+WFknfviZN4irO4id5XVQn/3jJF0tuldb1eKwQzGW0upApQo9HPnCnJ/i7JAWhLgsWuPhSjFp6T1SORaQMz6+NEcKDmpff++ViMfPU/FXxnivBryYSJVHECKXQt0VpdA1vFwhfH3A46SgxZwyLKYS31+fvCsFcRrtLIQtH0PNFJpETTQiNvFOT33MJqFhw6hCu36VoWoQWqLoUHWWHyXLuHoRG8ba4LqK43+XBS803BTnEhZWikD5FxkuvKr9/UJSQBIlfpBFyC9J06WfX4/0KwVxOq4tOhJRCLEmTXLr4pwRlhLkStcDaeaYj7XgMwi4SlCLnnesFbNSNwjkLwnOJpdRzStCt932KZ10Vf2n/RBKPwxE9kHT4PkhCv8/fKUeXkjkRLUrOPH3qEfFOT8Xpn6z80ETXuVn58qoPt3XkbIFACUATElbBWZlZJX+alnVmoYU5wtpYYRucs5ZyZuk8HX3eZy2LeRcn847rjqQQSZYG4pIapnsdsbXJZykxiNsHZC7QOI2rlsQ9OWJjV4spE5Y6IbpFJYu5N8LS8hDPVV7VCVP8Xu77COMs6Zl6OKEG0nCBRBmclggScYn4dcbxpc3Knr8q8RY9VgimwJDXbWBQpnkcOhizpHXS0uYps9Y5i9qThE1AKDohFEdwkFTp6RTye9r5c8D3hQ52/uhxlt57MQpJw0NRvEAoBORSIeSj5yJsiQqVx/F0lYATUSAmmb5FfBnIH5dKTmhpdRU0tdpK5WGLyqstrm60qL7BotoaaG+AMledcEAWMvvJxwrB/GT4LOvbhfZwhFHjCAnUvOHPW005wu1gl/5Gj4v4JXUnb1Rx2CX9DCG0a0y8znIpEHWmQPbzID5SoAMBcFoyYVFCeDLNsyREE82He75JO23CdXaIQ15Sryh0pPLkHF1l1hk4ve7F+fUcrmkcBhIdmb1eRPFviitvXFrwrLIqeCGebsOXFIaXi72rEFN9H1cOiRg+jpIWt0olP/Xe4+RXgiWN4lKFGxEQUgTpZaUaxIM04rRS3azcg0QbJAqSqjzAM8RVGglX7uPyIM81cgntFepEGwH0BU2VUohcAbLHImEvVqiS6qI2RSr6lUcP0Te8KapQBAKGxbwU2J3j2pIwQjwBBoClQHEpoIUm4nC66lfA8jsnDO54dFRCdfJr3jSKFmXz4NY5yxpHLJk9aFnzNJrUNDQ0B0FIlWpZmjRpR1QpXVNUohRicCmRWppz4kjIHoNYIIYjFfeRn1JVdHrTkqGIQydhfmooMn/npQslXIjv7/jc6yLi0j3nTzqAVVAngVkOCwFhsT8S4GNyFYSwFR55/0lELuQkDKJLvZ4di50ApU62iB6YgtQwHRHMSUScQVQxMIggqExEhEposQiqF7D0QUxVS3v3Wrm2hecNhCO5nABVLgjXKwXMcs7lqp7CqHAgmtCyDhcnNNUh1M5Bou9UJD3EqhGMC7gH2Crm1T+uLYJRf0CYn1VciAh/BCNvelhM5AACXnrvFEJ8IrmaIQRS/yAZ5zplpY76FTOWIDEMKRK1z0AfRyybQb1qQSgJCAQiJGUaC4T1PoAQl/S8EdTQBcKL04rjovMLOaIy+r+QRc8gUEY8kXAotBpNT2pV3erqbym32hmELd75NbxX1MXwgghC6MV/BRiVl4tg4Qe5LojbEJYaBO5lCyUK70NZnSCAW5I1SEOStIHkRL0EboaamYqBQEiZ+m0wj8iJCuTPGQmOu3xHWb0tKIrK0rfeyvWN8JNNFlXWm1WQRBXBDqmFhNIpySRYZhEESupZhGQKFEMLUM4UeFHEKC7gQNuqosDZJRZfqR7q5y0yIgfAVf+5pggGfsdfRhODgA4r/XACHAFUxCP0jlJRkqBGQ6f0Idpn6Vucpa8xhvQ4iaA4DYEQ3hpHYEjVorOt6EgKg0uKU6Kw03jqDPfAGeGaCxyTjnDONY2OsneKQRjHBk9FKelQAXTqna40pprbG5JHf7fkKmTi0aMqmHpc/AAR3Kjweu+Lr0gtR9Qi5DVXJaFzgaCKgBDTg/lJpd7yyiU4z1KKvLQhAp+TF1I4o9/mqiCGjAzpLAltuoewMqSypFWEuiqCSlNJFdC5UrVKzzCEo/7QasCE+tYDIfVCVPSXIsINFS9zxheKu0AnamZ3piclgZ1TJOLp8rgAS1WrS8c1RTCOfGobkK/gw/BvABMgIjwS0sVqJAmj1hFLZ75Dt+MRBMtxswYcy9UHxScmRObqRBlCqSIZ6nC93h0W10YtUxgNGysdGkF9jiDNdFWjEK4fjpKQSa2lZ8clbjwCz3mrqY+idBYPnhYe84T8oyKwCNMXeXq6vVwsULyFuEqiSFeJLD1UYA7PTnHC6Y/KVsmQTigr7/RC2Oln+FCorz//1NW0wNf1FurwRFzqAM+k+Sztch7mhZRqSeJLQkGUZKSoMRlFku5l1LvRm9HaPoLB7m3wLkkd5aHyqhySJjAyL67ClQrt4rdqL+WdlykUXqW56se1RTDUX+0iM61FYLLRV4B4AiHxQkBE7UomHrbm5MOWTb9kcYNG6ahBeA1Qy2B3xkNaRVfuWWWV3p0Qyhb6IXVLSLNA/kxSCiJQAzoHBfiiNT/UAF4WGkkNLZbnjaIIIow8mohIQbxb4MoekEdQobzx82cuQoeQuN/waZ6ap++Z8po6F5mEaK/9FWJRrguIFKIRDhUHaOU0pSIqWFeVdUkU7pVC4Nuu4nkaoZ45d8i/Jp4Xi69FnF7ekK6nlz/HEI0kVYp6l7bPIfmPIYROWKcxGwgFIHuPTrARWMu0wcCQxSNvt2joAzC022irHl4hrcCDMvpGrHaXmqbiq9nIy+u0tFkI7sZxTRGMpK/gWIqlQnHDf9LCYtU8Yjb3AkMb+zmP8XzOWli2hKRldcilTiHWo+qgZbUh+iU9Vk4AtPodFTqlqFhZRkdVRKFWIuEwkk5+3gAhr9Akzsc8To4Din1xZOOz8EJkpCMP0EWHX2naBe5PrRaosogUohbp5B+FT/NXF7vEStPTFerkx0KSS8J8nCh/78FE8ootRF6oQwgJ34rwxIB0qmzKL05CLZd+L9jou8KcjHM0h0JEzDxgRDD6RVkyyz3MjTEmN8c3ZJ2kj4S67FROnzGrog73rKO5dtJV3G3W/3YrVekDxVLZwsgUH5CXMhGGYBrnb2lteXFVj2uKYNSDQUkS44QbjWHI+p61Jr4HsRyxuI1VCwtWggVHKlqpCoHU10EkqwJByIIlKw6dcjNZcAAjEiWAmV/EuyxvtBw5kEveT8hicTKBPCcXxxQ1OaE5xagTekGjFA/+WfEthXZ1Re1VRFh6H8Ii6ZJ5unp78UNS9RKHcNIRc0m8hWwXbqhpUbMl8f21JxA+TmE6kmpKzyVeTgb5fc7PpcF60d1EHr4MRViSVIKqJWtchBneze0ianXWPU+ZuCEY+j5pZx7ti/ZpY5xpQzyNMzBHLJbAv6Q0Kv2ozavo8tzK+W4kzw20Kf1Nz1caiFqWPijPnnRRnqt8vaYIxhjvSBt02jH92tyzPD6DRDkDjgNYgGhwoAyLlcYB4up6gMrgWrkfQqAdIo3CQwhwwSwV8UAANLhG5sXt/ADIogcHsL8j1Bs7B7suPHuQN7THDDjkX+lN4KghPf0WHI5wvfZP8htHuDw9f0V5FiPp4yVHyMsDvABLXr3ObUBCvQwfeAp5nsUnYkCeJy8d8fO0VYuQI7/eOVQEXvr3gcw8XY+vmHzh/Ys8nfzrkHVIyaPKuujwDqbsIMkpA7qUWJKICIWNRFQa2gkqzBgPSzHcGIYbGWpkocs6mPrbaBo9mKv7t3LeDNHsY0hoJwOqa/ke443S86xD/kWdr+a1awQT2kmNVFROYFMogERqWPuUJdM/snTyBxDMfqT4mJWEXFKraohl+iNRRQNlEAumSswunDQOjRj6GGoM0k5oFlGQ8lGj+G1ONEoPSaNXhf+X9OOFQ3G9TAsh3IjwimcRhepw4RE+02/+5gKkJc8QIXy0NL8Lksm/9TCVV7D5SceS/C4Zt0iHb16TbJ6vlzkvq98H5pIDiwSEnIsfOyiLZKnggjSGuQXpjhwX8POILhn0uTMiEYweCCWOougnwn1IQwIyGqQyHEA8WQsrJxa6CEtm3INlbfAOi4feY6X+O3I6D32iUC8RutIkQaXp+XPVkVczPLzx364RjKqiWgipA6wytFnZ+ani9EEI5RuWjH0LicKYCRasjsy+WE6qfTux7m52SeLE4X5WvFs53uIQAMPBjfb8i9aeeckqDVTyDowE1Tse3G3lzb9oGdLG6OOUpJo51YnRCDeC2uvjY06MBDnFXjnIukYwGqJyNO9QGbhs5NasMzCRZyw6/zksXwesJXeTnrrVsdNH1e0Qiez0GvBCcEBs3slDFMcanV453uIQQLXuoF2Um9gFUM86R8zmD1g2heWt0bLyqirGgXdYefWDqGv7MAwwmKwDla+tfhKaiXSHkg8UQzXR8jDZrhGM5Ik6z5IS4hxpY4Jxr69Z6+CnEb1IGnGIIRwAh7HNV/CwZURYli0Ri5hEsONLoWNZBzc5Czorx1sZArKhRDDIFKtpirEkpl9j8zjAzjyN1JnCQoo6P3qjVdb+POjyTlRAWUE1MO0yhvsOTBrmqj6t962uHFpdIxgnEvx/AAED9OPWmfiGdc78qSXnxvEwoWM3uNOsbxvWL7mjh/6JiET6m+vOfitFNCe6K6/7SgrXNATU1uABbjtwVK6MySElMmPaRPMEBqEDZrNjEAJ9oMEbrLz271pl6B6IS2NtWOXAE2GbjM+h37Q8le0ewSAaO+q8yHt2nIHHU/8Rs/EYXKJCRW+2rH8HtetBhKojj2SRQHUWA4eQ3V33IhZA4Jflqf9KKtcsBEB4HyllIFT2bB00f+pjMPi9NbGszdD35QQ7UNHutuqmX7G0ZwNSRREhGlDFsQa0Wxj+8oTe+E8XCQalTFaL2Vcsg1jaZx8BIIzjrtoLndxIjftCx81NUtI+c11MKpwIzTt1XEUzKxTzxlv8TfRlErdgmzhmdujzCg8YoNPAdrCLJUiaMUvHH7dMhqJ6v5U2Pmil9b8EcSCJoKIUlc1j6xvHmyuvfBcJxi2+qGDftPT4H+PWcsii/lErrf4ohKPxWqSKauUcRB18ACTiEZsoaivCAXC6rBxvdQjgJyCC0TBAImmBciVfM1lZO1jFSi08ougXz/zY0vPPYH5mMHR0q/Xt+Zcw3wGGd8Ah4seQnA8dvNkIRjgu9/HWGSxixz/PIBUu+Kt24Xh3l4vNktzlqVSCccDFp4gE4Gjcgxte8eej9zyLzawcb3EI0P5SyVwd456+SYqxJxUTRd2KmeIRl2GqeEp3zj5syeQJfNFWWX3P/4kf4Sb6+FLr5WKlNNTpXx5wdU3CyKxcgSO0j/2RdU79JTSAoXhoH0Mtt3OvqUBUHilTAhDeyYvQU10Vk2oWRKsIx1UzAfInHgBVcVeONzEE1GmPGWqgj1vBXwFPDmNIQl4ckaZnaJ4OA50prk3JxA8Zx3uFIYkB69n6Tywevg3cweMdz5E41RQN4l8KZS4TUl0jmMApkB9jX7L2yT+zaJZ58f1rcPH+CH18fIcAQIq6pbkZcvQTrWi4xTkFYWk+z6KsAU1NZNIhulg49FAEiMDUFVwhmgXwXKM3RQuFluNXEoRAKeXebxGyu3cEDBUVTb5/ScqMKTFRnx2L1Yx+TGf6pHUG1tngDf8Wg1oNUgNP0E40RUB44V7OywCD7hGMemFQfWviCUtO/AmWsucQOVXMgfdbUmOuuKb6AqzU3Ye1QIMoBrm0oH6hw2JL18xId2C8WOUd+gI9p3d0iua4WOSVsP9qECiaJaePwOfydnOC0QuaUP1Z2jG49iMiXCXHeZb5NNLUE/Ajm/o+50Gns3jNXVbf+r8hTYgrJ1334tUUEQ4lvwxH1whG/N7LPH8MF5gv4jr2ZSZ8NfALYu730F4GK3GkjPAyFm8BGu6Y51JCyhxfamEI3mlsxrnHBQAoWsCZCvH44oL3HrTyc81AIDQOLe044VMIVDaC1ZIiBh0lNSJznVyfUqdfA9bq6DMmozlPjSbzocZ+xD1TPUa3W33DLzPq/x6e1f7SVlDZwBbhi36X4+gawbhrjCChRSeY29Ie+2tLzyBtcO8ujazHCxUDQE0eyBqgEly0Agm3ZfkF6Z8ncRZRnubAKNBPwnW7cKgvpOOCwBC08nttQICmkSBxZ9lcBQsFU1uq/fI21QQpZ5TqwCsct35G/LMOxNA4bk3wKJ6dYrrzkJU2PWj1NT9HLFxicMDVeE2YviOHKpKRirYMR9cIRjPotGypqi03h6jBgNPpP7PGiUewdkD9dRZH6N3C/G9cufFKVucuQYVT/94XwcNaEiXSSwkrQ35uCOBCek4a+vGbHOD5+2WA0UoSyw0BPD6cYKR+q524FlJFKpgzRwgnk7Ml/FPzXpgIRQeeNQTa4z6JMJ09zOxnvAB6+6088gEGLj9On3ir01UJ4ujILxHG6jNshSTLI2AoXrDbLjdIXpOelu6JsHzh/wL1wwFYpSSeO2ozR/+ZVaY056VlCX2aUs8WlsDazWBmvw9mCmJaG0xGg0gOdNJjNQnLqUP3ryYaQQeiWSGY17TBNRWgpoNqnDhUMChGRFS0p3TqWH5krGAT1l/Aqjp7yGzieaTLFP0TGGe1buVNn8Qq9lMwURbTwPQsy2qGpVXW6FKJb1yC0e9dHgHTPYJxQED06sgldOiZfW9l9Kt0fprBzM/Tr/kqnGPMKxzVMQCwUEUkNa3CrErWvLIKLv+AV4yjJtEsZzpZT0QwnIJ1+MklzHKxFKW7ciwvBJyZiVRAaPBB85k0BTnM5ETa0HaaAVpCkegw0zZuvwJuHGWJrPPWxgGz3FdBqtyOKv+ApX13QDjMk3IEUI9lEk0EDaXUYBRG6pjkjZQynVd+dE3CgOdICgCD56n4CuSCoBCQAIox227ulKVn/xqJyyowmuuN2T2uUtk+Joz17IF4tiFxWH2RvwjrSEkEI7Yh4DtrIoMcaC5hVgjmyrHjaqXgXB+Cob18kpmIhbxi9dY5M40nMOsyabxsjfn9LHRCe9NvwU0dn8Mh3Kk+gQr2MZgoawAYqwHRZ1HnNiqj8qPKaVCzAxftgCPSxCRclkkj656EEd+HOq0z9R1Lpx6nUtjKB99tpcHbwPkYMoCQ5o9gIkTkzr5gnVlmX86cw97Oh6hqvsBFBanTs5p1/tYgbhnpXXDSFLg5dXF1jNxEiSvHNQsBNaskiXN+IXveP8lYt1rTlLM2qhjXlMHKuAqu9G1hdRkGJAduYR4MKnt5Pd+GNk7Of5WR/sdYRGO1JasesLo0E3DNZ4G6h7yw700mYby3T/3ap/FSPvmXoarr7rfa+l+mYnW4DRXUxB86cprfnbVexN8MP6GJ55g3gzu3pjFrmVb01liWNFYSKfki2kxX1ooxuNZk6LxyzPM1stwGH5rFWZnPKReAAZ7g51IJjgVAHewiMICsL/QjhaEgujwGz3l6vPN4xFJ+HludVP6UljdWiKDUwqEXOWctgjzywsPSD7xEC29e/2bpN68XK0+Lui0cBTMhqKhJUVevoiIu3OhB3yodkM5hRH/Sw/SOcKXn2RBPsNWhkULC1EWWqUeQkpqVoRGE8ZV8xwMRRQMNw9e1plPPYGSmSYY+ag10R1k5ZuCmoJ7XdqKqr6MYwhXSZX5VNg9zPf3Hlpz/Ebo6Ew63/LpVh97Fe/dZltiiHCr/8sgY8l0KSa/q1fkRIAFg++T/i3vM55GgAGV0h/Vs+kcAA0AwLRljIRAWoOnQqRQdVrScesoSzmweHbbFapZaII4VR7yRIJy4inGA5ZVENFbC45mZd5mmrCKBtBayGwq8x6d0nVJoDADt8/7z7DwzL94SNBCQOUCGhTWGVSqPS2PlBKeGEDJIFdA6Ad4++i7/vLjx6Po4zzekkyen+IsfcJ8XyMMv9fPquIvP3rQF4quZeeVvnWBUB2WrH4VSi4KQuA/2TOVdMALq6aPmod8RygtM8/5IGJVHlVpYignGpWSRHmHxd+bly52FPkjmS9My5Zh5+1kDidJkqAF13Vcg1VJLFbUn86JYcraylg5973by7g1t5lmqr0K6GAQ6Z/4z1lb1fyfQPoatsvM3mYQIwaRaXot6FHVWVZbh6BrBpHRKYlwa2if/0DonPo9rNsuLomrV1t2HE+aD6Ka7wCWkB+3nrjFUriM1DQCVBGhtNTG3HwJSB/AI7UifB4AnLdnmEe4QXFxm7TGW50m1HA9rkZVKsrRhrtbSSxq7kU2f5V/R8Rw9hVABn3JkKjhljlBCCkcnWeUEeUcO0silit57BBG6fyMM4QjUEfDQI5BO/iq/KFL4NP/17wI6578h5PV/RciLqXk8yuAhebjKziykUDTeyMAYDr2RNFSA6qBrceo2hIuWilL6W/EbSW4aKchSYOGmYX0tGHECGw0DZNojx9e6Dtew6PsM1it2SlDbt+TmguTB7lti4b5Y2kKNwWvWJItZUimq7yCMcTmtv0x+iU8mc9bkzKlMX6c9xTJcx/6jReOHQBYIaACC2fXbbCxwD94AKgr9ZIeJ6qsaXPnRNYJRw8WMo3RO/Ac4wp8jhllKp4VMweJRwz0mWvfzblKWEEjhNiW1bkmNkCO3ODhg03NJlpXGGAzqm6wz/hAu3hAQS/KENgc4UIFGgkVtWRmzdBUrGwv8yfIWV9j/REQkVxwad2HVmBxJhCI69OvIwk2sUebFwAB6x6AQy2NrwhKIF5rFY4dUPF1ChZT+kjqFSErxwsPjKignhteLR/LINOLpXHrwosh6IRik9nT0I2Lnqjg6xY2Ul0/5FoaJDPKXKq+skDLO6ApMHXkpY4ilMhJX/Q+Q1wlG5cloV614KTV6DlWLdnYbr1JXcsxRiSVlkfoZ0zuywRtRod6Dced2iIc15niVQCDSNipqb65JJpWdT8lOblEdzMcZA97N/f/Y3WJKbZWD/34WxBDBDN0Lk21QXsZvfOCTl153Lld4dI1g3ISIDtw+9vuWnsBbGUuY4N1m9L42PGDl9T+LAeABmL+QGUBBMEnuAhFDOO7aIIjzjdBEKJzJOsIYTdZ6GbXtIbwHHqHfg2laxCKCE5x06gBwvvBGGZsJUqikzYIQ+alWWgRxYo2Q6ghslRu+1yEEIT0hiXIt1BY1IC94r6aVKoYaKOQSMTtxi9vyFRGDM2lAzlejOJEWDpGb56M0dOdFyMuxEIs31EnvXv1mIUp+o9Q8Eh/oGx26OC34C3L0TDzU3y9NU9LXWYBXVtKKUxyNQ3V1BFbnnO1DfCsRmFiHPXVAKoiC8uuDvAyqV0obxBXso/0slwSRxP3v8gUsWm7ZEbyAFXNfYiRPjGSJ8DRWyURfWvhERcWwiuB62aJj/wp17BWXNhJ6vq0HFtXS7t9GJbuf0iHBXBWnBt5OefsS9UqOrhGMCqnKt46jkh37HJOAUNHqAzRA2zosghHVWN51eB/0wqht3y3oryNSyEDRerBvyCRNk/mcGBCUmds8y2yINNK8bzZASlgQDqqBgE4ELidrC7PyIpaWRX4TpgXiNKeCBtXAF57PakQfBPNNhED6WAYFXML95F59oZLWGRC30nsMD3mfSEitWrnBgvI5goqj0bLS3oSkhdoXNmeltZfQpWCiJJSKHzlW+1rCpEbsix4hfsg3RCCEPBfi+41iceOuEnk5yGkxFu/JT1m6oHEGwwMDXVqJP6zKD7ywXqnPAVC9zZxBFfvoaEV/EDn1fkro63CLisUAtBZ/1wLj6ojDnIyBxaiKd3p1lPthJD/rKbO+XApcVQYfVwxF8iqJCeHjAtprLwdamvxt/iBu/I9YOvYoJufjWtiU7TXIA7U8m5umD9Nn1d2/ZTbyYf9GPR2BQgTs1BaAdUW/XSMYIZcovXPy31sLK5m8SUsDO+jgrfF1p7ImnTbVCyKyIdadwjxY6nsXSCpbu46AIGpy4Zw67c6PpX4BGMHX1QOtMEIjZhm7huG3pnV9WRkQ4LLiP+sxZy28CpqHrS2iYnnSiEWySUD/5CUECwgfOK8kCu/kYi6E9HfkDsFI3Iu4RFhsB0A9IDKW9hFReZl1j/HByxYqoALyV3DohUDCda/TS7FwIYCD8CKqv87jqGAXvMjD/ZPFdLyjLoTWGsdCfO184AyGq29TQR9HO7GpzyHEgvB54FbfgP3izl4uQZ5nPeLj5eoYtykSI6rB2Xs2IbU3wOh2QQi0oRiP9tKJ6Udy+hYiYkL0MwXnUEKpsSowbi+esMgmvJOkjpA2aYkMtVfNxEMQytdZ/OIwXJcF6VHb4uFdLOi3Da3igGUTh5zpVnb8ptnwB2GIjPZ7amSnPAoYcnslRxcJBgCg57dP/jtrnZKVjG6cVjHs3w0Cg7yMwaTziHYQu4NvWaVvO4avuyGgzcB+I1c6gPiYORAcyDSgqz6hndUCvhGSAMO9tIgCp4KuTbg3tqTMCUaMj0A8J63Eck9yvdFavyIsFG8aSno3KqMW7HDLjgwL4qTwPVrYpQaJa+V/7cglLi5plXFq4pImLAV1ILzzgiwUJhAhzZi3W15Qf68gPYfyh6fwrPuAXKqcovAj5PZDYboXQXJfhEktcubhFec1kkMdc7nFU69EBAFQSvT/tMGUyhlmtZK6BoZlZdTKo5KqSFofDzPNjMWMDzFkLPQescpPVFkLn9hMGF4ZdaSJ3OudkVF2VUaHl1lZQIjkKe1A+/z4WzE5rzT5ETUSUXcwN8+gIWQv4xJzgHGWHyJFzoi24ENDSJZ12HN2U6Zh64w/Ydn5lyDYHhPBxBCM2kAau5iwQzovhopyJUfXCEYNI5OjE8zJzwFAVt4feJuVhvZQfpAtYUlQra2LqO2w8WqGmJVo12LjMf5l8cAeLChYT6pIJa2tC+cRajiCCFkcIKhP+a0AFaAfwEOwHx6NH4ZQeQ1CoTuJYGSi1FiAliqlQ8RVzznhaB9Mn6xEvIJDy7/NrUFCQJBAjoAiMMrinFlh6kuB5ZJWgR6UcXGv4vDsBVpyL0pfoKX8ZRFHddIhyinOEMCz/v1Hv/khguGpIATURRFyJkLIicBNueysHCQC8HMJSd8By1WElTGcSFERiEy9WB+lokYYTmLfiQ2JISZBub1IAnwOfHIvSud3TuSypvmBOi0Lm0pNJ0R7AsXyTm7BNOcYvJ55lsHrkyxW/grMlDXseFWqMWwAQUa1LZb1bpb9wOHQhmCS8ZedYKo7/mFOMFLk1OrAW7kXMPS83/hP9whGfRBEcefEH1hHc/qpTGn4FjxMOTEnt9RDBOgVIWb7kLWmn2WFmRn86fiOBkiq6MVwlcqA1tZ9nzck8tgbEn2AOAKQCADxLu7oJhlRj1iS4AWi+F3Ip3gOFiJBU29zjufQXYSwf8ePQkSQYVwBScV2gCnElLBfZsQCc5HUPabFMmcWJi7i0/gCPTERjX9NCV0SqCCO3iHbvGQK1a3jGzdOZIHSnN+El4okxAf9RAh6zOO4JFUYgaH0xNFid94/QzKwIzIOWHBlPCYqrIxPHyNmcfe0tokw+gI+8AvRhB5FXiqVPZRVfQLhaEB8ZaxwQac4FeZQQg0KMf2VxAKPUk8TMQxilZB0LsEzjAZaa4xtL6ImaypDKOnko9aaOuppab+fFFU4qq/GWADDhFBSd3khTUkoHHqT8ScBOYTFGE59229DMB8gnFyki4kBKUddluHoHsEIphS6c4KBSwhGiFMaZuepwb0gIQjgeq2sTUQEQK5fs/Vep3GU8ZazcBomCWmwU0wDU3Hci3kYqWN9N4U1dhkBlrm4pM65E4saTFnyjYDlg258LhjKrOIw9FakwVQ4mlPIxl/BvB3xiJfK2ZPGhpy58qmiqxxK10WaiFD56VRgOMIekKhBXgbFASlk/tbHUifVuZaa5FwXtcjVPsWjDqw7LTOuJEJH89qbhFcwlEg1QiVK6Q9oOndZA4Uwk1SmJIcNS6hKMjv3BtnoM8h0Eg4vsN+qCnrSJxeW2l8HGORVKb7SNRAlZYcIwmuRj1LgFDEIvvzoDDDzqlIX5SQTMcoX0jlC5UrmjiFNXkSz2M+VDXuRJElL8EBho2+U9IxaTap4bSttzjgNUlGbYkmtU5003UPzXtKJRzlfJh6d/q2/ZaXRDzhRqWRFGUl0WY5rimDU9Qv9A8zIACIWkoMIvv13i4HK5nFry+rFPiLqCwaVhwYBuNaDioBNvwx3iVmJRusECKzq14R4MlXqOSA9sAwYg/6sBkpESWoE9UlyMKuBZY+LUyFdfnDjTItHfaFTP0KICLte+LZoJlQVfZl/EOJTKlGiwoVDfngsv5MAirxMICU0om8jnA61XKqsZwmEGTuhKaL6S0z7Blc176Ok5YiUY46wgmdJxhHPj9ydGSlvpeuFJr7KTVgezAu95FSYrsWh2knCBPJzQakkdIpe8iPxEUP1Twhwaa8bIqBhpI3DDDqzuPj5r9BJB8FF5HwvRiFztdYRK+G1UWHQUrvG+bwnpKIbDqRByCwmc7MYnlaCYb2yVGM249cpwbjnat54LuxBYjUIZARwwR51VlFzkjbiGneKSBu+Mg7gfQdFlPqhjijTAVLp32XWPatiMMCCw3Q8ODFSiYFLNYCmFwhHxIWEeAVSe7uHF9yCtOKIwghvWH449Dr8hGd/KUIsHqWCSBUUojqx6PuAVYHzhgQ8b936sfAxDEKESyBm1Qaj4hNTc9bbU7OeWrAyxSAXvUHKFspFhb04mdQc4KAOdUgA2AmGBcGEQofcyM6D9STY8ZVLD+KofpIaXny999cgKYjtpnhiiAx0Ki5oG8qjhUpgar7DWAdjSgsTP9uYiNElUlcx68tsndLfUz+vpAleMipoEUffbRm1kNX4NU7mpn0tD6vWFxhzmIoZeLlFMEjX61rCCMnCIJNG99Uo+gscWdxVJtLgA4aLRb4NnNY6i3HBcO9WTNPFfiJqZN8j3nezolFomARTZ6oNmVjsvKQG0pSB3lusrJF/xgbCmgK0jhpImKDGWvjlTv+c/sp/Q1zF1CEECoeITOJBcRVbiK1rQLQQnqfjyKoQ5RQOEUIgVLPJ6Vk7evKo7Rhda1PziQ2tGWZ3A83wID5ql/oE7hWhsvG5iDBYobiD2wd5EEocShPuVQ80OuDJ6XSn0gvq4S/ce1D48cSJqM8hHBlFsg4E0UStmkdyoFJ18AuLmRiYqh+qCYIaO8EQkjIq35FDpQhE5vc6RIHXRYmtFiMMDlGk/pUMC7QTxE9joDpTfh/Q5FGFLcoWGiZ/Esz5G//u9amSuZ7rsh4OmYNIgFIjObfjVgSjDmXmC7sFHqeRdI3ruHOmOBodcezGSKVi7EGSCQTG34imJi1UCxGS9sPsZfwAC1AJC1DkDpyyGNGInLoSibEGpJWPudB38nEXNbT6GXA5FYx/1+gcqbzoHqy7RSmil5Q/b3AnpAVi0Qt/qx/UExATRJDmMT4xaQePHrCbh9bZieOnbc2N26xvdASCCVKxSZ0mp3FBQW0cGhyyWpUcHcFIQ8sSaY6vHwJe6Kd5gT2O4CkYgswusVApZf2TSR1roBbJ0/hMGMik36H1GBQmz2KmClsHx0ltt+dOscxfUf9Mu1PDIATjkpbE8hNYAcuM3eJiOchqQFMMS8YIH7hUn0hloCzAR0YHqdIpq1sKfoCXcFG16sw/ZXdmgDom5pKef+w6JRjnxA4dQYjTQZVf9AzSQ1AZothxSnglkIqAvJGIg56rrTXYNZZ4GqnGgiUTsRwBpQp0QAi5kOcqnhOauJTwXg6a6jCL82nA1ImDwccaDSyCcVOrCEkcUcQk0yvxfSwGxMTaF8yyGqso7uGYPvovJBIyidB0KMO8fjw5EhR19g4AK51AhRMTY3bw8GHb1ztqx5/4vtXets9Gtu9kzod2GqaajaYdOv0KdY1s84aN1t8Hp5YaqU4/XB5s5sS7QaPzIH+ksIIgZE6XNPB3gglxZTZ36x6DhS7FmW7h4Q3GayTZicd+LZrs5cVX3eQNgSFGpyZtaRVTlxxiOEh0w6M8lgcyaqvoM0gMVV8wEPOTVISViVmqCSEWX7GSLyiMfjmI6+0smBGGuopqwTdIo3Pfuz4JRpqwb8AqPVXs1TmOuAiwEudxKuEeqMfSJwQ7cZucvQdvZA8kHKKhQTRKr84vzUtDSTqRtnPKSUb5Wcx67jTZ0C8SokBE3pieH2nTeo7rGtQjTHlp8FLDBcpc+fkGphrXqCGFdEJUOMVxHfZxi8zVPZDGBwBFRIxlcCiJQECqh8rM4YFCFo26i5tWbGZq2o4cO2bbWCRk7NOP2PnbttuGu/ba2nVwaMqSYT071eqzZnPa1g1lVq8xCAgBlLSXCoieMUXC3VswfatvIZO3yeTdEhPBJItU8LEaBzJl8KLwk8NX/N6rTpDWwNZ9iasvsAgxRNrLBxO1u70gseUmE/zykC5eB6UVOusE8AesqJcScqsgraNmjX1QRTDwF1zJF+ugE4cikwz/Oax4diKTZELNvV4ljBpJzRPMsZImgpK4ssJ1D6AEIq0eI4DxLMlAE/KKGCKcwlSrBtfIO+inbxzwokH0Y28h6eHiagriXl6wPkdHHFRuNDgRMijAW6QSC12LS6PrcUVy6SpihnBd/aGRVVRvvlBEb/dC41IRvZiKw6lvvEYQirhs4LR5LLAnYf0CpVYG4eQpPD4/Z4dfmbPhv6zY1I09NnRX09asjRhz5xuItbnmN21m7JQNpl+Ch0MYomj910Dspgq05BCMvQyE5YQq87RmvQbMRbK5xIC4ReRIUKlNGutiIj1RZLaWZJVjpPoaoT7i9o74beIJ6XMVS3VTbbVElnTMSCqjPLtl2ECS6htvEwDjjE/thwcZjUkekuJFOZUmpxeeQA1F6Bup5hPM4r0ezcpCEu/0Sz93RFcjCsuFivrLEUydfxfVABfCEUwVP1iNIBJ1HKWWITG87fw7pSlOp1Ogh3D0jdIXJ/Tv0ZkZCJNJ2xMVwspU642keDpBDMqjMune85B6B4FJBZR6k2q6re6lAkFcTmDSRVSYBSIjCS+4EIFXeuRZrileNWVBoHymmnx39Pi8lf+EYafd77T0lqNW3XLehgfEKEo2tfZ/trnxg7Ym+YrVIjwVlBgUnAoOVeCh/hqI7qomfQjvm3FdHKlXQbwEXsQFQ0HA5lAwvVYcGNiCZKQCBfT9a1XA1WWeMINrzATI8A19P+ZCxdIMxHgwDYd2Vb6SWqKacHo2ggOhWlkoTABU2yohwV6xias2c4JB4r9Vzcriwm0GLn31flhTaeROVlzfjcQQUgIAqWIAJBwCpk49F2F68+rw4p3CdQjwS74rXivMWb4wUYfiFUf4NpAk7z2ewjhVaE9PcRcSy+95Di3JRcSTSx4hhWO9rsqP0+ORg675PTf+zsO49/yVHd/q87CRUMfmIcjjJ7FK/euDIB1DsXetteF7N9n6bf3YNsp2vvcDlpw9biO9x6xWm6e0UkLJlVmKmirhqqqYkMNYV0lerheMOfHBpQ6VW0ThR3G98KMURJZa6+0IHOVESZH5DvVVSC4HL5GR+h+qP+FOMEgMJ1TRAt/IRO7TIjw/UhOoiBnwwxNUgFJAJZOV7McMHfRades/ZELifeQphqiUL15OfftGDuoWivJGPv5bfUPNhHstCCaVawxqQ2n0DjyT94AEEIyAyfswIvy3SvlNFHmxob2lc8kZmh308aYIRuESKpI7TkKEbfDryFHcRn7v2yyuc9zS2/bamp95j228gxmKINrZaLe1zh620eEmOANSgXDqlKeJrHoiYse2rsBJtgYnGOdLalAQWgyIq1szvb8Z4CCVODh78pGkhYrpRKaPQXZZxi5xiIQKgokgmIoTzL05wShb/S3fsUIwywfLy0gpIMpiRGHI4rmAMKiL6oJ5v4nAFiPaRw9jvv0XX7WZYwct2bTZ+j/xHlv9/h1IlR47b3ts+tyPbfVwy3pR+2OQzpFEnWY4efcJRnhPvZwAZHDhlgJJlvgAtMs/iRLeiCak+nEfGAYRkSphsNipjgivf6wQjPdZXh9Ab+43QmNH5bwaBbHoUff5gaqUMGpecoSKbZY+8Kmj9E3+xZeZw37I2n2Dltxzu/U/cKtt2b7aZqO9NnnuBVs70sYjIHBUV8PkWiT1Z2naRR5X6So6yUuwkIOIxWkH0gm1V0AR6B/wTDn9pYgHbUOUpL7OJY4VgrluCabADHV2pcPnA3+Imsn5lp05gvXr//qS2cljrBxatsbNN1jtwXfZ5ndsxo63w+YgmA1Mia/1COG8N0SC4tRKdwkxFtlcravGfRzzg1HFb1UGSRB/I5MJUgeioKR+uiFGktDjqZ+Dio5wibSmwyWOFYK57gkGDHEkB2nwTmjiUjLRyOzE/nGr/JsvWnmMcRWiJBu3WvVD77LBB/ZYu7SepXYP2MY1Zav1hc6uEEke4ELKrh4aY3ElTFPBc+nmQwPqo6KUQcEapZfF0p0vZRFA2gQPcpUaInKh43eXLPoKwbzlCabAAaeKXBoUYflVplnhPX2RyammnTzTsh1sb3jwd/4phHEKDx8MJgOrrX73bVb+b+/CQxt3/3Nnbf3qKjNVQUxn5aSPl3MApwK6c2hNOA3uyrM4AvPdMuYqluoriYGaJQKRdUDmeA7fgg+XGg0fJaobEtLHMWXev8SxQjBvaYJZ2vpLeL+rUEveycQK3mtxwInxhp042rI9LAxy8Hf/V6bqjvkYYAmv7PKuHRb94r3Wt421hGc7tm5tn9UH4PDCzXy8J6hkS9K+yreaOSkkDivxoFfhZuMrW7I4SZJOYvHjGcufxlLKjBOVWME0qmpqM/Ne8IpglhQl1PQOmeSXwOh1yr1CMNcjwQgZLhAC9GFEMCDe1Ll5O3pg2ja1t9uZ3/s9PIOZ0cnhDqTrNln1l37KRm+JbaZVsdFVvdbTC8JKp0EdcgZ9aZzz9JbrJ4yhYOXjz33SGkfZf/IALjzjhDAmgwTRugiiafeylppWhWj6tzCjdis+Z8wIda90yn8Z1P4WJhj14tgVN5+iLPOixmEizbh0a45AqOMCzAlBb8nfor4Xqxz6PyqZOseTY/N25Nkx23B0wMb/5A+ZDo3jI4gkPh4PjlrvJz5oaz7Sb+PJGhsYruH6Dwpp3AO1R+5CUuu6C1Nch0TtDDxqed9k6gWcHyZZJIMpCazPoOWW3NNA6hl+bVmDBUlY7E9jKOWBXSyxtQdmMWgdJGTFy34x+FwYlrgvWT5wuY05/SP3wjQ0R0jk9JPgfGE6l/PUvXEY110rEMy/Y7T/cwxWimBuZ9WYGwAivkoA6LqhlctomZS5IG248fjZhp18cszWfXfMJh7/LyAScKODg3MQqgx9ljt22bpf3WMTtsMGV/dgVvZxcwhFc4dQ7VzMdI8J+TweoSqOnu3pH0ETh63MGtjlTe+lre9hZuwu1E1WfWEAM2mfsHjqG+DDV5gQiIdCD6vPDLICJlMu2qhk1csqNulAMAm+ZFkdlXQbq8awI5m8GAKpaEBYEnl5CKeLBCOdlPUIX0UwkQhGzn4FwSxTxS4DJ6/hKKgpLP4xM9+x86cTm3963Dp/8VXW5Trsqo525hLzTbXQ3fZB2/w799uUrbLVawdx7xeigBx4CgQXeRhRFzmR+iDSCNO5V1g78Yf08adZunWfVXf8U1e9XG7KwRUplOHYqSkFjWP/0rJTj6CiIYWGb4aw9oHhap7LoBioIcE1JplE7WMhv/o25vQzTd133PYWftMSDBYPgNQ68YdwlL/IJQwqWZ8IJvgfOXxWCMYZi6YazEx2bPIICP/kWTvz2X+vFcHckiRk05zLqEyfYFfVdv7ur9t5JMmqkX4mkDEvB2UukS8WII8Kt3lHnqv/w/xK7GSUa+4wq1Y9D8HgNLr6Abah+FWmArC6qRQJyiYXqI5UcQi7c/w/WXb0T3mBsWDVPpbeugFCguzlQX2p4y1NMPiMNSGYjgiGTqn3YSAYcQN4KqBZHrF5KRhf6+/D3J/Uxs817dyT5y3++os29YOHrcYELRlaJUFEMHEts8otdVv7C79hk6saNjRMp59d2sRzJH1QyEDC7tY2wXethHWrPfNja00+Z2Um7FWG38ECe/+EaQvF7gwimnDKK6Z16v+29NhfibotGr2J1bNuwmCBmu5+cJcq/xKV7FUSRpUXRr1JVTKaGoJxlYyF/EIfRitf3oj5tCCYSwHn+ngf5vlENnZ8zs5+/WWrfukxdik4yWxGyAQMcPd2QFHqZwLy7b1W3/0JS94zZKMbhqwOwcgnK4u0JBPY6K7C3YSbiJTR/AbL8U79iL4JHX6Wc63v/j+YRc2kOu99iYrDGE3EAo6No//csrNP+3SDaORm1lnYzoRKEczllPviBCOc8gUzPAmRzfIcXezD5ATD2srtE3+OugAHpNNfGrwJIS6C0dFldrg8MFz2VLQSylwjtrH9Uzbx5aet/q3vep+mRcelLPGh8QnUscpqZlju6bfm9E1W/rlbbM3e1dbfoynKUspQyRi47DbBuHQUwSbnLJl5zjoTR9DEK9az+afo1N+IWraROTraSRvjRGOaOXpPW+PEp5noNsfyWKyvwOKOmVa3ZP5MpLGYSx5vcYJpn/ojJ5iIRSqcYIZupnHhmS43Lwmd6yKCHPzHzmZ27vFT1v7qk1Z+6RlCmN2IQub0gqIR97FNyJbIav11m9w/YNVf+7Ctu2u9DQ4zUUzsR30FzXB0paR7YKP3QsYyPLBWAFImPQfRzE6yaiUT1yCWWAOUTLfWoCwOcKybfNDas2fZ35UJbYP7fEMln91JPy1iEY9LH29lggEInVP/wQlGi1REo7h2YEERwcgd3AXn8knPS8P6Wo2BOfjoSzM2/vWXrPzoDy0bP0kn3nsk6PkQAcMclfUQyzY6zadTm3qF+1/5Wdv4gU02sAZiUQSmcWvN6MvqOC8jHBI5TCYQB+WNU9aopvOfjLNPKduR+OA9RcbzB4JGwuhEzcxY0KPCwuJRzzY+Y10ESVCkpPo3lz4gmHPfRZIdgNj6rLadCWTD94FTQSXz75XWMhmTuqiSOcvzDTw7Jz7Laj6sJzbCmmDDt4bKLRBMQTGFenap51eDtIiv8CKNV8e5Gs8Xy3dpWFGei4XpncJDeWcm23bou8dt9itPWf1lBuToOKvfkiBl6iz5WWKSWO1GxmDWMcf/0UmbOZNY/Rd+0bZ+fIf1QUjey9EieL4QyIVp6+lqHnRT6avLlCuEpc1thvGWSZubf8V6UcM7rDwTUx8fVNX2F4y9JHUcSVlAg2F+JmTS/4FQNB+oxLz/cBTtuAijEM4zawBoHKYz+Qp9nwGr7/ifUPPfQzeKgjg8+ZY0l0vSdo1gNMzCGq9wy79hF7I/Y/+j42ar1rGf6z1wkh5fZE+dVZ8DAnfIDJ3WAR64lZZOkm7vYxCatSf/b9mMNCDheoqAyVpW4sSwJjmRu17CbzeOjhqIVmYmCwiOg6EIQHPq6QD7mgCU09cr4LlFZ9yXKhQeaNkjlZVlmRKApGY+c3bOpv74Ses8gjozz5YPpFli2zqZikulttW2lq33tjod68TGv8EoOSvHNH76ftv9qdttaMNAsArJOiD4iVs7fEg4J0i/87wpkzDzqhxKV5no4Oqey/m9hxGkdpR2Idh5MdRmXjAvc9ZGvawKrlPUXSP3WNncQwCYsf60jCDxLBLs/A/wGGCsami9Ddzw+4C9j7QFU2yvDADrr+gl51m/4UvXCMYX0qPwKX5FyclP43X7HQBBNUaYolxnxzEt2cOIl6oWYcl3k2Km1VvEZaTPckEnD10dISKAdWIRgMOhBtCfEOSq4UGR2auvcFQ/NLIu5FCBQVbfVcCRQb5dqCuUMWLrdJaCdE46OcfignDkVXKapJEn50t2/lsHrfklOvqHWU2SBQq1TR2OI4xbsObXcMd67yhbdYQ5MS+1bOI5rGGsLtn4yPts58++01ZvYylcCpKi/2idAZ8XT4jDhfCgmhBDkYChmNRyqSte/8v88dmV3nQqi4iGMvKsWTOUyNtPczUTHDW1uqWmbDubccdUFitB0rYbrJM29qRlM8cxsdestP4BKzPe04KY8JkmDdVbFX0TShi5cmspn4Q9V5Lxb1n7FANVk8dZrot553T24t5tDMSxpq7zWCF9gHxY3UWdSHFLOLdOFtUTcD0SQBHdqKMscOvOiUsJeBzF68JBQyo7V0NUII7gmiIOr6d8fghMwvsVTQJZvmh8usMU5KatGynZ9GzTThxoWfLnj5k9/xxbaLCYHh+3kKZ91LMJAfbuiyAYpMtYYrOPdWx2AmRiTbXmPW+z7b/0Xluzm3n+Dg2tGkleLomVP+UJQCOcvAuOIi7v5QtxuvOrDHXmDcQtglcF9BZUGfToi64jVeCmvIOxEF1ro5U0+tmats7U4ywTewyUYYn5tbezT+qvWNq7i2RgxEhXpeZ8Vom7iqaUr+zomoQRJBIQSRSfsWlOMvEN+jNftHjyDNoIy4cObaHTtg2howXqJKKpKv9SsUQ0chfX+mFy6hOA1Pah/aV+CeKkLCjr0NXbIm8QD7zKP97iyps6huLQ4GouFUYSRwxDMEAyIDWSSdSNdMhm26x/Vpqy4f6KnTo0YTPfPG7RQ49ZNDXmdRDBdKhbLw3e7mU0/8Msa7uqbLNPztvs06k1AEeFOZedt91o23/l/bZq7yYvgwhU1qpFWKj+QaIINsVOYzkQ9bKLB20KkLy9nLkERufSzpsMmAmGSMkoRSUHfgH9CcaVJtKmS+xKls5CLMAmHsJpc/0nkb73AivICwmjrf4EO8l9kFwVXpb6dY1gxOjcLEpreTVYl7czof7M51mdlAUe6iwa16tNfjYwfrAR97JRH2vQfpXCNK1P5WLbwRAEtwDszIMUwx9AUYDgL4emQDXLAqjLSWQhRzDBV0hxyqGsInSKpl2cWWXVTkzMWKWx3qo9G1C3ztKWp6wGch9+GKvYF1ExTp8EMVCpqFWixuaosbZX+YbU1n5syJqnmjb58CzjF1qzTCZ5Er11p+38tfts6MbNxAYG8otR/s5jQxoeTqqFOnT1+i8q8esfIhY/dOEUQhfEojrrT//MVIbPSF5iURUMtTvc/DHU+iMoGqzvDEMqrbqR86PsFcR6bVqzGSNAjELmuz1LGnnV+Skk6usX67LedI1gHHcFIPolAcs1wMY2zzuRRwAAF1lJREFU1ef+xlpncCycgWvguh5Vqrh478B6stcHuEq+CqQIQfXhB2TMWIvLt41Qp9ZPBeeAlmoEkH2p2Vw1uixIXGEkmjyvoiRhaPBQZrEJyo2/nOo9z/yWAwenbePqW21w0wbWeDzJYDh+V6em7difftOq33+a2Oy2Rn3EPfWtRqwr9YoNfqLHBvf12cy3sYw9OoebFmZ6eGibNaOjm7fb9v/ufuvZuwWPZmQyA5tVFsQoCeFyohOMBD+luxCWI+cVVv9v+bka0xuUX2kQOpxMVJr8FcuT+4s56gAUtDPDPP3feZaZYt2pmMFPbQhb3vgPUOlvE5TQRrSusxJg2BY8EI0EIxJ4goFgOY6uEUzeZuAMYlau/igSmDDAd7jozPetfe6LLFX/FNKGBcQFNvZCKfdvoLe7Bc0Clwr6LeIcJVwQtRolWEnbw72l6oho9BXIEAbtgLQTS2iK5QDUpdMgLxEKdXLrj/JHysnMWrjaz0007dRL+IZND6M+sIbWGnZVq9MXOXLezn/tBxY/8aL1qSObso2eD1qIIYD0qGKVfWVb93fYcRqHzOmvTFjjBVaVbAs7pLKh4t202/p/5t1m29ej8mY2gEoyvK1ufax66QciXm0gevEfEY0MEMvEeUMml/sr6ScJKmLRgCx9DhA6LK2E+iXpiqQo+d6iMNK5E6hfDHJifcy0UdbgBhw0H7De0fvoBo7CVLRDjbQOsQ9W2ETqJsIL0hdLCQs9qS905Uf3CIayShOV71DMxjoZrg+Wsedin1zVaXg24EnZ17Iz9tc2jZmw0mQ+BNImxb2jw1bkFXZbrtR2AASIgsbXxj5uthWwhKsggIS31uRynWyZdNa/HYjBRhiATJrKvqORdq3vDGLPnpmxswfGbOowSyExH7+yo2qrt5Zs8sx5O/n1/Vb91gsWn6PfQh0qqJ8tVBChVLUvsoF9JRv4yJANbOm1c9+dtKmHZ/DwJSu6KZofU4YwS3e83Wbfu9eSLWx5wTjOwPmm9e/Dv2xrP3DD6gh0KFiAk8NGUoZQEYxAFn5004VDjECZSuqK8+tKmIhIOwlouV02YJphQLJWgajaSFrex70j1rPmo3g/f9za7KgAV7WKVDVmc2pXhkhblrBTAHZ2mgG/RWbhlVmqqQzxsCwm55UfXSMYbx3K2zz/BUvOfBkxC2/Z8CBjMT/NKxALTqO9DzN2F0vnmHg09bTZxEHEMHu9aIFqFknQ7mIZDnxJfRWTkvo5h+HisqyxMLaIjkYP/kcCUOC+3HTlQPNxlCvL2VG4AD/A3oVKAEGfb9vpZ47ZsWeP4OvF5qY3rbUN21fBBRmof/xFm/3yk9Z36DT1bPENBAOh+Z6V1dj69pZtzccGrb6v15onWzb22JQ1Hm+wNCxIRDVJwlWy6u13W8o6ZfVdg5a9xEIZj5+0vndus4G7mCMz1M82mAXRiEoCSJzJBJFDgFNNeHGVf4vtSZy5IR21OVPaOsfJijgtVvjUrnKaWaoOH5PPSv076NhrP1SsqfXtEMZa6kDlGZuR10Dn1P9n6Zm/ZtyTHbc3/mo+PUAuQsXoC3VbJknaPYKhEbSAe/v0H/jaytoctbT+Lqtu/l9gMjRmYfYDgHGGU14bd5A55q+z9XQ6/ShWkZes3Yb7EK9EfN96gWvMblal2kaIaaMTT9jSDQBJNUKiuT+GI4N0I/UvhA3iZrryo4AFpFEYof5OwTnywwXDVnh6IeIWYYYkPD0FYzJXfuqsa9dfbQcxMTtlk+OxzT17ypIXTlB5iP7mVbbu7evZ14WFK/afwyr2pLWf2W81Bh/b6rzzbV5yq2+KbZjpx33vp45kMfPUjE29gAn5R+zodTYQlYwL2qqjc+ttuPm/12wdfZzvHLTSt49YtG3YWvfvtK03QDS9cFitwu9qI2Qp6QcHduLxylAhEZKkj+qmgT+vK5cALL3UQ0jjApgJAPmp9HXvUfP4grcjuJ6BkzwBmJGZdVhjjSnKIo4IdSuVaikjDx9X2RC2tOpeiryOXQg2YUndgkGITj2DwZkGprSVB4OaycQ3wSfG9ViMXTMua7v+R7xH3g+ykY+IxKsj7aMoC8lfwdE9ggGGUp3ap1hbmfkwWQPk6B+16qbfwJXhTt+0SKgo41YY4edGSI+oTWfxRZpmL3bcKyLs71njFOoI4SgtmiDl28BpD3m2Y2AlBcIYp9E+9Or3aHMkPbuuTFMAN4EuEI7uyOcCYIocFMyvI4XiFvFo6PDWG0LfLRCMUNr7UqyFDFHHnYodOz5u0y9gzXr6ZYvnZ63v5p1Wu22YrTZ7QXzq8dDzlj3zPHWbICUtMyRk0RgCpUV4Dr67biMfpP+2nlHtYw2be37eGsea1nwexELCSAqpmCmSuXXXzbYLs3KLef7nvnrAyn/zNGpLaq1P3Gtb3tFrI6MMfZZFNHwD8koQxm3KHwBOOl5r1UjVUqICgscPAaq5XuhJV53hmxBPb8BT0lFdPKaQmlVi6KQSRaoWmoLG45AgGTuYaWv2BBcpDUpKksgpM/N9SDf63P7SyP0+Nqc+jiz0ahntAOAdQ2CVpIfYkfsPzJgakDXJqw8n1F3MuBzkO6L5KD8FgU36Xyjhlf12j2BELTRW++T/g/PlF/BkFZdjqZ3hXVZa/Umz0XeA8HAVtROHA1xcSTf0nH03MZbqEbF0ZplnQYcw0mZBzVOEocO2cJdQZN8JCwkktwnmhmhv+khbPGg6rPY7qeTPclsRKPP8isZ3FPDMee2Hyg0pC6EgHJlEg6sL3xIvEB4R9aEeQMCmVtQ/0bHxZ05a5YlDEDxuGzcMWc/79lofsyLPn6U+Dz1nySN09MfHKDWknyNaolHqesv631G14Q8xv2VLnV2H29Y8PG9zpyHGsba1XmD0/yxgEe6gziYgYvSBd9iOv3+XJf0b7exf7bf2F/6Ltdh1reejHyffQVu7bZX19VJnyphhsfOdu3CALZfBRBGNiNXrGGrtksgrCKcWkal8ObBC51zoqz6RAChCB0aknfpGTSIM7fgGU2hjCtZYE2p1hkcCAUgvOl86YGZxjY1662uRDqsxbmxnc7fdri1oEDtjG0IBWYYc8Szf1s/Vd+rRPmPNc5+x5tlvWHkax06KEQ+wkdUOGPDwhxmLoXzuGaKvRW0XNGrI/w38do9gBFjapXXi9yEYBizZKFRL7iQ0WG2Ugae1H6M7cie1HoXr4ThIHWVUBZJUtmgUhQE852B0AvGGTWf2I44fY3bfk/T1zjnyecOLQNEBQ4OShPpAGA+iGu7l1TXki1csnWs330oN8c5vjhyuloggRBECtxwfhRLE45TEEQH5a0KETCEGTQoWz9Ppfvbb0zb8+A8tOnLUsr0bMAnfagM3jthZJEXl4IjNfubPLTv5CsMlsu5oNF++chU6seyWvLttqz41bL13DoBzHWs8N4fpvYlKivp1FuKBYFpjQIc6Kt+Izkz0iY/Z1k/daAkrs5z9wjPW/MJf4n3TtIGb3m7Nj++1rXdttYEhJK2Pa6lacG1BU+ZurrzgFOkKsQIcPBzYOwwhKO3cHOLxvb4hdiAA+lTM05dKVUaFzprqh2h/HMrlQCIP5QeMZeDUhkyVOnNfBphAyPz7qLotZKWxI95Loih1ZC5XAkRfQgG5+8f0c9l6Ph3/tk2d/Az3TeuR/Zl/EYztpA8z/ABwJA3hDeE+EK6mW4ajawSjOssxsX3s9615/K9QqeirIIY7cKKkmVrPwChE836mLX+I8G0gOMbAhM68T0wXgoK2gqLak6v2Z+/QGApSeIxvVtTBBNnczwIkqEDNM3hEn2FbS7a7bk4xVRYuLJYs/wqlASFoo6GMMviOW8w3lzrHRBNOiMlVOy2FL+IFkRRfqpb6M7mBAcsF5RBSiDb5oZKN83P28g8PW/zNo1Z/Zb91tuy1+P6bbc071hozPuzHjx2x8tcOWe3A0zbHNnsdoFKGcPVxBw7d0xvZ6H8ziCo24hbC2R/PWvvlBh17yg5ytw81rYFK1jpPPVRvvizBsds//3O27WNb6Q5U7OxnnzL72tfAMfqJGEemP/5e2/bRXTayhb4Q/ZgIIk1w4nRVFcYlvyxZy+RSQmqkS12dsHinvUFpI0kHmXVdvWIAMUN6aNOoTGoWG9Nm6qBCwL7LHqCQFHJVGQKO6GNmDEgbXsnlns2AlIX7MAfL6VZtIZOwahLUXbEm8ucEW7iyLyZBvs6yrGdTPzYb+xOsqU8jYVFde1i6CeNAxmS0uJ+9NHf9OgTzEYwttBMpgTje3J6Rnq/w6BrBIIhlB8Mc+kfWOflZ8Baz8eAedNfVdNy+D6bBOQByNrgWwvkglo6f9tF+iWKBUNJGo7axBiXZXddRhXcChCZXCSy+UanrzXwBJwKSfIypUruD4U7hfaFJxnrkUgGiSANpgyhKRo56npxDOYDXQ0QsqHlQlxsbIql5kk4QVMpKjSXtYcnmpyl9KS2JdO4H52z24YPWeOqbNrBxmzXvf7etf88mGxzJcH2ZtNkvvGzZ49+BuFvo7louQn0XmZKZ09KX2OAH6Ld8crVVR3F4OUq/5QDIythLEzyWe9Dcc/SJIJh0KpRXxFspMevy1z5lu+9bb3OYk09+5jGLH37E1RhJgPadb7P+T95pq29fY8N9uNakdYhzjgUpkDhwa+2UzE0ggg7qrfbAlIQQgcBkFvo3ok4BiVPIqgX5pKJKSvlen8ysTAdvxhS+l4FnVKvqJuAE0wE2MvOKZUo6awYmepeThbZK1ICjuI7aWizQhQEMqAUndIYg2+Hsy6ihX2Sg+xE0CaQt76owAy3LlMEUE7n39/TQ6f9tcOc+6iMJE8oqDHF84fdKj64RjMZg5FvVOc4iGMzpl+5dwa0h7mM+zMxBkPiINx6syjogZLlvp1WGWLdsYI8lPTuwpI0APLgWjeQdVnFBkMHJyTk0jSDAEOZjPAJ1DjCnAVmgmMREh4Ao50AGrgmntihnpDxlOaBUXLODzo2DqMYCnHuKvbUFcJKDeCRtvA9Da/gYC42vORzn+HTyJSTid/n8+eeJDaKy4dHaD66xwZ2j1phBHfseUuSrj2BmxruWMlcYiBWhi2DiamJ9d5Zs0z/AZWZr3VrnWjZ3kNH800hiBiJbIhgqPoWlrPESnHdWPJi8+K2v2oGEWWtbbxmwqRORnf78y1Z66kUKzJwZ4pQ37rHmg/ts9K6Gre0769KYHXGpu/oIXFU9yiBYijEFFUzgIw9UKY2Sa6/LVItYqN+hHZFllSjJyILvHxvDKiySUSFGemg8BImdYnjRMLVSgqQku7yJ1H46YZ/KgbxhlGQvYw+gDM0oiUVbJtMPMbTwMgwCw8/kMYKwqGENiwfW09+B4dZGXR1PxnErqvZabefvQDDvJhHSpOyqVRi4FLSu/OgawYDmiHm0YKwanZOfp+RoqiMsgDHArEtgk+L6AHYwx+M4y/HiXwXA4jqA13TWXvzL0HfL/e8ESFv4EjQDYb3fgMh14AB0IOyNQEspNwAmNSoAyfMnLPBl4QdIx+7JYW9KcVchDnNLOIP7jp5DJzWdGycRDbaiisgc2hJR8Q3END3dsPPnZ2z6AJO8nmaO/UE4JtKrfMfd1r71sK3fSz3ZXXn8BVSjr2MtOkSfy/2dpGKGRoxYsa66M7LhT43amntGGNlmTbIjc+w2Rh4zDEwCHxQ/J5yJ70Ewr4BozPnX1wkE2/u2eyy99xAj31jhD7Dz8tcnrXQAfzSQW8pelf1kZu7eYcPvnbP161knTKoph1sOGRiUcUT7XQrhM0lPCCBygpCBRNMupJYijZizA2VDRIRJfXXpgcTlnQ8kQxIRHXVx9owBQ6lYykPtoyNvCn8C8ZxpkkhOPMRSsWBYafOAdZjrH8390FpzY1ZuoSGwUa8TLiqd9eFrSD9UKp2EU2tcXsswiRoEs/0f0S+6h3YXY1Pe5CuOgHRejqOLBBMK3nYJg5WMSsRIkGx4Dzo8FVcjEpa1zyJtXsLJDlWBsRrtIy97eqk+io7KIm8sJWq1td6grguj0mU0ohMRzRMaRWpE0IMBG3DSKcVODZkTk5MO6eqVwmlA3YrAPA0nRH+F5MP8Gc+jS09ZSaPK8mtiJuE8Ovy5l16x80/tt9YTx6z6yrjVEXrZ2m0W/72fofN+wHqqZ61xeNqmvok0YwXLFHVCE+Gw4XkZM/oP1Y3sXPiRARt5AFWsn1H+ww2bZRPY5rRUIlAu1y2iCRb2+/YsfUBgpbEIlRcXooFf+lWL9zzNXBr6O7jMxI+eZo+/k3oJ10YlhXF09my1kY8i8RjIrLNrmU91gyi8T6PdkRkEjlDtXGJgrdTC4D63XkgnyarDYaT7/NkvOQAderzJGZeLCcFYiEoU0YJDmG/U5xR4JVUyfAs7HTzWYUTaBj6bP4iK9SKEgkFE43DUIcNgE0MMpR7G29A2mM8MYYoY1DPGRWj8B9aBYOJaj5uVIwwJ2vrcJxMqL2VWcE6+uJKjuwQD2FzCYFaW/lsZvsui4e1AE90XhE610y+IFKE6xbLT02nP5kOnXWqTqwqI2biXJUVrdCaZ+xCz9KjRoczoXJboSGZwPxQfVBHUCLWSCMUbVj80Gcgqsgo9qiBv/DUhiqhG1V3+kd9plp84PE2dOzMiDOGg52fO2PxD37H5r32LwcSnLJuGG/bCnd/3gNX+zv3Wv7kH6+dpm/zqN6z90KNWGQszB/F3gElgcIA9xsOJ9b+vZqt/mu0rNtfxcKC/8gomZFSyDh194aq4pax5ydGmjT88Z00sZIW/Wjw0YgO/+7/bwLbEDh3FzP4Y/mjffcJaxw9TXvp2sO0G0rq+erMNfPJBW/P3HrTB9TtAWPIi8Yr4FHm4iqSKczovVnXzw2EC0qkvEGATmJEQ3gP8ncqZB4honMh5r3TCR34jyY5DnKvCKWsrpwxeZnMHmPtzAs2CwWoMNC5PKVtJhFtZA4NEwtHmJUbyqRCnCo2yKQsfBo/k/OMQzX60kToE8z9YNPIhshV8A3F6GZbUhwze8NE1gimg5gTDprBqhDLLLEX0UbSLsncKgYU3ChV1wgHoEsUZfkVZg9mHjMEkrTlMhqpvsK1k8tXq1VTntyOx7kaN24Saoq9RD6QOyEsVXdoNCo4KQgdp04FY9BQaXdTlFObvQnczyCfxsSqcXhGFBxj1bBbb/8Efft96GO9oP/4wjU1Di5tu3m49v/5btuHdd9tca8wmv/+iNf/zX1j23BN0lHEOdM5HuiRUApn77izb2p9jeaRb+zFGpSx0iEXsZMMa9Ju8wckr1QQp8m09O2/j357X3CneQUzivFtuttI//h3bcfud9uKPnrTks39lQ088as2ZU5QXfyrKrP5ibw3v3g8/aMO//Au2bvceCB+4kKaD0oFAdB0ewDUnghCU193hwz1lF0I6DuqVc6aCMQlRKbtrDLAZ71NibaNz7z5eGDsy1itLxh9hIPoQ7YmK6HkGWCcwREnNMgRSHnqvsv+Jh5NxvovyW2tT2LwlfhLBSHxLt9VfYHMQg5zz6Cuof8GQOAREPwKp08HvKKEvUdKgnTeOvqEhAXbMIJiV4UZInpKsNb03IYm2omYEM6Yw0ccj1OLqGDriePN743iwkEMdfowQKbq7FDmt6iiLXGty3s689LTN/sXnbOax71l96pyToK3aaLX7PmTrfuEXrW/7Fjvw1PchFub7PPIoTPUMeeFyT0qyIciUW74xsjUPjtjqu+k89xM+1rKpA7NWgnCI4RxbuCzzuQY25/6GRe+eQ2LMax4MMfpGbfT999rof/8bGEhW2f5HH7P5z3zahl54Ak/fljUhijrWwhRpUgY2ya1vQ337+7b5vffJkwc+AsGxzoJz69AL9/oXPypFjsuuRgkkrtkIXv4if84Jzhk/+laKKTprQ7Ctw7TVUV9n2ZpHeMZnTI63qNoaI0tJzN1X8HOLq0N02mkv6adIEpm8+aAoyuteu00w/z8AAAD//4D5oU4AAEAASURBVO29d5Bl133n97v3pX6vX+cweXpywCAPQYAASSTmuJQoSl6ta3flrdrglaUql0PZW+X13/7DLrvKtUVyJdmkSKpIiRRArGiKmUQgQOQ0wOSZDtMzndOL915/vr/73mBACejZmq7WgOgz8/q9m84953d++fzO7wQJxdalpK9pjH3ZmmPfsYR/2f5bLOjab0GUsTjI0IqMhbotbFgSRmYBdyVZ7gw5mVgQcC6JLGnoUpNPnd8LllQvWFIZt2Z1kftjy2SpLwxM/0I+lvAJsxbku8w6d1im64hlSgcsKIxYkBmkMq7zSXhfrPspHPnHD5IM12oWWdNqy5EtvHTK5h75S6v/8CFrVuqWibm/2GnB+++17n/8T21w3w3WTCp2/BvftOCbX7Xs1BjH6TuyifqSsfxgYj2/32399/dZrpy1xgJ1j65YY6ZhcRPY8PasXs7tUSawZi2ymT+ftsZ4xmqNmLaElhvYYeXPf9aGP/cFq9QrtvzLp2zlr75l0evPm8WxNXhnIaBxVuDummV3H7DcZ3/HSh+637Zs2+J9DeMm13hJoHZdWfScRomipnNPEuk+qmaQElogSIV8W2PeGrUT1mi8btnxxxmLecahzuOMI/UntEXw5CRgpi+MjxW6LV/YZWHHLsBB3cDeAvU6n74QWAcZhwDHb100SvHM4xbPHbego2S5nf/WMgP3gk/psykWvPXz/7lXguuJYEQYIhsoKP04kEFWRzKdF2YyYCCwCCtgsHxgIgYnqjnxRPVxixpTltSrFkYMKgQk5PGRZ7CCLIOSK5rpIwLKb7JMYbOFpb0AfA/XtoA7nU5jehej7fRkDGDEYE6fuWCT/+m7FvzVn5tNj4F0WaoH6YZHLPO537Wez/+O9Xfk7bWXnrHom39tmSd+ZAEIxOjTBPUF1KPezjvzNvxfDlnphk6LK/TjUt2Wz6+ocxbRtyzfoZoOsfjnYt0u/fmsNecyFgkMIWi+Y5fl//k/sV0f+6RNjU1Y85Hv28r3HrbaxCmaDhLS3pi/CUwmEzStYxMM4qOfsuxvfdz2jhywiBfl1EnRihBWRV/qt/5c/s0P/aaeuDljcY1+V89ZUjtrxm+rCd5LgAgCqa2kRMLtsaoQjYH4GeAdhkXg2wWj6rEk32dhZoDxYAwgLLGAlL0J0fWgcICfq5R3N8GA0Bpm50YCFBB3YnGoc965EFKAQQhFCPr4SEJmkgI6juZAhBkLmsv8rlAHA9gEEZsQVNTkWBxPhBYzSBpMiDTbYWG+ByztZwD74HjdnBdRFUBMDWCJQe6wSwsdNvnspFUe+ZHlf/Vzy1JHA4LJ5ktmtx218hd+24be934Lllbsqb9+yIoPfxuOe9YyzSYIq14l1oCTFwdC6/t8r/Xf22/Zvow155GUF2tWnaGN4t7c61ILjtwEaepV2vr8is38oApCCru5p6PT7Pb3WP8f/IFtOXqLnX72Oat95S8s+eVjFq3Qf54L4jzvi4Ep/Qbhc12bLLrnXsv+/mfs8D4YBK23qAowQXR+J7EYD8ctuFER8KoAN9oX6/y8xdGsSxSrI80by8C2xvlU2jhTyEOkYcaJBE5E3RCKiCTbzTs6IZwywr6DPmrMrhhreiXKTYCP0ykdCMToVinvaoIR63VwOTcDUnwLIGI1zmxaBJOeAwlSlOfbWST3wpX9Ro5dqjDQqEZJxMD64DO4TjgiHl3jOK4xMCAO3BGdAsTgpRqsDAOaQxplctxTtEYuZydOJjb76LKVnp6wzMyk5cOcVbk9t2OvZe/dbQMf2G79m7fYxbGijX3jcQuf+qllajXLSKpAXCKGZiljw/f3WP+n+61jW8niBorezIrF01VrQljqeru/6kuzFtvi+apVf7xkK6dBREkeulcbGrbch++zA1/4uBWG++zVHzxjla9+y7InTqZIj5TOxjmrI1lyghtMJ8nC4W+/w8r/7FPW23fauorAMJIaS7/F0QUHJxoYTZMPUlvnxGDEaJzZCL5qgNSlMA9D6QBcfAQnzsd5pDNEkoFYQjEdiCTIdPi1ZhOpCFyl/TlzU1/UYVG3imCkn9wQ+E0a47cv72qCEZBS6aIB5sNAS7cVTAVI/QqQOmGkwUJFAvCOXDyX8fvhSHoU7hVE6SD40y1Ca4NedajCxEQ0CxAKdlB9GiycSaWRE1MqgVR/yP0zs1U7+yS6+uMr1jWJBcH7cujJ1XzWanccsp6jDdu0ZR7JENi549ss/8g4msooOEBb/MW0Tergoazt+692WeEQ3Bfp1pyrcN8SeAtyon5JDQNv6J//t+alhs08tWiLj1VQg0BMMYmO0Kr7t1jpY4ftyN3DEG23nfvumFW+96hlLtIHbomoqAO4VLH18vSfmqXAogLeaMP/5EG70PgLG+rLWQG+kEozmIRzG1orBBbQ9S3EFQPx38Ad6WA51Mh8GakxAN0Mc0uv9zFJlvitsdHzfFR8XFrfrmapTsGescY+5e26i9sgDu+4LqfvRE3wa2/3511NMIAKMPpI6WcKWCcYpwKucFJcqQEg4VpBNsc59Go4ZAAXFF2kA4B6luEAdcQRTD9VhbDQiwiRcWUwExkMl5FCF6WugbyoJYmrdRj7HI8+O2PL3z9n9vIFbJIVy/JMIsIbGbHJO4q27WYIprthKxcztvzcPu79hTWac7y/AB3IrEbN6ilY9+9129ZP77KkUIcA6hbNLKOSQQxNsBxEc4IRkkE8SSW26isrNv/DFVsaq6P8FSxCckRDqI939lr5jsQG+iObr2216kMz1nzxjIUrqFUgLSYzdUH0dFluk0hqLdWWtu+x3o+/1xaGf2rbtvXQDxAWSYGu1EJ2SQpU0YBzfl5qKecC1E7rpTJGQWJBDEdSi/e4mKBdyE+ID0bgwOaagOxILwKRZBEBQHw678SB5IIB+LgEvF/jwHmXeIxDGFDXKuVdTTCyUfBCACIA1yId+a2ExDojYIs7RQXQrw4xgOycad8uWvIDl1Nwdvd5BSCQEw6IgU7vBMUgJiHnuQM9xb/00z/OSfl5+ZtasLJPfOMZazzypAVTeKoY8BzIEoGQjfvut+CuIRs6OOCesIlfnbXS37xgwbkJPFQa9CzI2rAon1jx5j7b8S93WGEzdlI2ssYs9sAstla96QZySL2REzpNhngqk3Wb/+mCVX8ecUvNCtgGFRAqPrDH+j85aJtvwdkQ9dlM/Glb/PJXrf76S+AnfQP5m9yXcwuLOumjyC3GhssN9FnpvqPW+f5+G9yxBUEtDk/nAbCkiCMv73ZwCK8FBy6qPRqDBBUtZoxSFgDyc043a9hgCRxABFLZOOEOWDEWv4gtRbskSURoqi3Ac+cOngSCbNmg6ZhxzYlHBPX25TeXYARUoNsY/5JFuJWF3Zn+Wy3o3gc+iwcCbK67RNCPNxUN3xVFg6hBuLLoET/19z2rCzrf/uiYD4f6JUERNlGXZASLO8LtJJtw9MJQs3bufGgLX/qWBS+dsKAqfV98kX/Fbgv/6Ydt5K6dFnZiz8zkrfL4pM1+42uWaazQL+rw+iCWPWUb+Mcj1vXefiuAH/EKNssMUqGCjcO7QvoUS9rRokSqGb8WXl6xqe8vWP0E5zkRYVwXhndYcu8N1nP/VhveUbJkoWDnHpu1+ve+b8E87nX4i1yqsb8XApF8od4IBIxA1lwxZ6WDBy369H22/WDBikJuf5tgo9L+To9+/dAhpmZ6+bV7OZc0kUgZMSQkP+IyELOSWhrR6Qyw45+aJptK4k82YwCTiDOSUEJ/PKDCBfFJEd8q5TeeYOoQTCyCYRBFMNazH9VBHq4WwQDg9StwUkZPDuNsQwMt7gghaCDF4RjIYCWxY6hize/+wJLJSTg43BWKiXAIlO5+wAofHbHhfb22Umnawou4fX9ywuafeQJEpB8gBiRoud6c9X5g2IZ+B8IazFmmjsRZxJu3tISNLd0dNBUTSP/TjsDquJmnH1+whSeqck6lxjJYVL39Zut78GYbOjKMd87s0vFZm3noKcudPmUZ1EjxbRG7oOh/kQx0ECKkT/Qz5Du7bYfZb3/GdtwoghHStz9rAHkcDVLD0nkVoTOd09hyXjajjy6gDYF7IJUOkAcwKGkBcSBo6RnulxRCQq9WdPdv5jyM4Ma4XHcEIzRiYDJOMPA4BjtyFUJ8P7Dlc/N2/quPmb16nIlR1CdYeEZ6/9Bm6/y9L1jXnti6hwo2M7Fssz982eznz1ttcRkPmmwhIUFopUM9NvDJbdZzN/MOwCBZrlhzaRoXsWwl8VXhh/6CKsLdOt6455ds7vFla5yjDjxpWYAXbNtkC/cesa3vPWDDwxDpwpKNP30GYsbFzfyH2LLwXxxciAQaWg3CzYB8IiJn2yL2/iHL/NZnbfd7BnAMcLr94ee1F728zfSoWIOOKskfJCh2JgBIXee0UMBArZWM8+I6NUdiVoKKi6LWtbf42iCYdZYwGhjNXAcNGZ2Mn+YkGCipiLXFpk0/d9aWvv4DbI159zzJiM519lr+5vda7uNHrb+vbh24ii+8ctFmv/uY5Z5/1ZpM0mlCVZOm2WLBeu7bav2f2GqFrUixGjbA8oJFy8yGQwh6J5a3q1BSnbJgfBMDfxLbZfllnBkrMoIx4cVxP3y/Ze/aYcO7+91VfenMlNWePmHhE7+C6NOpP3FqVSl7KM8zFQg3D8JqktIncfmulVElP/Fx2//B3VbIXj1yvgXOvvm0pIJ0XC8Qh6QLal8giYt0TokAmEMUoiXZLCFMyvmFgOtkrmsihQ0Jc31JGMZPJcGvGjTzDB4DnAHRQeAGzH/2/LzNPvW6Nb//UwtrGOacl2qT27bbuj/yGcvvbVpPbxl1rGIXnjhhKz9+0vLnRvEtFMGNuuUQF53b+yGWXdZzzyaIA2mxAuGt4MKua5IQYoBA3OYVmhPyIrf04q8WberRilXHhUiR5XJMbvYMWP73fst23NBrhc7YJi5M2/hzZ6z31dMWjJ6zqis7IBqYp3/CzwzI2sAzJQeFuhqKg+ONq5cg6PvvtwMPHLECNg1YLSgIFNdcmnCAgPe2ZZp8dC5vcL6EtAP/ffo6zku0iGjcAeBSiZZzDBT8k8NZslrRmG2oZKtBaS2vgyzOm/GgJXDihIFNQOzFuRpSY9ySF09a8MqLuLJRZeDOioPKHNzPxOOnra9viViosr366jmrP/WalV4/bfH8nCOgiCNPiEz5rp3W98BOK+3qRQVDh185j8d6AQKFSEUsII1MYXFYbGKLZyMb/5tpWznB2RqolM9YdnDQMu+91zpu22mbh5m7YZJ1/DQS7ZlXrPu1YxA35IJqk+FeiSx59Rz/nYunnD1LuzV5GkP4DdoV33WX7f/IeyAYVE9XgcDUtSgJcHQKqbrx7y5uV7WQ2VmcFB5pIeKBsKTa6iNa1cQoMBPfkIxUNJ3IZrWyQTAC2noWRlfjpUm02FUHJAkn5i9VbPzZU5Z9/nlLxsd8ItRV6u6Sddx+yLbgZcpBYEt4uV7GlZx98jnrnpjA/QvWS7rQjfxQl3V97oj13rqZKBu8VDWM/CUkAvckSJMgB3ZANLKZMky0xouRXXp63uafxMO2CCrQnqi3z6oHbrDqnhG74bYt1ktEzNi5BZs7NmYdJ1+z5NxJqoDQIWY5ogQ+xaGJEGvS91S3EJBjn3diDquOxIpuvsVu+tyHkaYpvFOiuXbAJ+q/RAdtTyBSTWQmsl0UUaF2NAnvaRB3BoFbhsnPHGFHHjUA4dBSFz/cq7mYIKNpgLcvGwSzrgQDZUgdkVEqFzCkE6LzNzC65yerNvviKYse+7HlQYIYJBTnM7h9+Y5bbPv9tyJxMjYzPW8L2C/Rk7+0ZGwMW0KcE927GVnXjdus97M3W+fuHmykZcK0uK9yKUVopIC8Ya62i2KXmNM5XbUzv5i14BLNqiIJsH+iPfusdOddNri330rdIeGUoU28ftHmnnnB8idfxYGAgyEvtYr2g6dCRNGApBdoJ9QlTIV5GFQ7Wu/vrudCaxBRve9TD1qpS5ODgkNKOBxcY5ENKOaDpNGcS+0SE73nsd0mCYpVGA4MSRxJ9EKYTOhBsMOWlHYS/ErUgCakZW+JyNT4VcoGwaw3wTiyiLuhboFRGd6/tNiw+QugG5HJjZ99lysQC+ebjGCGmfLuO95vg7fswHNVtXOnidR9AU/Vq89bY3oaYmE+BwOiCUEMYyN0f4A4s2GMfYXeVIgoJnogA0KoiFY15yKRVp+o2dQvMfSPNVz9E+I3Nm+2/NE7bNvRQ9ZZxuuG/TR+bsnmXzttyYkXrHBpEsUFFY33aXmEvGFSJ9UXJuTdZHbpImLCRa73CRkjVLf6zoNWvO0m2z6y1YqoZY7BatQ1Fhn5zMAg9WAa9Slc4q+aLU/QmIbDJMR+CrHxFJ8W4HVMmGj1cJoyUeM9zMl1bKX1xLwBE6m1q5XfaIIRi6uNf9mi8e84B8mwHiYs3wBMYCWu74gHpsi0GqDW5Dqv81lovDeKWtYaGpnHc8R3LYzOWsfZM7by9C/xjoFkah9zLxkQrXTr3TawHyOceYNTL4ybPf2sxaMQTS2dB/FelPK26VPMqB8atrCLehsTvm4ngtO78a0OgBSaSW/ON23+pSVsEsJxFkESuH3Q1WPxnoPWeduNtvPAEPdWrFHJ2+jxcau89qJlJ05arlqxLLPnNbi2jO0CEi8goiDhE0L9CXaXo5woBeA7KaluIoqTkUM2s/OwHT64xbq75IBeHTnV5NWKh8PodU3Uz+Vj2HSvUTV97tnJVMx2y5Z2QRSE9hDkGVdgNpXjVp87BuEDo64R7jsMnHG/KxZQnotViuAXT7MeZva4WbFk+ZH/2jJ9DwBXYMGYpdgkZXBtyvqth/GW49Kc+I/WhGC0ViXTf5MFnbehXzPAuBbT3q1V11YHkIDtXBe9PkCvd8IFcWbmVmzh9DkrHX/JFk+PInZEMKx5KmFA7Nhv2cO32Oa9fe4NOvXESUt+9ajZDIMPb9UghehZ+Z0DNvCxo9axVXo6+ntjFPVk2tU+vUnEonmIRjWylVMVm3uSOZcJec3kjcMm2brXcoduZF53sw0MoabQ0IULiS0S/lI//bKFs9O8B14uhOGdVGc5QJjphfmUIP5lpI7UPNqdAb5uI+m13JvNE9+25wY7t+k2u/Fgj3V3SvdJUUtNu5ai+tX/uHLR4oVnLVkh+qDYZfk9/5Kg0Vsx/AdhTimjkhMsaZ6w5bP/m+VmUdsKvRb23+yL/AIaLpV1tZISzGNvEMwuFpD1PsBjvIS2yD0Ni3A7brW6rub6+hIMIrY2/h+tMcbCKrwimQEkTOlWN0g9LMVbvDqQrqZjV3UPr3LmK+RFuqgh8phNE26/cPKklU48a9WJWdy+IBOXO3qIyt15g2UP3GhDO7tYDRDamZ8+bc1nfmmZpUUcQqmEEtcv3Yh37AM3W3agACpqkhLCay6CsFQF42Qc8QqEtjSOrfT0gtVexZ2N5yzDhebAoDVY4NV7aD/vGeR5CInwodnzFwns/CmLzS5AHKABjVc8m5wVcjJADqiMWDkQQGOcwM55nuR9IQSviU8ZBRESJszlnWDO9t9mRw52WU9ZEv6qILbqTVoGkWF+KVk8bc2F55GswKXvRgjmv2d+ChuFGlAiHdZBJEJFVRv/v6x54QecQ63sO2JJ72F53N1eW+2FisiIpx+FYE6kEmaXJMx91CUPSCrBBWq9aS3KuhGMc3KkSG38T6wx+hAEg4QZvJmlvbfADOAmqCr0cs0G7uqAI5EtLVhzBSASnFFS4tL0is0dP2alU0+iUuBmlrMGiZjtZcJw9y1W2HuD9W7utMWFxCZ+8gMLX3/F172IIyKzLFvIW/fdN1nXLYT9dCIBGudwnI1zDZbKPYkWhIkBIh0Wji3jFSOCYBLHAtgUMyeUOXKHRTtGrHvboHX3dNrcLO2ZY6Ha6OOWH38dZGRRnEAFkcdSdzDqwzrSDdUvf4j1J/nAqq+yxmaG3vl7qJP74f30EuRhSUJuz012pnzUjhwuWld5jaiFuhtIsxx2Urx0EgnzEhKkAmN8v2X3/jf0rwSnB94aa9lbijHLLEHcX4doHqHzjEHPjRb23k49dctLbK5SFMgZzyJhWKLMDLLlkTBh/wd5R+phE59QLe84gpFnJETdqI3/GQSDhAFomUFUssJN7n4UqqZdWx1Iq8DwP+OyyEXsHilAFG4AVwog6otTqEivv2il00gOPGYNkC4DZ84Ps3x55+1mW0YMb6hNTca2/PhD1gnHz4ol+qjQz1KH9X/4Hivu2sLcCLp6/TiIM0X/JQ0gKupMkC4rE1Vbem7JaschJOLLpKtUeljteeRO69+/23r6u6xKzoDx8Xnb2Tdi87/4D9ZEFUuQLlIzpMpmIbocVFHHqC6NdLDOphP7mnYRWhNNp54mnzUH/rIvxB7CDmyxkRtttHS7HTpUxIahg2tUmiC91L+kcho3+YvYUSsQwJ1ImD9CZPSmk/0gsUhXBBw2p61y7n8nKO5XdJ+Vrz3gRNdBYEWbNDezSonVp9l0Tb+xCjUlmLvpJd4/qYbiBf6+VSq6ysvrKGEYYnSR6tifEvqBhIGTpwRzIwOPe1Edc6IRD1yvAnG62GYiD4QLmYuRDTKFSjZHIoniuScZfDQppIIIIrNpmyXbbrdgaAfu2JwtzHRY7bGvWDCJ9ACJXevh3kxflw1+/MMkuuihX6h09dcY+3kkggiUV1JnhEE+/QKq2GsVCxbSZzPM8axsutUGbz1gnczhINRs7tKyTY1P2I5g0eZeRcKIWCAS2VQiUEUG5Ooc9wbWfahs+e0dVp2t29Lzi6y1gQgFWN7rL6aBkmpBB4GQWw7bxfJtdgACK3eCnGvEp0TEgQItUUFri8/gIZtiqU235bb+Lg6eo2gUJN/QCkwkY1AnPKjyjC2d/TIhQLMkAxmyoAcVnRwLOQVitqTE22GDmEA8JxvmhGm1ZwHCDPvvBDRIGCSYY5NA4Pj1djVd3bV1I5g2MVTH/syzxqQEg/gt3ggCaBZaDeYPCLt+JX2X5g20ZkVLevV+2TBzp16w4thTcEAZzhAMnDO3eYfFW46a9W2zUjlvixdLFj31JUtmLsH10dvFvVnCmBkesOGPfAwEQZ+Pz3MN9YRI4rRrvJP/TZJazDy7iKGPZOMdFd6RDA9addPdtvfGYSt2Fwhfa9jsGAg3ddyy0yeY+GRNjCIOIBQcYmKccHBJv8CKB0D83WXLdmeQXBVbfJF4NZ4XpkhVdFIVu5Xdg4OjNrDPasO32669PRAMktVru3bIK3gV3QgbpMK80+ssOWCuCG9egmcsW9iEnYHRn+t1N3NcYUIYR0h1mUV5LAbs6DmIE+gQGkeHq5A0fvUG0aVoBoKZOYm7vMs69v23jM9tKNmMJXbfO1bCeM9Ra2oT/y8E8228ZKQnGjwMUt2cugDbgmWNOMHqkG7d4TSjST+5e0EcEGpmlrmOcy9b5+RzcEpWXIJ0GVSa7PA2izffjlG6zYpw6YUxkjk890W46JyrSd501J3stq226b6P4FZDJ2++wsCNo57jiVMfwQG5e2vHcSwcW2GJMl4xztVIshFvv8EKO26xLZs68GRl7OLFBZs/c9x6Z1+16twMOSUw6FG3UNsVokW9ID/EkkXa9dzUZx39zHFASCtji6SCIkRnWWH2KcH4+hi9n2fquNCrffusc/97WVbdbQVsmrUqitCWSzfiHfjLLbMA5188ZQ0YRhbbJsFB4fkSuC8mnk4L7HA/sqAT9bW0H7WNxXU86iqVL45YpWWIaxFMNIMKiJetuP9/tAQ7iIAixhKLyQdFrGxtEGsdJQwdBxmbk38OwfwlwCLJQt8B1FpEsCb70p6tAp21vgwQ9V7sKYWViCNpjmR2lnUoE69b19RL1lwhjAMOrQm/zOBmi4Zpb892K0EY8+dQLV76ImrFol93CVLKWW5kpw3f+SBcFXdy7Wm6jVoGgkgVQ+vDaCe32QuLVh2tUT+SCTevDUCMqHtbDu1knX1gc/M1mxkHCcaft/IcrlkhosJNJMckNWgutICKk7Pi3m7rwGuXU5YWJOHy2KwtvgyBsUbHs7DQMKlxkjMagzoIXe8/YFvfc491dmnpMYV+r0kR9aMIKZeavkPlimOWP44uwhVwbni+BDyCaovaG/Zj823DjGSuiaQZYgbeL6lUV0EwigqPZh61SG7p0qB1HPh3FpcPQDA4FLwyuix3P8drUdaZYGA6U3+JR+SbhLfPWtS1k5RDR/HkwBnVob8zZgL6lSfTQXjrjuv6leXKZ6883/7N6HCLh3DgWYrRc5QQYnZu3pYvklWFSbfGArPV3C4enIVgmgM3WdS5FYIp2OI4VPbKn7I2H9cpBOUEg3qT373HBm+/H28Vk3fVJ6kfpNGLmCBVjjEjscX086hMSBdJm6CErbP1qC2jw48cGABjcnb65AXsvWetv3rWcmSzUbCiogdY90w7eUa2C0RbHC5b6eYhiztoO2t6NHO+PD5lSy8TgqNl3EC27sQGbjr4RDBImP7Dtvd9dyGRmOPhHy8VLSmYmV94BCWqHJxtGKaE0IbcW37zvC9BdqyHyLU0gRdHCoOh3ZHixMjik4H4w8IAsXc4UwxC0stgnAmxZ2p1jJEmHvbm8dehN+py25SDLpp5Cq/cFOroNivs//fAYofIJb3XB6U9gl7hNf1ZP4JxxARtlp7B5/41oiZeYKYNXRUVJ8ztRmeFW2tg+Ygbao1IBl2YmS8xKgqz08LvgChYjaHgwR8NsorOSUqlg986ISR9m5Kue4ELetQiyMzTTaz8JdbZ1/B8dVROkEjmNPMrykoDA+wdsiYeHCvutM7SEHOVc9Z4+euWxxOkcBcNi3XmrWsn6s7RByE+JEPtGbqFG5gGupUDgdTP1mzlON4x3MsKegx7tlq86wFyFSS2fUuvzcxUrXHpmIWXXrJwaQ6URzLrL21gThMhQl3Eg+WHytYzshnpBBzFb2TcEINWHb3IPBIBaUJG1JIlRJvPpAuuEB09trnN77F9t96Ecc2suwOU50g9dmFRAQ1zthkizrCWOja5sCG7ELVJa/DXoKTRALSFGqWnBr7SUoOsPopQtX5GZMsZpL9rH2ojTML7yD0BsT8JOdSa039LUAE2JNEL2eH3WnHkf6HfqkKUnzJEbmTwqHcNyvoRjODh47Vk9elHcC1/zbLLEANJ8Jp9t6LGjoCY8BSMRpGKrw0PSX8kT4kymHgBEgKgHwNABwrfThh866eKf68OoJRgIDslglCgoKJm+b80v0y4xqyVo/O2OPo83JCGU2emu8/qpLZNCO8oF3vsEpKi48w3UbFYQwxyivkFnSwYI+ykePuD1KvZ/acZaIxexk7JIxJSzc4eY00MCS4S3Mv5ctkq5T02XbzZbrhpgHtICTt2xuoXXrbc0oTlUWGcXzD4CEGLeE8sYhkoWWnrELkHe2iPKucu1KGA8P3q6KQtQTCeCI/TEVHRMbaP8gbIDR0jwRa2fMC2HdxOfgEmY2FSirCuxJ02tTJAXrXX7aa9edbhkHdMnEItEDHy/rUo7WR9ngsNoGWUHUbEjAqm/ougFD0ekChEZCM3ulzQaosTAqpzgkpfqz5jwdw5HmsyQXzY8iN/hHQBj7hbjBNF21FB2otrMGvQ+HUjGHW5PZsf1ycsnnrYGie/410Iu5gQhGgUeKdcJ945JZULsHMETM4p5suf1/gxX+KSRQgqkFwxkEJaqT8M76pF96ooSYOQQu5tEeT8HESN7dKbYY7g/GNOME0GLegsQzB7Ucn2WjcEMzWNZ+fUVyAY2DIIq/rCkgjmBive+iHUrTMQzLPUCWMA4V16zjYhGJJWoI5lUJlyA0O20HuTzQSb7fZbQFaWFUQXn7f4EnmK0fklUYCEOmVFPg3BgQjj4vYBK25m5jyPs4Dw5EDqGrZJUiWD5vlxWz6FSiYChdjdOYZUEpPWMoAGtkN124ds5NAWnlH4poCGd63ZZZOLJbt4/oQdPVSyrCcy5O1CYggmEHzWoEiWqzEKVBVxKPeytAvPGgTh+OjBYVyKEE2h9+vdCZIyJuWVJpjR7W2ZnMoB45Rj/iW35ROW3fIvcLfTFzqMgsJvmFKLWK4GH66ma+tGMBr0HB13Vgvlx8uvWH30z8h68hJXEPmlfmKgRrhpG3o1cVoYEyIRH0uNOEAWd5GUJcaCegRYzrewXsCWeI9lWUvMC+C6/jaFJ9LnhUjUq0GRcb+0tGxLK8u4cC9ZOP1Yioy6TpRtBekitay3NGAz82UrnPgS3iiSATLo3uJCwXoJaizc8lHaeRqieZ5rED5oqdxjjUvkGHt93moY+zkhNAnFV4busCZ1D/Wh9MzjrZvSRNwE78V2YeSloorLKkLHcCpkh/osD7Hke4hTA9EVSS1hK7UjqixD5OetShS1SxPaLckmWDjBUEcdBFsevNd27EVCEcoiT8TyfNXmCQKtZbp4b9VGhop46nivVGCqll2VcikdrEFRX3wwgYHwwskW8a6X4StHceWnCBSXP/dpsVmogM0q6heTokkV26WOugrDyPTdQTTBZyzuvAkYUAUu/owIDM+nGIGjhvBmDcq6EYy88zKogYRL3zhaQj1h/fvMXxFz9BqcWNKEGKcOVheWtiJttjCO3S2iEDcSVxJKiv8ADOpRbqyUAAUJVazr6X1CJE7owtsUXQcppNfLE8bACMZ1jOyZxSWrzJy3gQix32A5MZw6JE3LAgRdK91gm3Atz6/0W/7U/42EYfYdgtFCMEUC92w7YB03f5J6z0I0MARsGB94qUt4sCqn5wnzJ4QEZK317rd403us3JO1OdIudddnLJhl0ZpC36Uq6b2SEhBMyPxJAWLJEnEQduMoQDULtU5ek1jiuhBMszJnldGzVjs37Ya13M6h4EJXHYRk32x2b7HF0m22ZSftzxZseblusxOjVkFSFvt22AAJNjrx3EklEueH/Ths0vCltwHn1V4Sd6LJNJq2a7yEzZI2qRSWTMWalIgQSqDtolE05ixTxT1fGQVvLlodN32BXNGZ3qMQzINM/RwBBOAFSKZJZmWiSSdR6bjeJXRYg7JuBCPgiM9JtdI/AUnhJs3qBC7Bv7ZoigVYCxe5g85qzQTSJihuAo7o2PLkkH0xASkizRA75QnV9Un/+VFL2qRXBB0flbcGkw+UuDeDg/rhxi3A1lNTZGS5NHrKdvecxJCeA8EZCJBtIdxsKx1EK+MGXqkjDU//nxCM3KZSFxh/iKC8aY913PQZXj/KaL/KwEvCYECzRHnp7KTVRpm34Uyhdxj75QjBiSPWT1bMU6fHbZCZ7wAuKjVEcyg0SmyBLqFmkD+guHUHudyG0EphLiIo2uUEI07K3EdjZQqixAYiaFQPxkhn6EpainvXMsRbJQM321Jmh20m30BUCWx+6oKtzOBkIJdyEdV4YBdZZSA+uRqUM07EqK0+FBi6NiXtl1Qs9QtO5LDXXFWqmsnmgHgaTPZmiAYgbKi5eIb1RKO0B+aFKtfs7GYO9HM4TO4BkKjyjKW0DEmmrJil7JwWkXizec1alPUjGMGasY0I8YiSZcYYo469WZSfKtFCo7mfWKIQhyW4Y5W18twv3TToYG1Ex2Y4DR+IR25HN2b1XFuiCBIiFjhUqooBKc04i6W+bUkJWOpUAKIr9asSk2uh1txixSZHz9lI/yVc4BCNODyD2yziWu56H5N9PVapbIUmvmghM9XaGUBdzGrGenC7FW/8bY4mGfTj1CnpyQBWiB1j2UCNCUnEhnWP3GONrn24fatktcwyUXmJScqfMvCoHkIk/adSecUy2EbFrVst3w9y4CgRN/alyLJdHDGYdEUSNRZZJs12F41LSDGeDyU5uUXVuVSWvTj0UZsjDW3vpm6rYjPlaueZI2FdCnpz0P1+69tDzBdSVu/PQSwurcVcfBb/bQF6VRcls8SWMvRZjLOJGiy2J4KUZElwPcfsuBDXpX6NkoCEeSyl1aUTARHjWWLTktK97FZyhBwLOCZgSCHEFeO0yaIiBNhocYP5JWy7toOBN61JWTeCifFCAXIypjxt9aXnwIKiFcrMAzDJ5CMp5Gc1ogL2Vqb/CqnDElzWdEglCXBvRkW2okAVyhe4X357EM6NUL6dVoQN4rh6j7AMnddH/O3AJCyiSCUTRjGXT50QDKeXlpkruUAYPa7h3txxObW9/ir7mdSJsA4yW+z06QXbnDxteZwYcn+KoEKs9Fw3oS03ETsVMtCN0z6gQoxkZYH1NadIPg7nhLB6Dv4uk6Bb8La9ZtOTC1bOTtlA5Zhoy4nPu6H+McOf7R+2juHtwKILONJWiTMRuFCPrmo2A1CRfvYc4TaE4shxwfkcxK+5Dmk+WURNtn8XOdU+azOXztscucz6INbs0kvYO0vYUcO2kLnRtu9HVYtxIyuPMhwb8cIQgZjSV9egxFK9BCvaK6midFMom048xOpDHCetsnIWQkkTHTpxoYJ2DH8MJ8kXrFEoen/lDnI1eJ55mEVsxXw324d8gO9tjCmVZ8AneqCoAU1krkVZN4JxFGCM65NfsXjiIR+EzOCnLLv1n6FeEB5C/0RQUgtiJE689Crc8uceVpGglwdw8FBEgm4ddwyh+pT5QET5QQCjuQS5nhlg3KOIAz5XQTCAUv8dO0HAhDqSEE7FKWVqjJt1AiwnrDN5AuZaBekIaUHnbxRZ3kvgYoO2Lh0nF1ntNG+DYHhMiSuCzj7rvOm/wEZhDkOh/UzUSV9rMlm7cuoUJg0GLYGCywMPwi134gCYsYsXLtnuAeqZPw1ywn2BlW+TgRMhO7DJsqh5sfawQRpqLVEKLPURtRZqcITmWmOK+i+cQupVSHYBstAZhwZ/5PVaLm6zheI9NkSqphdPnLeRbuym5lm3d2qlPbZQ2GU7tyDVK7JhQGYnEhEOgLqs8gpA11KAFKq1T+hGC8CZid06Uwg13PN8+5Ykug5F5br3Yq8phOoW1PTDwI1JWrVG3EQj1Ri3+tiX6PNTXCMb6J5/wQ5z7wM+SHThlBiLiqhzDcq6EYyMcakR9Ykve6rYQHm5+pgH2I0NQKqigC3xBABQxZ0DCQnvkpikEjFGcO0CHPMF/wioTWwJbVAkAhJgLNNJyDou1hIcmE2RIuwdpZ91mIoaXDVrAc4pRIPP6/wGfkg6UV8qlTSQgix6O7bN4sIsdsETVs4vuBSRFKrn9thi7gHrKIxb9fwpK668RJtxd/Icb8X/i61x6LM0qxOBN0a3IByQPMLWqZw5CQdlvoG4p2DwvRDMiC3Mr9iFUyfs4BYCLKvo7CIY1JQMUijsw7AdPgCycD91eHYXMCFtctpuqW8eU4Z3qzFFdALSI8Be0q4gpDlmMhb+BG7lOlDB8vvtUjRsJXYPWBk/Z5uLo0hR1LLuTeQ+u9OmyKSxbQCHQgOEY1WaEplnkZ6+PWIiKSBQibk4kBya3hg/1J8rObnaJ1jqIb5otNJBGeOZVE9bXTuXwYiUPEdzKQrP9sw9eEyzPUSF9xITFuL61pYaMEfZba7MgUc5aROU5uQ3mAh/GK/rFDYv0dp7/5ClzvfTRmCEVL+MA+84gkFVkvuyBjfwJcp1QiQIL8lvxXDrvh936VZgDVfTPwALOYh/8Az8BLUhqY4ibV4C9/CokVAiweWbNGbRVSE0uIgyw2sPS20Bp42D0jgl6iPsJsh2csy3SyENqJSaVhEbSrHPB1XI6heFhGBZhUjbqYunrL9wzDpyBAui4jSz22wx8ymMeOyRqUt4tp5GGiyD0FqoxUDRr449SI+eXbSNGCpNXCKtmkyy1UZPoCLBudlrM68l2jg2FIozM/qi7R48B6KCNGIbNCOLDZcZ3GfBwF7aznwJk5jCR9/3E5HsiSaEGIIV7w3xJDWmX2GfTKJ/QUBNL0kVExo3QZhGdpOtBPttieUAWdrVa+PWof1xqCMo77VG53uImm7a5h5gRfSDJEyTMRMj0CpJdz9wr45UIBv/TmHJbz/UOIvZMb6y3VCztZlVyA5mCRJZ645QHRhDsujI7qO+HMGX6IowPZwZwCMs7sFmI2YPBuiJPWSMaZjoT1MJAfmXYQlzvPwYAuarMNIzEBvvZRK4oCXK3R/ifqCI10xF+KQ+rkVZNwnj+0Ay2g0IpsGaftgLA0/Xu7rQOz/IHpGfA3lGnCOoa5FsCdkULT1da0kCDQQbkCZwqKg2xu9RCGmcjzgWey+yz6I8XpqZT7RGHyJSrBTQ59MBwFHb2DErhIA81IM5hyTk4/CE+/mYQ6A8n3Io1Ch8+vOE+2erj1tnBwGNVBGzpV+cv98uXCBR+Mqi9QcvwqWnfNBE8DGqT2Hr7Vbofw/vAyGFLPUV7DI2Tr2Afi7u2HMzW+jtw5Atk6UGRF953gYLGLhMZrqRj3TJy21KkKSVUZFQEVO9laR9ILHmKLTYLUVbjsGmpHre6jO46hdY74/dgr3uTEfSSgGeTVyvtWCX1Spn2UfmuHV1oCrSFmVxqQV7rJ5F1ewpWQ/xaol2M5B4kg3FOOk9PjjO4/WT9wuD9QYnBm3nByEQoaxd3RgM4EG/lYeMj+aU0i34qEeGOtMHUqGkYgUQSlDA+6fxJwgzDAjCZHI6hjnJE+j78IgRiWhYhJiBEKM5GMPU1626+DruZnZAoBkhKXBzu/4NGvqHGW8tNhcmifWKAb/DCEaTU2pygyXK0cR3QCAIBs4h2zxg1jyz6eNImvcxeMRGgZCJZvlB+IR4Mhm2cmyKw8lS0LEQxrknHhJtThotvwDjYoa8cg7uKW4mlyjARsyL+2gpr3NEjPIMXqZQ0gj7J8oxcLI7qJcfvFeIyEesnGMHONenJ1/FM3aaj8I3QM78bjs/tR+cWLHh0lkr1s/QDt6r1uGZkm1SHPowCEAVyhDG7maxBvnSGbxinOq8E117BOcbM/UspCqELHOusKYDRBcBZ9lKI9eLKta9y4k/8MlaqUQYwrQL853f4uYyxCEmZuIjTQbPv44Uxsso6gfg8HOfIA1L7Nbc9z5Um16rzf2CyHuYDRJUczvZri221NhJptoBG9oEEjuy86BivCReeIfvCwqXTpCkkh467RESkhJsHKWI5AhmJkboGoLUZcVvOZeXPQHzEqFIE0CaBT13k0HmBuAzTH+o18eU2zUOkopyBojhwST1Mmie80zkIkWjxVdYT/RNq86f5R1IKHnZYGwhrubc7n/FCs+PuEBpuirOLQDinUcwQEEIXx9VmqVvM6AgtAx2jOwm2z40AHC2vI01HR8kKvgu1BqWA2vuQsuG8am3+UM6gdkCKjAU1/FrGlcGWqH0+Kfx2V+E444ykXcapD7LbybytIEpRCTi8fkcMFM8UvMXsoUCBlRb0gXs0ShJhIPfuaEI9wKLsToKY9bVCTKiLzVQ8aKO37dTLx+zLf1L1tU8xoQaXjGecgOzWLTSpo9CGFs4x+BXx9id+0W44jlHiHpI4GP/PlQMvFss0+3KoapNnfGFYdoHstCzw5frasGVQthDEQyeMMHL17g4Gkh9A45qp+Yqlp5ir9Yz0Cf3i+q44vBB4mVxzUMxSMwptKRJzxXtE6KSHoMftMVoG7CatE2sqXEmg3SJpE6xJj9EUkhaxHzklAk4pzB9MSKF2qgESmoO8jKowJMPHitPzNex3aVHkt/Juc0wqz4YCuNK27QLAiukgA/ET0H/oN0wI4hLbEBqqbvGdT5Ge8BzFk39jK1AfsjW68vYPkjhMq59gl/j5WkYL0uU9/5rCAZGRccV/iZg68sZog6vsayfSsbANhHzycSfWDz5bYBPaAgTaCFxWdHU3zLYhPs7a2WtHEiW3/w5ZnARrYhnKIDvVMT6LYRrwHaBhTgT3EUUI1HlqgNfiH8wi3NchQvLQPX5Gc2xVM/hgXsOSQS3XzyOXUSCPT0PV1MRYxQ3cretHwvwAVG8ICT01tfPXi/bQFAlnijeas/98gR3D9rWbmyCwrT3SwTTYLTLm+7EaIf4IUJt092ce47Bft06eHahthcJdACDnH3CanjiMkgXPHJ5Fo7FGLe53htQV49guEPAIGmorfDUSNr3hsEtgpDMJSSeBOfNxSdYX8Okp7itYAbSCFlWgIuniNLaESSA0FOBnxkFZWLojF1iTolQ5f7yvA10MUaohUJ+sTgB1w3n9CdEwsMOV35SuYftF/qt2MXq2TJGeq/6262b/Nl0HHifU64kuQ+WhtN/uZRsEQzU6W3WWMorLM01SzKMpE7s3SRTDVM/ZFIXbxrXpLB3sP4/LO1zj2qEZE1wN3fsw+jvuY8mihVSh1R59cMh4aeu6c+6EYzS+2jjVtkwzYmHIR+60E9of2m3ZTX/giolLiwvWAM7JKf5BiYJQ1bhhV13IcYP41nSQABoHzwfTtXi5wQTqSFOQj44OqHj9sBxm1Q0GZ0ywgniS2K5MHEeiHvKndnAI9fU3Al2EhvFusGKJDS42RKeromJOiEsHbZ9H+tOpHowQCderdrcVMa2bM7apgHO1WVjEBMGupX6DyItP4b6NgCinkPv/hUS5mUWiOXIG0A0hxZvQfiaje/ultpGmlj1ABU113cU9/Qe8BNO7P3CQ4SqGSIJxTqENVIdFTsn1IgXX4PpoJLW0kBQBwogEINR/GIWCaAwmpiPeIu8jMor0AS5awsraF8sf0aAyf5z9z1brnv8mKIssqS69e3YaS+ZXwKkRFiU3aGJZGxA7DAGCR6CVxDbS1Dnxst/vU+0QyUN1af9ri7B9NRGCNzHinf7RCNjEzcukF/6GJtOvWbRwtNI75aNyOrQoKMPyb0XaYX6mCkD1ydJDnKC9TVkjdnzx2zFeTe4JrbQwg1HDrXp2su6EYwrZCBGY+yLEMxDrpPmIJikew/8BYNcnhO8XjLom6hSWHOIf1iMYpoglKS0gyjdW1gkdAdu2730XKxOo6AwCoChn+i7UjMYNQD/awTFZZVUVaHe9IHLz/ke9SAkU8sQEt98YhmvshFqqHC5Jbs4XSfxHpKkxCrIDAQA4k1NlG2RrfpyrIPp7py1ThEh7VGmzGIZgh/4GIO7B6RgbokJtsbUU0wSsp8M24znMa5xX9GDvPUOSWKSzI+mZcp40HpwGJAMQsinXZwxuoAZ6274l4YXeW+cg0qViWYf9YgEeeOcSnhEXfQYOdkzKuo2RRJZC9LqiNModwMHg1YoDOJ23gRU0fiBYcY3gtXNqFchXkbWw0hyyhiXAyXMMhUgh4q3hwoliXwcWi/hSuutOpu+VN8qomKpqRA71h5wBrFFxdIAWIMUzf8cInmKW4jBY7I3buA0YCohZA1SGjLVR78hUlRoxdtF04RVzZ4GREQtk87J+rCP5CRxG1TtAIrq9BqUdSMYoXcGAmgwD9O88BCcjuhbuVVRO9x+cHGMcYnakDSm8T6dZy4BY5JM7zG6kJbnZgvMD3TuwiW7L+UuWYI0FTKjpAq4pF23F+AZBhmR+qZyHzn9SreA02DpXJv7cHhFkXB6owBqpJI8dQqhr2AnLM2cxej8sZVzP4NrLxO42EOyiv0Mf5/1EBEwEJ5wYtUa+oxc2X3k5AL59bZ4/mmE2I+oL2szVdbgd0nyQAB493p7Zvg95+vti103MYdzI/2Ck6qdqBexYunYBcbjx6hNhCREEBKHEHlt+m9ArgnqFqQp9EN4KVxUEj/Nf2giUNEIylss6FRwv9ftPuvEGVDqYYKQNEgOtRZsBC9Bq63epPDj3dSXwkmWSEogKbGorXo5RQjK7xRZW8d8pfXxA2YUR9gdfEsljZmAtMoFQizOEMhxGsbJilSFuuDBM0kupHSmiF2HVFE/1DmXsEA+noFgSBLiecn2/RtyLtwLwUBM3KZIbrXNmSqvvdaybgTjYIUoIk8V+zCMm0U/TEwFIIeA6yguDgbCC+WjplSkJXTWaRBKcy6oSW5sUgeeFxGPE4vizHBLEsbrQXiZjp0QT386YNSTxpYJTLRARKl3uDNB15x0WoOve9Jyecw5FNLBh92O0fnaMmvxF04xIL+ijT9jQBrEvr3PlqqHrZQdteHCL1DvLiAVcC6AeDGesDypSzN41eLlF9HDv+NetqUsiDpwpzWZE6kvPktYzC+wq5FCePE6et4HchzixXB1QUMEwzxMYhVXa90rJoiJQwupa3je5n6KSxp1DI7rcWjqCo2XcHKCobM6D0rTNnwEfE9VN1mh+/PWN3yndZTh2vRTBBBogtLr50uFjgtWXqhPpX0oSe+nnMgkWbmXm9Pb+BbW6qMKUGsjotRjpgQM13ZSn2SMcUdXYUJoFrFyU0PMoZwGOeIItbitUwyxByJhvH07dPoBU5DdJne3lnxEs08QUfMaeFCy3L5/hUr2AExEDIZ/3hb3vaUNv8a/60YwDmHg1iAZeZNNYSVKtWgs1C7KTEkrqNKjheXCzMqkk71BDBAxZ5I6iCWAeoY5BOK2WFglTqstEYQg4jgJnCgo7ySc6L34CVAztI0CXDkFMggAsKVO+LyMk6Qglw6rw7BlhQoR1DbnjI5eqCi0SXFU8vLJPpG1GxN+f/Hi11BlHiXWbMQuLTLplwzZcPklkok9jKtT7lBuxRbI9bwf3L/f6iCJzX6dt7KdeO4fWXnwQ9gRHM3/xDoDJATuZTHmsP9+vFpIXtQhD/GHwOXmZqUOjVN7ZF9Qudy+7Bhbnfv/WIw25tLFmweSaO5CTziDkEpGveqbiiRxld2Oz47fbPtu+QMrE3HhCM01bvO/LjH8N3/8wfRK+9SbvnVdBEGRfeXjhfqodTWITT6yGxUmNMFWIuO4tFG3cAlr0ZuryN5pYErYkRX6mDbbhta3BS2NUKBVikjzN3YHMo3G2xMMKAmyQg1wQ5BWv/HiyEpJR41zDICkjfIUJ4RWRMz6x0giwmudO7XhG3RirCr8JLcVUT2CrboFT7EGge8Q50Fr7USTb7ZtpWmSa0IYiXAVqR5UiyQMFYqjUx6aIpWH8PJaaMuLY7Yw+zXrLZ9jY6WdVq2/zzrZOKmQ/AVrMk66l1UrO8LyPgzv+1jJGVnZvoP9s2QzyYNW3vwxOC7b+y08aj0Zlm3j4cqSvins/gi0fiONEcrjNpYBC/F40Kk4ubinG/94z+qvYxg/gu4vewtCkWtX71QzdQwF+TJjP80fjrnTlgiPuTj9Gdt90wdJFcuCPUB9ZRHh6ZEWMLwuMN9vEePQBWdqIhBsKElvBdhmlZGfPWESqVm1Ub5H+Z7gG1e/IqDlhubxSEsixQhwOuSUq0xR6VJBmUyOA2xa+p4VQ1ilvKsJRrDxyUY4jgAB9XBCHItvxYYx3yAVKwlRz/QPgtL9midI0P+TGrP+2oNFs+oaF+rxKqSXCNFwozYxtOVEyBXQh/HAaRItk9nNwO3iXdzDf4/KdVuI11JPuylqBhXxTzFPeGtAslee/x73PGZ9PXm8ewdsemEI9+xJ21n4W6ht2QMjo1KJBU93ETN2lCZ8C1vnnE1X3mP9276AROm3+vLjzMOA9HBgqSNh+TO05zDvpd2EgkhXd2PbFSkaCDYLoRO7yBLdn8GxX4WRwEyIRtbEIBeACeqn4AMBKXxecxpeeK4OAS40P2gDO/453i5CUjhHrRSHaus2/U7PpedTivIx4LT6LpUqrh5D1XwO/vUyzhrag7fNF+QBOG8+dafMD1qgHzl53Qh/CbSBklZ3ono5AQm4SE/IxN/qL2gxsfTE3//33U0wQNj5lsZGg65RZGT8n7ilDoGuLxCCq6XLkUESqSkMkNzDHppBWiN5uTxK2CNhUQfkPZIXBvXKl+wyeI5cGJZanBYSwInuBKLqIw+MvEBdjHKZ6GgkE65T3S/XqZ93L1KW4MyKXZp5mTacYGITj0+wm8nuvBUWvm0D5WPUhVpCqxdrIzZVSCFCAAAh2klEQVRbu996Oo9B9o8zT0NS857fJ66MXGes++/OPwImvw7CsTCshzAhea8Ej1DyQNIOQpC0gajVB/UtaUAo1Z/zwdbT/pZaL2RwaNS0JJpN1R3BUjSWYj98A8JOSLox/wkbOXwnz4DAMB1JTyriG1gR4oKfmlOyG7E5FE0BHEPi92LiwmK53PFq4pbjQ/tEnLiGtbdmgvtaW/CFOGG0u1hA/XqHb8+HZA/k3UI99rhBh6HU3HRcJOXlMxS8aED6xa+3K+9qgklnsAGUOGOLvzmwWhzV4cifwN2QqAdic2JjrqYIK7gbZBJiKZRDBOKuYYxlV0RAikTLjVHhEoxPXHEcaz6GwEi9Ewr1TPhID1GrRwZL0qBbx3i2dE0evYR4lwxIoJiukPmJFQI05wmnz3QOQ3P77ex55pFYojDY+xwu6LNs7a35+KJVg8Ps+bMNg/f7pJ89BKf9HEsEdluFJdpx7Tus6YfAsI+y3RBM5mb6RhuYuHOE5/1CIjEM7f+YNM/A4UlZVTsHT5brfQf3U3cywwTxK+DwrDORrGAllsOXlvAuL5dtfpot0InhGiTZuQWSCkL+Rgo7OUYEQ73DbQ+OgaVCVdweESKLwFQkmhTuIiYCo5GTQvMwbicSKeE7i7nUlg3JPbjPnXBliIsmNGDp/xTWairnnUHCAIGubnrb8q4mGPgTwMEZcBmYHKNOSWeW7BECqaSuQq61JNJlqOtx3ZdiWGtwOBbTktGOKzvQ5IlipeCgCZ4456Zw1kjckgkzIYevXReSiJPzkcfL08672qDhRJpRDfOrIB7IAEEvwZwrGKlJ5wGbr++0uYkXrb/rAqlYm+Quxh2sSVSQKiwy91Qh9WuziEq/CeLtRkph0zDxePDwLN43etD9SQjxKI0W0oHIMuLFFHhvSjBC3jPgNBN72G7Zwhau7aUv4vhPgfuvIh2qeswhJwYkWFWqZNScyVoFW2oI/C5yThJDaZYc5P6XXxLtrY9LNMFTsMdTp/gwSWTNxXgEeEsSB5LQkhyatxGTUYW8X+q02pyOHSc5ljqZvlAWHkVzJn4PhEpwpSCsY9+mXNffprzrCUZGd6jBcSVdEL8SWhAPxwFAFUBFSH4bz4isHPggls8b+D0MQGtwYFggh56AA8JpVa+MVJ8plzTR/I/ilVqua1dRPDaN+QIklYzolONWqJN8y9hWoiOWjHBeCNy0FWbOa+EAwYxH7PypH7KGpomLuN+6B5i7LMkW4T2FXTxATB0GfmWazC4kxmCi3UYrGbvlDtyiUGHQ+yHCVlCXDKx2rOflFBnZ6lvqDMHxIdULJA0JIPX1Q81HkVRPww+kjtEwOI+eFAgarN1fmicJOTueFUhW2KMZc+xCv4pTQ6E+qTHPOQhC9Wqpr8eFyaWNKudSok0sckKIgHx8FK+VuqTJtOZEQsUU2Z16hwatRRzIDd3t4T2cY6QZCOpyO1PjxX3ye/sVH1Hd8ZblXU0w6WwswIUKhODOnYCZLzmW9Q6onVuiK6ML8GEwJNsdrjoH99IBz7uWBlKDzelZ2TlaZivuJzQSgegdDLACOtPsizqv++TDB6H0PmylGs/kUMO0JkSqilMp9kxA3qOIrItas6+EDbpX9S7O47kji2We35fGl1jjP0zqZNIjsQYlDfAcshUWkzWml6zAQjnyBtrZatFuOUrwoFTF3g+g6dxDfcP0TdyZdnn/eb+rZlxS49V/RQTTzObKz/nzIwhnmm+5wYEDlxS8WMN1PT9FOEusTP0ZKyo1UaYXxwhJzwlxkTRJpanqpKjbKi7BBV4qEVjVFH+vAMdN+tKHi5pYVludUFtkmkoa1Q2pAwuHO3UqwNKdNy3VzLNdajzF/dRX2WqCtRMbX29T3j0EA3vO9L95HgZwATQAJtsELiOOp3kPAUXI6wgs9UTI7ED3oUxHzQeJ0RNH5hMzh6OrHt3MgPluVyCRgjGVAUUxS/LapO5XEJ1aU9ctA6x/DJzeLJslYCY9xv0by2MFd5anKMY4xwom0Z7exeyDpBbt1dYVEe1XetmcIhTAkymWJDeJou7tHIN5j3tqoyr1rixj2K8Mkd5oyRYIKty14yzXp1jdwAZEuXt5zw7aDyLJvQrBpO5bCFXcl/4Lg2NlVYmOQzAPswvaRScWIbpwLYLrQOo2MTkA4ey2XnIPd5NMw5kF81tBVs8CJwFeMG+VVNK0j9Jv4bKbQ4DE58D4Fnh40P8LzXUoKKgI7pKIuqwFb0yUcU53AEN/ljv1TvVNjEZPKl0w7RXRqK9tVz8n37L8RhOMgK55mIjtLiRCRDCBJi7hmhraFPZvDNxbQskvUNmbio/eFWd+/foVl3xoddy+p/1s+1jXrjyn37p25Tnd0y4gszqnAjYoAbdWZgpftDNBkzXCc3OLLEQbtZ6uSSsNXUSCEEGXwda5tBlDvMu6+1lvP/e09feNWr5zN27XTxNHR+Jzqs3gpZLBHPuiOk3mqh0iGjxWlV+B/z+COiY4h/bv3JyrkkxR3i7MHuQ3S6ZZX9NZKkPgRA24nQYzEXZ7u9v94vhai+uuVCKCpo2uJfBO2Vpy83MBwlHbUzgFmo9xmIlgaJPa4yjAH0nJVcpvPMHUx7/ka/o1USKCYZtghIn08hbBXMHpVoHVdXYZJFDR4ONR0vyHbBxxzhB7oE7I/OIc+c1YaBUiabr72B8HKVRd2M6c637LF5s2PXHctmxlIRnRwJnip5jMuxukgeNimLtqJqnLLH+QyMs3BiG+BAd6GikltVAIBq653QJRNLrYAWzY5laIcevtY3KyjBoGY+I+fZyg1LzLTMAPrvmP1uTH7kRQOIqjM21nbOVo4YwvFpNNhHRU5HhO4kZahYoIiY8kHKTzxvn06t/7d4Ng3rEE0+aG4pyoj9LpKQrdT+0mLCAM+iohNTNzF62zXLHO3ilCRYp4yXbAgeH+LHzbvPkk5hlRyR0PEJnwIRg18z8+PyJVBa8eaYiMKIK4warDxllUQBa0KYEEeBcQh9Zk/dDcfBd2VK8ND+3EnGF3MiZOcxj24vZa5+MBmGqfiIdzaxXJ6x1uSVpX65AorkbL+JEaLIoWHejdai+2qNRejwlz9UzXOW7hgGhptbJBMO9UgmkPrhBCyCD1o6WC6NgLxxHIMz3DgihyK2cLoxjdVVuudNvsVD8Ry4Ht3gnSJ0/hJcO+6/goKj2BpNhQWuoQs/2fRcdQwV7DyXABhNfkrF4DV+ZTw85aXiHRxRK7eaGGbdpSRKpwTYSiRrTa5U3ToY7VMP+TNvFa//oKTNoiO0vzaqrbJZqcFpK4V7w8fb9OYg+mjeO6LB9sGr7lHFitbBDMO5VgLo+sMAS+2ZYyYq78dgMY7JHDIsbwnbmItGGtR6GLCRzyMc/M9LC+v2n7RrYyZ/OfyCE2DNHchhZDPBzr+FkhhUQZRfUaw05m3ZBUHBBTRnKFuDbyJNn8UrdVlvutszhswwPEy8n2kUanCSMQVelfHYHxoomAXC0TAnsBodegeOyaiEVOGJcaqIcQQIiXUWmiRBdOqfwQkcvAD7QeCu+IOzNojubZpL65Y3CVNm0QzDuWYNqIxwgLEdrqjhuuIECrXzEOgJAtxxuoUcr2qAybddzYhe5BO3Nu3LrLGRssP2ulEhOKmgiUG9lVsgWCO1mrT31Z2QlEeDcazJ4TizYz18AG2onzIGQLviySimgBn9dg01o9S8mgrnm7IBRf4UhzJQWdy1/RdL/5Gv5EtE2u5zTEE+rAOxZrToy9Z2R7BYpeFuGIcokQ0PLvUAvUlKbK1Tna5ERMTJ27ot++MRsE804lGA2y8EO0ISK5bCPITpBRq6HlPAQQaC29YsNAnKWlFZucZmtxth4vkIxw+0iN3c+OY+NMWbkXtQ2pILdsRpOIJLRLEtIyMW9zYXzZJifYGwXb5MgNbCZbqjmiKvJaHsiIfGMZUg0FLCn2trhKp3bosCVpOCeG794rmrYWJU2KAdFIPMA4EmUTJJ92UlEo0llUSdY3sThML/ZUS6z0DDr2AhOYjBKPKLLDl20AJ6V5WqVsEMw7lmCkbzPYHlIjdYdD/RFGOnbot7g7J0QEwlmF6XCugXq1RBKKpcUchjp70JAIvUGOgQbLnZtMlIasqVEuZqk7GcVrkZopz3GxQ7ZC3TrAM8dPGddwdHnmFG8W5JkHYr7I7SlvR6tNIm73loFucn+rSNSsQYnJmEljmYcSLFhevHyOmdPznvWTxrgHTWQqIaw9XJT4JFdikRgbuoYdu3mU1bNSYYmp0xTUamWDYN6hBNPW3Z1IkBxCP5c0QkTHRacg/x1lCPqUKoI7XR8RmraqY6rCk4c3mMuA7kAaAiA1ZyLponO4YTOmPXNEc2TdwS0NqfAsZ7AFnEidaIS0IKxP/lGP7Cn+6VxavEH81D1CubUsqk31M0FMYpP6HInOmZRtYDcV2Hsm6L4Rmt6KE4Mo6AWWBWilJG3W7m5h12HiN3fTOfpLTxFJqzbsN5dgNDQMXGP8T5m4/GthA2lQWdPffQikaCMO8HnHEozQD2RxqSKjVaWFPI6f+s1HiEyaKA20/3MEB/HlQ9V9IH9C1nzN4qduVZ2UOKJOqXa+2lLnWnaADGzp/lx3etAlfy/voa50dt1Pts7zW4dqjv9pX9PxGhT67w4OMvBE8y9bY+6s73KWGXgPK2zvJpnJDTAAFov5pCtJB6cJFr30E7rGXFOZxX3dR3Cps17GJaUiAFYpND+aeYx8CSfJttNphZ3/ltS69/CQIiIUgtN63vu7Sl1XcXndlii7GGYGvDn2/5Bb+SEGjdnwQTYTAkAR+omHoftAtpHtKlq/cct1CAGRCwygykrLefK/LZNet2e35Xb9D0zYboaYSo7EonFPQsgWg7Wz/yu5F1/BW8i1HnKbkeQEtwV9W13CiPg9Y878KSJrytax8w8hmLt4FlX0nU0wUh6aSJg/gWgeppciGEmYw/SZRVOiE1ct2izhOsSFjSatCgGP3GZmP6mcgWBeZIIVbx+ZNTt2/rE7OzwgTVIVFVJSUbvKVUf/DzbB/RnojVQFH4xob90iQXs1JZp9DGnGZG6eEKCdf8R+l0gy/OkSKtJqRJoek3c1la1yz/pJGDqvEPDGBZKRjz7MDDWG8eAtSJgDdKcdH8VNl2XoKi3fuHx9QgDRIclhyyTgmyEaAVd4dud9Vtj2h2iWSA20CaWtUtSrUlFxwqrjXzSb+B72HDIBjSNEyviaagXSrVqYDJ5/lKyiqGQsd+7Y8cdsBPAB6tdcEEXLBfyXnCHXXtaXYOAo9Yn/AMF8V+uEsGGYze6CYHxSSxNYIphr79RGDf9wEKhn2NGMZdK2eAoJ8wxRCcy9lPdYfuTfYWMMEuuWIq4jM83MVlg+MfrvCel+lgMYZ88Rz/qj62FudZWMmHeSvJPEcO44zoQSBIOEYRcyX+1JHY5oTjC48degrBvBeJvhKNWJL0IwD2GzEHw5gITpPAjBID5loG4QzBoM6T9sFaTPRtvCrcxcS7z4AhuKncAPQnwDidcz/fewKPMInHKzM8a4fh6jnzSvk4+gNeEBZKvDkHzJVtiO5481OywtX61ojkoE0/TcyiVUsj+EYN4PoZBWS9oY704dH+h4a1DWj2BorPTJ2oSM/m9jszDT3UfCbfZW11pzJ5gN6bIGQ/oPXIVsEwwQOXm02W/C1hQROci0zCFih7AsuRBIRMWx5opIE7VCmA+L7xLyIWR6Dno+MmYy0dwIjWFidfWCok+a3ObcCWyYkpV2/xHZRu+ESJickiFEcbRaI9xaR4KRW5nlQxf+gtzK38SGIRlfD96Q8h1wnLQ37pZdHUIbd1zPENAEEsSiHY3lCQvZQj2afdZVM4KAsFPwoTGT7yqZEmZASNoaIy7jABLRaEYTQtE6GU92slpfmQyNZh8n1A4nA1sSlvb+d+TrZp0VyyKUgcbNJNXxziMYcR4icS8+hKfs66w9nzHrJul2N/qmu0PEDfRpa7fq5UZ5p0FAuxf7aksFMWjGX+E3jHXCLgkxiUcCZmeV8kopbuNculSaLQ6wX1iOzT42vvoSTUTRCVfDQLWZUzTzJJOgF5jHGWS7i//Zok7mekSs1KZVOWtZ1lHCYOVjDkYzP0HCfJW0VudIitLP7O+9JIYgHSzXnAlIDKn4ckCJZCSTrjir4JfYlpf2d+tQhMYpf7x9e/vSxvf6QUAxP4qjI3BSMXSe1lYeHt+Gj+hpecg0x4KXrJHRMXkFFE6knWuZ9NTCO0eE1ADhXt1/hWrmeMA5oQlzedEy++oQTUAeXmwkFuLt+p/YmnArT8kdwNPCF5/R5WANyroRjMK9vQu1U2xb9w2rjf3M8qx/D/twI+J3j7NMWim8Q8DDNx+QBE67U5H/CBsH8c7aeSVGyBJj5CSkgWlzD4CoNfgiKq3eVbSrNmd12K4BkDaqWGsIiLlpoCCFFocTWbhEYdz8lBCdIfat4Im4lkNI2lrSyigTIsliEphHU2wixdYoWXZCyG3+LHbx71mT4FYtongj+ll1r01ZN4IB8wEEEIBZaAew+uRX2NfjeRgNMVVsjprpPWKNDrJOwnmUsyVho5QIbqRQ+JAwCQURyu0RwJVkEF4GgAALgXl4iE+IARxJYd8w9QrOtDbw2qhlDSCghOUilJAwHzkA0sGsgxqoa6IiBtDtDzxnfk1RzCQggTJAAeLMMn1uE9VmvmMBW/VZCSk1/CBr7f41QZw4DIRk/qCmKvRPzHVtyjoSjCglVcsS5Rxmw5x46ltwiNeRLACol82HOvejx5KUDmnjCfQkuhVDBeBc6uB+1u7KchN6nBSgEeF4UgVJGxHPZZ1MAAL4G+X6gwCMU+MpJurbdfATVuij6SPGMGYY41BMT9s8Kqqb40iTnVo3s3ye1drEoVUWUOe53nPUMsOfh+ne7OShXR0CIsLlqXOCEQ0KUdagrCPBwCGkTinljvCa3L8JGU8aF79NgN5p6AL1jCjVsMhWB+wZkyjMmxKi03qounQtCMhX6Um/lUgnpj31sYtOBBFVrGu6rOONcl1CQJqAxkfqlcJj9E+MrjVm6fqclhXCgrOQJILCgUZjjNi04xYqF5w2HAVfssP3odY/CN7sI3ysi5o0/ARySnJRRIjoKWKna1LWjWB82wbtA0OPpDLFyoCihNfLLyNlfkTw3UtsKETGRoz9UJsksR11VOgEJqSNVBpSuiwiCJEyWqTk+cbgOCKclFjaIAFErbkAgW6jXI8QaI2LfzF+zgw1WpyQKBAzFOaD9HF9FEarRIm4p6vjBHUiVcCFpHMTjPU2Jr8/RV6End5JRb3L1k1VutS9LbxBVq0ZJqwbwYiPaF/FlAVAPnAW7adI8kjijgijWHiGRUaPWbJ0kgTyeE8Ud8QaiYAdeoPCVsIe2ISULfAUxar1E6I8/yegA+T0S4CGa7kOKwLS2Y2yVhBwbXeVyq5e9dHAp2OoPS4DGGGaY0BOH/YXJRtOUJ3EVrmIW5qtTAix0XAGMNCQAM2g5w4I5nYmK1l4Rk0hTFQT44kW5+mYzxvZM/UgJ9agrCvBpB1A1AIgobUM86zCYjDuvbPsNRLNfZ80W4+Rc3gZAoNLSB8tsEVCF1ykuBVIoLYRj5Qk7DBG8gRlplTkq5J2eyZh6vKcwQ4ggW6jrBUE1oxgkCgyzJVDWZqGtj4XDoQy8rU9CQk/YvK31WZPWl6MU9iuLTO6DrHJ7ifYMPcuvKhSzzW+wiTixPTT1TsxU/8JEeqHJI0IZm0M//UjGGlP6ot3ktB+dQJJIUJpoJ8mAEaJwgP9rowjaR635NKPCeBjXYV2HcNVGBCcF2qvw042ASI3cKAURFkC/SAa+FIKM5YKhIRFkHQIQMnJsFHWCgJrRTDa6ybNRaZMMdrnZg4CYWKTqACohLlLxg5mCRskQ2g3NsoBSwiozJRvJZMOE5zYwe4QZWm3724g1U34xKa57nVTHgGJGBUnJBGOrl97WTeCcVXJKYZGqxMUpmFkx3tXM5p/EQG5Dkv3yTCClYcn5GWrs0NwPPMiIroVjCcVjLoSEkBoz/ZMxza+d7j6pnpjxSg5R2lDTWc3yrVCYK0IRjaKZuibqN/NJVZksmOcdi1L8QINRKtWSZjesf0f4T19wBqo5EqqgV7B4Eqa8A2D1TICpRiWQi7tgk3tuQZCKdNOBtzhTPv6WmHC+hGMQ+MKKqfPTjetUzSE8UwPJIVcZPu8jTY9wjtSPWuN6hiG3wXLLh5jnQXRsA2l5mE6VATkG/tg88CRghxuaS0ZwFkQIIECskdysrX+gp8+6ZkuMEpFul7N+zVQahceOxF4KtLVlja406FJEa/VcO8Ef5xAdU4V6CR1+C363frIhmtndqB+Ly5x9QxH/js9/ea/rXe9+WT6TPucbhFDoqiqdkmrfNOZVrtad/gl/lx5S/vhv/dbfbjCBdx+sGWfhq5i6UE1SJ5RdkkmU0woLUGeLalc7GDW3lbE8zwTGeC7lRU1tbCPuZS9aNvbYYQjMNR+CEhRIDh6gKtGQI31MdGUQ2tsdD3tBNcdzrpHRfe3//rPa/qzjgRzFe1sD1rL1RiD2J4NRX32reTmWaiJAcimsCFrxmOt6ls5hQpHVhLCyZWeJwT4chi0s0EmbEuRaPMfFheF+R60N9zVGYiKzJBC3tQtLeDyj/crrau8MGnBiASx3c3pRHBlH2hUOhYtZNMxn/Z9b0J+Kk7/Q7TpQ+lfefuuqLP1rM8r+f388ZKiyRV38rNVA7ekyKKr7craz3FKALzi8PI9f+dc69l2u1uHl+FC3fqniA3BJH2bzrRgxTnfMkP7jCpKGTVLY6Y5NNmh7gnzKA725NHz5EnLKlNM+SAuYQgkN4Tazea0qNkh3yGMLt0Gw1/1ln88I85bXl37C9cfwWgg5XKGQ/sW322i8b5zEUeB5mLkQBDhaLfeaIV4ouVjJLM/CfHgVakrRxeDwu2OF2Cl8g4HpCtS8jhtMZd+I5G0pyXeN31iF/qaJON+EEczASIARwqvSH/4ODL5ifR36+ebh8d5IqfaSKxv3Yhd5RywfV5PvYF4Ukn1pP757ekf3US54p0gqlqm9qmotjcIp/2sTuoe3dEu6XvbdK2zbabh9+pml1R6iBq9qrQCvdGLJ+NAYuDuZYMcpIUMdZKl+ea8GOzalEopcKRmtVzGvngyl2MzXiR+aTseUDbjLe5GorB1YWG7awSqXe9Tk70/VzYyffPf+btBMIIayKp9XFLuJkcASCRAClz6g2NAub3g/T6Enk1R7scKs79LL7Ir8RlUANQ1pVP1TUs1uPotZGUQVYcC/SCgJN+LA4E4tpycByS9Q3XTDd4M3qEZ40gZ80Wkkj5CJo2oOKuf0+/08+bxVR06r6vpP8dcAgbT+/kS4XjRt+rjy5FVDEMtoDgGtX63z7Ufa9Wf3vjmv+0nQp9Rf/M1b8ebTkn3lzcplagAip98dM5tS2Cmc2q72iP4S+Jry0OpV6jGMXuHyg6JcmgFSPgM4fWK6Aq0UxmezViZN9k9OV/C01VmvUrxgIORuWwvEoTt4j/pY+tS+/R18X19ShinDsS4BtCNOoCt0kKeNsf3sRP+SxoglZyqOBk1MAC1h2XETmAk7U5qYzhQJlGplXVRoeaodTHeGWwVMcBIKVj5nZUN425qeVkYcNlF7OPCSKfnteuY0rdq5lmEhZ3E3hS8X/e0VLnLBOXYz3m+RViO3EKBVl902YuzBeoTebVO4vy4/Fv3XL5XiKvSwq42ZnF8mcDeuBnoyXmi+Cwhu25OJbeQP1WrUsLUFuWBMxNJBewMdlRzaYHEcJVKIU0Qj7bx8G0LlavZx4JWSnIrySBwiGAoCXaI8kJnsT2CPOmUCkxCY4soa2cKO3WGfriUFdNLu5eyKB21+tZiSJy4rsr1RzAOnhYCXEYUnRQgGXhHjRTxZPi1wZvy8zfM85R7i+SELAys7BW/mboxQuv1SyxuusDeKietsfK8VVZOoO2xoxi3KxmDE6PYniJfa3y3X6SmUHygaV+aFpb7IS6sVLgrE3C4v5l+5hjJhaqXEDzoBKb5gtamqfLi+ZYYfLdRJn2HOn3ly/jdhoOkoxfBB+RUHX6ORiveDuLwuS6XBC0ErxKc6BKhpUKhLsn4TvfrFOFQf4u9+1v547TVelP7y3lJqx16N7s+YXuQR4xNcBVtHpT3MTG/CdtSzIUma2c2WimGJBVavRRPE5MKQjbhlYTXprf65y+GUBU7xjHA41mmB9ovv46+ry+CcUQR9AS0dHQccdsASyErEPuZNvowDOkTPNq+5hkjdRtOAN0nUhOaaxD0CTR5Js7JrDJiBwRa5DdSJyLvryQQG6smdeYHNOMcY8RKPwfRtDtxAhdO1T2QFINW+9N7nWmzqDz9kerX/L7iIrR4RXnTAbfpGOJrSykOdcbxqYXFDg/+eOydvHnCZJX0Qvru1ik/14JZeo/f2KowfcQPIHLfPlxSFQma2njYduwIELBLcrpbMuoqGz0FOc1/EXXBfFjEGhdu4HcGFQwpq3ZLjeP9npzCOy7Y4IyRfUhHtJluOhqSynq7CEbLMfwxP6dMLyK3QBL8OivXFcFc9r4I8CqOKenP9qHGXx4XV8EUS+Y3Sb6IMIQpKclc1olBXlXT/qS4xHPOmaXcaaC5Qbq6/PhulENIvke9CILfZEKJnbj4DfcO+Sg2Tr9lF6XcGiKD2GQIxw3SoKLbBxjD2j0scKKU3p9yfcccESxt0P6YOk4N7xbSqD2/1nfOpEX955df5j5JKfcIqhMutZgAduR1ng7XVzQEBCFpJxe7I3wfBALyQwxab6LtAGVvOMIDe4WpcKM/59lXJAW5LwlwmEgyqP5UZlzRTsGUBV2O5ORrcJev7ksZliSN+IjGJaVhYKex0UlXQVud4jBlKhpRDq6zcn0RjIDTAqzDSUjtgNeRuJc+6T0OS4e85AfFCSMlDg44ofMp9/LbHPY6J0VB1Ygo0+uXbW+d8fu4o0VQIj8NqqsuPKXL7bd4Y/w+kF8eI+2mLNVI0khEIltAi5989SEE0zKivW4Rm6uLKaJ5hn9dV33SXShqZ/pHraC93ri03f7bJRFqGQidqmgyssXxmQlvIXQoR4YIRoSBepiqiZwTASFNdF/aH/VZL2x/OSBShOac91vXW+OR3ppCQ3+d2fl4vQFXTqfFq6JPzu0gvtZ7RD2pFaX634gobl/2x9p1XCff1xXB/F2YgEAtxE+HjMEAu4XgKZfisg9i68kWhF078YG9gmB0i58TMmL7iJO2RqY9QF5Le5ScEHhESMkNb7rniqOUwHhSN1x5U7ueyze0Ll9xT1uqSMKkRCSpw+8WwXh79Mc7LKJRpbTH69YfPv5b96SHrbdcbooHqnLpbYsDQm3QXW120KqYr3bVHqvn3CUdgzfXmd6YRopLurWK+uMwYCwd/oJnel1VpexLuoFIpvVOfwfPtw7bVV0P39c5wVwPINpowwYE3oDABsG8AYuNXxsQWBUCGwSzKog2btiAwBsQ2CCYN2Cx8WsDAqtCYINgVgXRxg0bEHgDAhsE8wYsNn5tQGBVCPz/jkW6B7YC3ukAAAAASUVORK5CYII=;" parent="19" vertex="1">
                    <mxGeometry x="30" y="47" width="68.69" height="66" as="geometry"/>
                </mxCell>
                <mxCell id="33" value="" style="sketch=0;outlineConnect=0;fontColor=#232F3E;gradientColor=none;fillColor=#232F3D;strokeColor=none;dashed=0;verticalLabelPosition=bottom;verticalAlign=top;align=center;html=1;fontSize=12;fontStyle=0;aspect=fixed;pointerEvents=1;shape=mxgraph.aws4.generic_database;" parent="19" vertex="1">
                    <mxGeometry x="170" y="41" width="59" height="78" as="geometry"/>
                </mxCell>
                <mxCell id="41" value="共通データサービス" style="points=[[0,0],[0.25,0],[0.5,0],[0.75,0],[1,0],[1,0.25],[1,0.5],[1,0.75],[1,1],[0.75,1],[0.5,1],[0.25,1],[0,1],[0,0.75],[0,0.5],[0,0.25]];outlineConnect=0;gradientColor=none;html=1;whiteSpace=wrap;fontSize=12;fontStyle=0;container=1;pointerEvents=0;collapsible=0;recursiveResize=0;shape=mxgraph.aws4.group;grIcon=mxgraph.aws4.group_on_premise;strokeColor=#5A6C86;fillColor=none;verticalAlign=top;align=left;spacingLeft=30;fontColor=#5A6C86;dashed=0;" parent="1" vertex="1">
                    <mxGeometry x="900" y="300" width="162" height="180" as="geometry"/>
                </mxCell>
                <mxCell id="38" value="" style="sketch=0;points=[[0,0,0],[0.25,0,0],[0.5,0,0],[0.75,0,0],[1,0,0],[0,1,0],[0.25,1,0],[0.5,1,0],[0.75,1,0],[1,1,0],[0,0.25,0],[0,0.5,0],[0,0.75,0],[1,0.25,0],[1,0.5,0],[1,0.75,0]];outlineConnect=0;fontColor=#232F3E;gradientColor=#F78E04;gradientDirection=north;fillColor=#D05C17;strokeColor=#ffffff;dashed=0;verticalLabelPosition=bottom;verticalAlign=top;align=center;html=1;fontSize=12;fontStyle=0;aspect=fixed;shape=mxgraph.aws4.resourceIcon;resIcon=mxgraph.aws4.compute;" parent="41" vertex="1">
                    <mxGeometry x="90" y="38" width="38" height="38" as="geometry"/>
                </mxCell>
                <mxCell id="40" value="" style="sketch=0;points=[[0,0,0],[0.25,0,0],[0.5,0,0],[0.75,0,0],[1,0,0],[0,1,0],[0.25,1,0],[0.5,1,0],[0.75,1,0],[1,1,0],[0,0.25,0],[0,0.5,0],[0,0.75,0],[1,0.25,0],[1,0.5,0],[1,0.75,0]];outlineConnect=0;fontColor=#232F3E;gradientColor=#F78E04;gradientDirection=north;fillColor=#D05C17;strokeColor=#ffffff;dashed=0;verticalLabelPosition=bottom;verticalAlign=top;align=center;html=1;fontSize=12;fontStyle=0;aspect=fixed;shape=mxgraph.aws4.resourceIcon;resIcon=mxgraph.aws4.compute;" parent="41" vertex="1">
                    <mxGeometry x="90" y="110" width="38" height="38" as="geometry"/>
                </mxCell>
                <mxCell id="37" value="" style="sketch=0;points=[[0,0,0],[0.25,0,0],[0.5,0,0],[0.75,0,0],[1,0,0],[0,1,0],[0.25,1,0],[0.5,1,0],[0.75,1,0],[1,1,0],[0,0.25,0],[0,0.5,0],[0,0.75,0],[1,0.25,0],[1,0.5,0],[1,0.75,0]];outlineConnect=0;fontColor=#232F3E;gradientColor=#F78E04;gradientDirection=north;fillColor=#D05C17;strokeColor=#ffffff;dashed=0;verticalLabelPosition=bottom;verticalAlign=top;align=center;html=1;fontSize=12;fontStyle=0;aspect=fixed;shape=mxgraph.aws4.resourceIcon;resIcon=mxgraph.aws4.compute;" parent="41" vertex="1">
                    <mxGeometry x="30" y="38" width="38" height="38" as="geometry"/>
                </mxCell>
                <mxCell id="39" value="" style="sketch=0;points=[[0,0,0],[0.25,0,0],[0.5,0,0],[0.75,0,0],[1,0,0],[0,1,0],[0.25,1,0],[0.5,1,0],[0.75,1,0],[1,1,0],[0,0.25,0],[0,0.5,0],[0,0.75,0],[1,0.25,0],[1,0.5,0],[1,0.75,0]];outlineConnect=0;fontColor=#232F3E;gradientColor=#F78E04;gradientDirection=north;fillColor=#D05C17;strokeColor=#ffffff;dashed=0;verticalLabelPosition=bottom;verticalAlign=top;align=center;html=1;fontSize=12;fontStyle=0;aspect=fixed;shape=mxgraph.aws4.resourceIcon;resIcon=mxgraph.aws4.compute;" parent="41" vertex="1">
                    <mxGeometry x="30" y="110" width="38" height="38" as="geometry"/>
                </mxCell>
                <mxCell id="42" value="FHIR Gateway&lt;br&gt;(Rust)" style="sketch=0;outlineConnect=0;fontColor=#232F3E;gradientColor=none;fillColor=#232F3D;strokeColor=none;dashed=0;verticalLabelPosition=bottom;verticalAlign=top;align=center;html=1;fontSize=12;fontStyle=0;aspect=fixed;pointerEvents=1;shape=mxgraph.aws4.external_sdk;" parent="1" vertex="1">
                    <mxGeometry x="520" y="349" width="69.74" height="80" as="geometry"/>
                </mxCell>
                <mxCell id="45" value="ヘルスケアサービスで共通する&lt;br&gt;マスターやターミノロジーなどを提供する" style="text;html=1;align=center;verticalAlign=middle;resizable=0;points=[];autosize=1;strokeColor=none;fillColor=none;" parent="1" vertex="1">
                    <mxGeometry x="856" y="250" width="250" height="40" as="geometry"/>
                </mxCell>
                <mxCell id="46" value="" style="edgeStyle=orthogonalEdgeStyle;html=1;endArrow=none;elbow=vertical;startArrow=block;startFill=1;strokeColor=#545B64;rounded=0;entryX=0;entryY=0.5;entryDx=0;entryDy=0;exitX=1;exitY=0.5;exitDx=0;exitDy=0;" parent="1" source="13" target="41" edge="1">
                    <mxGeometry width="100" relative="1" as="geometry">
                        <mxPoint x="780" y="160" as="sourcePoint"/>
                        <mxPoint x="800" y="370" as="targetPoint"/>
                        <Array as="points">
                            <mxPoint x="840" y="140"/>
                            <mxPoint x="840" y="390"/>
                        </Array>
                    </mxGeometry>
                </mxCell>
                <mxCell id="48" value="" style="edgeStyle=orthogonalEdgeStyle;html=1;endArrow=none;elbow=vertical;startArrow=block;startFill=1;strokeColor=#545B64;rounded=0;exitX=1;exitY=0.5;exitDx=0;exitDy=0;" parent="1" source="19" edge="1">
                    <mxGeometry width="100" relative="1" as="geometry">
                        <mxPoint x="790" y="170" as="sourcePoint"/>
                        <mxPoint x="900" y="390" as="targetPoint"/>
                        <Array as="points">
                            <mxPoint x="840" y="680"/>
                            <mxPoint x="840" y="390"/>
                        </Array>
                    </mxGeometry>
                </mxCell>
                <mxCell id="52" value="" style="edgeStyle=orthogonalEdgeStyle;html=1;endArrow=block;elbow=vertical;startArrow=block;startFill=1;endFill=1;strokeColor=#545B64;rounded=0;exitX=0.5;exitY=0;exitDx=0;exitDy=0;" parent="1" source="24" target="42" edge="1">
                    <mxGeometry width="100" relative="1" as="geometry">
                        <mxPoint x="660" y="610" as="sourcePoint"/>
                        <mxPoint x="760" y="610" as="targetPoint"/>
                    </mxGeometry>
                </mxCell>
                <mxCell id="54" value="" style="edgeStyle=orthogonalEdgeStyle;html=1;endArrow=block;elbow=vertical;startArrow=block;startFill=1;endFill=1;strokeColor=#545B64;rounded=0;" parent="1" source="42" target="26" edge="1">
                    <mxGeometry width="100" relative="1" as="geometry">
                        <mxPoint x="560" y="340" as="sourcePoint"/>
                        <mxPoint x="564.8571428571429" y="439" as="targetPoint"/>
                        <Array as="points">
                            <mxPoint x="570" y="260"/>
                            <mxPoint x="568" y="260"/>
                        </Array>
                    </mxGeometry>
                </mxCell>
                <mxCell id="57" value="Health Tech Hub" style="points=[[0,0],[0.25,0],[0.5,0],[0.75,0],[1,0],[1,0.25],[1,0.5],[1,0.75],[1,1],[0.75,1],[0.5,1],[0.25,1],[0,1],[0,0.75],[0,0.5],[0,0.25]];outlineConnect=0;gradientColor=none;html=1;whiteSpace=wrap;fontSize=12;fontStyle=0;container=1;pointerEvents=0;collapsible=0;recursiveResize=0;shape=mxgraph.aws4.group;grIcon=mxgraph.aws4.group_iot_greengrass_deployment;strokeColor=#3F8624;fillColor=none;verticalAlign=top;align=left;spacingLeft=30;fontColor=#3F8624;dashed=0;" parent="1" vertex="1">
                    <mxGeometry x="480" y="240" width="670" height="270" as="geometry"/>
                </mxCell>
                <mxCell id="31" value="個人情報を含まないした&lt;br&gt;医療データの蓄積" style="sketch=0;outlineConnect=0;fontColor=#232F3E;gradientColor=none;fillColor=#232F3D;strokeColor=none;dashed=0;verticalLabelPosition=bottom;verticalAlign=top;align=center;html=1;fontSize=12;fontStyle=0;aspect=fixed;pointerEvents=1;shape=mxgraph.aws4.generic_database;" parent="57" vertex="1">
                    <mxGeometry x="170" y="20" width="59" height="78" as="geometry"/>
                </mxCell>
                <mxCell id="63" value="サービス間個人情報マッピングDB" style="sketch=0;outlineConnect=0;fontColor=#232F3E;gradientColor=none;fillColor=#232F3D;strokeColor=none;dashed=0;verticalLabelPosition=bottom;verticalAlign=top;align=center;html=1;fontSize=12;fontStyle=0;aspect=fixed;pointerEvents=1;shape=mxgraph.aws4.generic_database;" parent="57" vertex="1">
                    <mxGeometry x="170" y="170" width="59" height="78" as="geometry"/>
                </mxCell>
                <mxCell id="64" value="AIに活用し&lt;br&gt;サービスに還元する" style="sketch=0;points=[[0,0,0],[0.25,0,0],[0.5,0,0],[0.75,0,0],[1,0,0],[0,1,0],[0.25,1,0],[0.5,1,0],[0.75,1,0],[1,1,0],[0,0.25,0],[0,0.5,0],[0,0.75,0],[1,0.25,0],[1,0.5,0],[1,0.75,0]];outlineConnect=0;fontColor=#232F3E;gradientColor=#4AB29A;gradientDirection=north;fillColor=#116D5B;strokeColor=#ffffff;dashed=0;verticalLabelPosition=bottom;verticalAlign=top;align=center;html=1;fontSize=12;fontStyle=0;aspect=fixed;shape=mxgraph.aws4.resourceIcon;resIcon=mxgraph.aws4.augmented_ai;" vertex="1" parent="57">
                    <mxGeometry x="280" y="106" width="58" height="58" as="geometry"/>
                </mxCell>
                <mxCell id="67" value="" style="edgeStyle=orthogonalEdgeStyle;html=1;endArrow=block;elbow=vertical;startArrow=none;endFill=1;strokeColor=#545B64;rounded=0;entryX=0;entryY=0.5;entryDx=0;entryDy=0;entryPerimeter=0;" edge="1" parent="57" source="31" target="64">
                    <mxGeometry width="100" relative="1" as="geometry">
                        <mxPoint x="350" y="230" as="sourcePoint"/>
                        <mxPoint x="450" y="230" as="targetPoint"/>
                    </mxGeometry>
                </mxCell>
                <mxCell id="60" value="PWA&lt;br&gt;Ruby on Rails" style="sketch=0;outlineConnect=0;fontColor=#232F3E;gradientColor=none;fillColor=#232F3D;strokeColor=none;dashed=0;verticalLabelPosition=bottom;verticalAlign=top;align=center;html=1;fontSize=12;fontStyle=0;aspect=fixed;pointerEvents=1;shape=mxgraph.aws4.mobile_client;" parent="1" vertex="1">
                    <mxGeometry x="260" y="351" width="41.53" height="79" as="geometry"/>
                </mxCell>
                <mxCell id="61" value="Health Hub（共通PHR基盤）" style="points=[[0,0],[0.25,0],[0.5,0],[0.75,0],[1,0],[1,0.25],[1,0.5],[1,0.75],[1,1],[0.75,1],[0.5,1],[0.25,1],[0,1],[0,0.75],[0,0.5],[0,0.25]];outlineConnect=0;gradientColor=none;html=1;whiteSpace=wrap;fontSize=12;fontStyle=0;container=1;pointerEvents=0;collapsible=0;recursiveResize=0;shape=mxgraph.aws4.group;grIcon=mxgraph.aws4.group_account;strokeColor=#CD2264;fillColor=none;verticalAlign=top;align=left;spacingLeft=30;fontColor=#CD2264;dashed=0;" parent="1" vertex="1">
                    <mxGeometry x="170" y="280" width="200" height="220" as="geometry"/>
                </mxCell>
                <mxCell id="62" value="" style="edgeStyle=orthogonalEdgeStyle;html=1;endArrow=block;elbow=vertical;startArrow=block;startFill=1;endFill=1;strokeColor=#545B64;rounded=0;" parent="1" source="42" edge="1">
                    <mxGeometry width="100" relative="1" as="geometry">
                        <mxPoint x="580.0769230769229" y="359" as="sourcePoint"/>
                        <mxPoint x="370" y="390" as="targetPoint"/>
                        <Array as="points"/>
                    </mxGeometry>
                </mxCell>
                <mxCell id="70" value="" style="edgeStyle=orthogonalEdgeStyle;html=1;endArrow=none;elbow=vertical;startArrow=block;startFill=1;strokeColor=#545B64;rounded=0;exitX=0.75;exitY=0;exitDx=0;exitDy=0;" edge="1" parent="1" source="19" target="64">
                    <mxGeometry width="100" relative="1" as="geometry">
                        <mxPoint x="830" y="470" as="sourcePoint"/>
                        <mxPoint x="930" y="470" as="targetPoint"/>
                        <Array as="points">
                            <mxPoint x="712" y="540"/>
                            <mxPoint x="789" y="540"/>
                        </Array>
                    </mxGeometry>
                </mxCell>
                <mxCell id="71" value="" style="edgeStyle=orthogonalEdgeStyle;html=1;endArrow=none;elbow=vertical;startArrow=block;startFill=1;strokeColor=#545B64;rounded=0;entryX=0.5;entryY=0;entryDx=0;entryDy=0;entryPerimeter=0;" edge="1" parent="1" source="13" target="64">
                    <mxGeometry width="100" relative="1" as="geometry">
                        <mxPoint x="722.5" y="610" as="sourcePoint"/>
                        <mxPoint x="799" y="414" as="targetPoint"/>
                        <Array as="points">
                            <mxPoint x="722" y="280"/>
                            <mxPoint x="799" y="280"/>
                            <mxPoint x="799" y="346"/>
                        </Array>
                    </mxGeometry>
                </mxCell>
            </root>
        </mxGraphModel>
    </diagram>
</mxfile>